ArchivoNarrowDeva-Bold.ufo
<glyph name="quotedbl" format="1">
  <advance width="344"/>
  <unicode hex="0022"/>
  <outline>
    <contour>
      <point x="129" y="360" type="line"/>
      <point x="59" y="360" type="line"/>
      <point x="40" y="476" type="line"/>
      <point x="40" y="606" type="line"/>
      <point x="148" y="606" type="line"/>
      <point x="148" y="476" type="line"/>
    </contour>
    <contour>
      <point x="289" y="360" type="line"/>
      <point x="219" y="360" type="line"/>
      <point x="200" y="476" type="line"/>
      <point x="200" y="606" type="line"/>
      <point x="308" y="606" type="line"/>
      <point x="308" y="476" type="line"/>
    </contour>
  </outline>
</glyph>
<glyph name="ampersand" format="1">
  <advance width="523"/>
  <unicode hex="0026"/>
  <outline>
    <contour>
      <point x="247" y="617" type="curve" smooth="yes"/>
      <point x="361" y="617"/>
      <point x="440" y="552"/>
      <point x="440" y="451" type="curve" smooth="yes"/>
      <point x="440" y="426" type="line"/>
      <point x="334" y="426" type="line"/>
      <point x="334" y="443" type="line" smooth="yes"/>
      <point x="334" y="499"/>
      <point x="303" y="528"/>
      <point x="245" y="528" type="curve" smooth="yes"/>
      <point x="188" y="528"/>
      <point x="155" y="497"/>
      <point x="155" y="446" type="curve" smooth="yes"/>
      <point x="155" y="388"/>
      <point x="191" y="353"/>
      <point x="241" y="353" type="curve" smooth="yes"/>
      <point x="278" y="353" type="line"/>
      <point x="278" y="263" type="line"/>
      <point x="244" y="263" type="line" smooth="yes"/>
      <point x="190" y="263"/>
      <point x="142" y="244"/>
      <point x="142" y="168" type="curve" smooth="yes"/>
      <point x="142" y="107"/>
      <point x="180" y="79"/>
      <point x="240" y="79" type="curve" smooth="yes"/>
      <point x="303" y="79"/>
      <point x="334" y="111"/>
      <point x="334" y="169" type="curve" smooth="yes"/>
      <point x="334" y="353" type="line"/>
      <point x="510" y="353" type="line"/>
      <point x="510" y="263" type="line"/>
      <point x="440" y="263" type="line"/>
      <point x="440" y="171" type="line" smooth="yes"/>
      <point x="440" y="61"/>
      <point x="370" y="-11"/>
      <point x="238" y="-11" type="curve" smooth="yes"/>
      <point x="118" y="-11"/>
      <point x="32" y="55"/>
      <point x="32" y="163" type="curve" smooth="yes"/>
      <point x="32" y="243"/>
      <point x="76" y="292"/>
      <point x="135" y="311" type="curve"/>
      <point x="135" y="315" type="line"/>
      <point x="83" y="340"/>
      <point x="44" y="379"/>
      <point x="44" y="451" type="curve" smooth="yes"/>
      <point x="44" y="559"/>
      <point x="126" y="617"/>
    </contour>
  </outline>
</glyph>
<glyph name="asterisk" format="1">
  <advance width="282"/>
  <unicode hex="002A"/>
  <outline>
    <contour>
      <point x="276" y="510" type="line"/>
      <point x="194" y="471" type="line"/>
      <point x="276" y="434" type="line"/>
      <point x="241" y="374" type="line"/>
      <point x="167" y="427" type="line"/>
      <point x="176" y="337" type="line"/>
      <point x="107" y="337" type="line"/>
      <point x="116" y="427" type="line"/>
      <point x="42" y="374" type="line"/>
      <point x="7" y="434" type="line"/>
      <point x="89" y="471" type="line"/>
      <point x="7" y="510" type="line"/>
      <point x="42" y="568" type="line"/>
      <point x="116" y="516" type="line"/>
      <point x="107" y="606" type="line"/>
      <point x="176" y="606" type="line"/>
      <point x="167" y="517" type="line"/>
      <point x="241" y="568" type="line"/>
    </contour>
  </outline>
</glyph>
<glyph name="slash" format="1">
  <advance width="202"/>
  <unicode hex="002F"/>
  <outline>
    <contour>
      <point x="126" y="650" type="line"/>
      <point x="202" y="650" type="line"/>
      <point x="77" y="-43" type="line"/>
      <point x="1" y="-43" type="line"/>
    </contour>
  </outline>
</glyph>
<glyph name="one" format="1">
  <advance width="403"/>
  <unicode hex="0031"/>
  <outline>
    <contour>
      <point x="402" y="0" type="line"/>
      <point x="35" y="0" type="line"/>
      <point x="35" y="89" type="line"/>
      <point x="171" y="89" type="line"/>
      <point x="171" y="468" type="line"/>
      <point x="34" y="468" type="line"/>
      <point x="34" y="538" type="line"/>
      <point x="84" y="544"/>
      <point x="169" y="571"/>
      <point x="225" y="606" type="curve"/>
      <point x="278" y="606" type="line"/>
      <point x="278" y="89" type="line"/>
      <point x="402" y="89" type="line"/>
    </contour>
  </outline>
</glyph>
<glyph name="two" format="1">
  <advance width="403"/>
  <unicode hex="0032"/>
  <outline>
    <contour>
      <point x="211" y="617" type="curve" smooth="yes"/>
      <point x="301" y="617"/>
      <point x="374" y="571"/>
      <point x="374" y="460" type="curve" smooth="yes"/>
      <point x="374" y="327"/>
      <point x="254" y="217"/>
      <point x="191" y="141" type="curve" smooth="yes"/>
      <point x="179" y="126"/>
      <point x="168" y="111"/>
      <point x="162" y="99" type="curve"/>
      <point x="377" y="99" type="line"/>
      <point x="377" y="0" type="line"/>
      <point x="29" y="0" type="line"/>
      <point x="29" y="21" type="line" smooth="yes"/>
      <point x="29" y="53"/>
      <point x="35" y="82"/>
      <point x="47" y="109" type="curve" smooth="yes"/>
      <point x="101" y="241"/>
      <point x="263" y="322"/>
      <point x="263" y="461" type="curve" smooth="yes"/>
      <point x="263" y="489"/>
      <point x="250" y="526"/>
      <point x="207" y="526" type="curve" smooth="yes"/>
      <point x="163" y="526"/>
      <point x="146" y="484"/>
      <point x="146" y="434" type="curve" smooth="yes"/>
      <point x="146" y="398" type="line"/>
      <point x="37" y="398" type="line"/>
      <point x="37" y="398"/>
      <point x="34" y="412"/>
      <point x="34" y="433" type="curve" smooth="yes"/>
      <point x="34" y="563"/>
      <point x="117" y="617"/>
    </contour>
  </outline>
</glyph>
<glyph name="four" format="1">
  <advance width="403"/>
  <unicode hex="0034"/>
  <outline>
    <contour>
      <point x="160" y="617" type="curve"/>
      <point x="266" y="617" type="line"/>
      <point x="232" y="460"/>
      <point x="133" y="274"/>
      <point x="99" y="226" type="curve"/>
      <point x="225" y="226" type="line"/>
      <point x="225" y="362" type="line"/>
      <point x="248" y="408"/>
      <point x="273" y="480"/>
      <point x="285" y="527" type="curve"/>
      <point x="331" y="527" type="line"/>
      <point x="331" y="226" type="line"/>
      <point x="393" y="226" type="line"/>
      <point x="393" y="137" type="line"/>
      <point x="331" y="137" type="line"/>
      <point x="331" y="0" type="line"/>
      <point x="225" y="0" type="line"/>
      <point x="225" y="137" type="line"/>
      <point x="7" y="137" type="line"/>
      <point x="7" y="222" type="line"/>
      <point x="71" y="334"/>
      <point x="125" y="483"/>
    </contour>
  </outline>
</glyph>
<glyph name="five" format="1">
  <advance width="403"/>
  <unicode hex="0035"/>
  <outline>
    <contour>
      <point x="157" y="507" type="line"/>
      <point x="149" y="364" type="line"/>
      <point x="166" y="378"/>
      <point x="193" y="394"/>
      <point x="235" y="394" type="curve" smooth="yes"/>
      <point x="317" y="394"/>
      <point x="383" y="331"/>
      <point x="383" y="198" type="curve" smooth="yes"/>
      <point x="383" y="65"/>
      <point x="315" y="-11"/>
      <point x="205" y="-11" type="curve" smooth="yes"/>
      <point x="97" y="-11"/>
      <point x="27" y="65"/>
      <point x="27" y="188" type="curve"/>
      <point x="137" y="188" type="line"/>
      <point x="137" y="121"/>
      <point x="162" y="78"/>
      <point x="205" y="78" type="curve" smooth="yes"/>
      <point x="246" y="78"/>
      <point x="273" y="118"/>
      <point x="273" y="198" type="curve" smooth="yes"/>
      <point x="273" y="269"/>
      <point x="247" y="308"/>
      <point x="211" y="308" type="curve" smooth="yes"/>
      <point x="179" y="308"/>
      <point x="159" y="286"/>
      <point x="146" y="256" type="curve"/>
      <point x="43" y="271" type="line"/>
      <point x="64" y="606" type="line"/>
      <point x="357" y="606" type="line"/>
      <point x="357" y="507" type="line"/>
    </contour>
  </outline>
</glyph>
<glyph name="semicolon" format="1">
  <advance width="241"/>
  <unicode hex="003B"/>
  <outline>
    <contour>
      <point x="49" y="465" type="line"/>
      <point x="171" y="465" type="line"/>
      <point x="171" y="344" type="line"/>
      <point x="49" y="344" type="line"/>
    </contour>
    <contour>
      <point x="48" y="-138" type="line"/>
      <point x="96" y="0" type="line"/>
      <point x="48" y="0" type="line"/>
      <point x="48" y="121" type="line"/>
      <point x="170" y="121" type="line"/>
      <point x="170" y="11" type="line"/>
      <point x="111" y="-138" type="line"/>
    </contour>
  </outline>
</glyph>
<glyph name="question" format="1">
  <advance width="443"/>
  <unicode hex="003F"/>
  <outline>
    <contour>
      <point x="230" y="617" type="curve" smooth="yes"/>
      <point x="335" y="617"/>
      <point x="400" y="552"/>
      <point x="400" y="460" type="curve" smooth="yes"/>
      <point x="400" y="303"/>
      <point x="290" y="302"/>
      <point x="290" y="199" type="curve" smooth="yes"/>
      <point x="290" y="174" type="line"/>
      <point x="179" y="174" type="line"/>
      <point x="179" y="212" type="line" smooth="yes"/>
      <point x="179" y="318"/>
      <point x="285" y="336"/>
      <point x="285" y="450" type="curve" smooth="yes"/>
      <point x="285" y="468"/>
      <point x="278" y="522"/>
      <point x="223" y="522" type="curve" smooth="yes"/>
      <point x="164" y="522"/>
      <point x="155" y="462"/>
      <point x="155" y="430" type="curve" smooth="yes"/>
      <point x="155" y="415"/>
      <point x="156" y="406"/>
      <point x="156" y="406" type="curve"/>
      <point x="44" y="406" type="line"/>
      <point x="44" y="406"/>
      <point x="42" y="426"/>
      <point x="42" y="437" type="curve" smooth="yes"/>
      <point x="42" y="536"/>
      <point x="103" y="617"/>
    </contour>
    <contour>
      <point x="174" y="121" type="line"/>
      <point x="296" y="121" type="line"/>
      <point x="296" y="0" type="line"/>
      <point x="174" y="0" type="line"/>
    </contour>
  </outline>
</glyph>
<glyph name="C" format="1">
  <advance width="523"/>
  <unicode hex="0043"/>
  <outline>
    <contour>
      <point x="262" y="0" type="move" name="Anchor-1"/>
    </contour>
    <contour>
      <point x="262" y="606" type="move" name="Anchor-0"/>
    </contour>
    <contour>
      <point x="271" y="617" type="curve" smooth="yes"/>
      <point x="398" y="617"/>
      <point x="494" y="545"/>
      <point x="494" y="381" type="curve"/>
      <point x="378" y="381" type="line"/>
      <point x="378" y="475"/>
      <point x="335" y="520"/>
      <point x="271" y="520" type="curve" smooth="yes"/>
      <point x="187" y="520"/>
      <point x="147" y="446"/>
      <point x="147" y="325" type="curve" smooth="yes"/>
      <point x="147" y="281" type="line" smooth="yes"/>
      <point x="147" y="160"/>
      <point x="188" y="87"/>
      <point x="275" y="87" type="curve" smooth="yes"/>
      <point x="340" y="87"/>
      <point x="384" y="131"/>
      <point x="384" y="225" type="curve"/>
      <point x="494" y="225" type="line"/>
      <point x="494" y="65"/>
      <point x="400" y="-11"/>
      <point x="271" y="-11" type="curve" smooth="yes"/>
      <point x="119" y="-11"/>
      <point x="30" y="89"/>
      <point x="30" y="303" type="curve" smooth="yes"/>
      <point x="30" y="517"/>
      <point x="119" y="617"/>
    </contour>
  </outline>
</glyph>
<glyph name="D" format="1">
  <advance width="523"/>
  <unicode hex="0044"/>
  <outline>
    <contour>
      <point x="0" y="0" type="move" name="Anchor-1"/>
    </contour>
    <contour>
      <point x="262" y="606" type="move" name="Anchor-0"/>
    </contour>
    <contour>
      <point x="53" y="606" type="line"/>
      <point x="250" y="606" type="line" smooth="yes"/>
      <point x="401" y="606"/>
      <point x="493" y="507"/>
      <point x="493" y="312" type="curve" smooth="yes"/>
      <point x="493" y="104"/>
      <point x="401" y="0"/>
      <point x="250" y="0" type="curve" smooth="yes"/>
      <point x="53" y="0" type="line"/>
    </contour>
    <contour>
      <point x="166" y="101" type="line"/>
      <point x="240" y="101" type="line" smooth="yes"/>
      <point x="324" y="101"/>
      <point x="377" y="164"/>
      <point x="377" y="290" type="curve" smooth="yes"/>
      <point x="377" y="334" type="line" smooth="yes"/>
      <point x="377" y="448"/>
      <point x="324" y="506"/>
      <point x="240" y="506" type="curve" smooth="yes"/>
      <point x="166" y="506" type="line"/>
    </contour>
  </outline>
</glyph>
<glyph name="F" format="1">
  <advance width="443"/>
  <unicode hex="0046"/>
  <outline>
    <contour>
      <point x="409" y="606" type="line"/>
      <point x="409" y="506" type="line"/>
      <point x="166" y="506" type="line"/>
      <point x="166" y="353" type="line"/>
      <point x="374" y="353" type="line"/>
      <point x="374" y="252" type="line"/>
      <point x="166" y="252" type="line"/>
      <point x="166" y="0" type="line"/>
      <point x="53" y="0" type="line"/>
      <point x="53" y="606" type="line"/>
    </contour>
  </outline>
</glyph>
<glyph name="K" format="1">
  <advance width="523"/>
  <unicode hex="004B"/>
  <outline>
    <contour>
      <point x="262" y="0" type="move" name="Anchor-1"/>
    </contour>
    <contour>
      <point x="262" y="606" type="move" name="Anchor-0"/>
    </contour>
    <contour>
      <point x="515" y="606" type="line"/>
      <point x="336" y="360" type="line"/>
      <point x="521" y="0" type="line"/>
      <point x="393" y="0" type="line"/>
      <point x="262" y="271" type="line"/>
      <point x="167" y="155" type="line"/>
      <point x="167" y="0" type="line"/>
      <point x="53" y="0" type="line"/>
      <point x="53" y="606" type="line"/>
      <point x="167" y="606" type="line"/>
      <point x="167" y="296" type="line"/>
      <point x="389" y="606" type="line"/>
    </contour>
  </outline>
</glyph>
<glyph name="M" format="1">
  <advance width="604"/>
  <unicode hex="004D"/>
  <outline>
    <contour>
      <point x="453" y="0" type="line"/>
      <point x="453" y="386" type="line" smooth="yes"/>
      <point x="453" y="414"/>
      <point x="457" y="484"/>
      <point x="457" y="484" type="curve"/>
      <point x="453" y="484" type="line"/>
      <point x="448" y="461"/>
      <point x="444" y="438"/>
      <point x="438" y="415" type="curve" smooth="yes"/>
      <point x="347" y="0" type="line"/>
      <point x="249" y="0" type="line"/>
      <point x="164" y="389" type="line" smooth="yes"/>
      <point x="156" y="421"/>
      <point x="149" y="452"/>
      <point x="142" y="484" type="curve"/>
      <point x="139" y="484" type="line"/>
      <point x="139" y="484"/>
      <point x="143" y="410"/>
      <point x="143" y="386" type="curve" smooth="yes"/>
      <point x="143" y="0" type="line"/>
      <point x="47" y="0" type="line"/>
      <point x="47" y="606" type="line"/>
      <point x="206" y="606" type="line"/>
      <point x="281" y="272" type="line" smooth="yes"/>
      <point x="290" y="232"/>
      <point x="305" y="135"/>
      <point x="305" y="135" type="curve"/>
      <point x="309" y="135" type="line"/>
      <point x="309" y="135"/>
      <point x="321" y="237"/>
      <point x="329" y="272" type="curve" smooth="yes"/>
      <point x="403" y="606" type="line"/>
      <point x="557" y="606" type="line"/>
      <point x="557" y="0" type="line"/>
    </contour>
  </outline>
</glyph>
<glyph name="T" format="1">
  <advance width="443"/>
  <unicode hex="0054"/>
  <outline>
    <contour>
      <point x="222" y="0" type="move" name="Anchor-1"/>
    </contour>
    <contour>
      <point x="222" y="606" type="move" name="Anchor-0"/>
    </contour>
    <contour>
      <point x="278" y="506" type="line"/>
      <point x="278" y="0" type="line"/>
      <point x="165" y="0" type="line"/>
      <point x="165" y="506" type="line"/>
      <point x="15" y="506" type="line"/>
      <point x="15" y="606" type="line"/>
      <point x="429" y="606" type="line"/>
      <point x="429" y="506" type="line"/>
    </contour>
  </outline>
</glyph>
<glyph name="Z" format="1">
  <advance width="443"/>
  <unicode hex="005A"/>
  <outline>
    <contour>
      <point x="0" y="0" type="move" name="Anchor-1"/>
    </contour>
    <contour>
      <point x="222" y="606" type="move" name="Anchor-0"/>
    </contour>
    <contour>
      <point x="169" y="101" type="line"/>
      <point x="424" y="101" type="line"/>
      <point x="424" y="0" type="line"/>
      <point x="14" y="0" type="line"/>
      <point x="14" y="43" type="line"/>
      <point x="263" y="506" type="line"/>
      <point x="33" y="506" type="line"/>
      <point x="33" y="606" type="line"/>
      <point x="418" y="606" type="line"/>
      <point x="418" y="562" type="line"/>
    </contour>
  </outline>
</glyph>
<glyph name="bracketright" format="1">
  <advance width="241"/>
  <unicode hex="005D"/>
  <outline>
    <contour>
      <point x="22" y="-58" type="line"/>
      <point x="95" y="-58" type="line"/>
      <point x="95" y="566" type="line"/>
      <point x="22" y="566" type="line"/>
      <point x="22" y="650" type="line"/>
      <point x="198" y="650" type="line"/>
      <point x="198" y="-142" type="line"/>
      <point x="22" y="-142" type="line"/>
    </contour>
  </outline>
</glyph>
<glyph name="asciicircum" format="1">
  <advance width="423"/>
  <unicode hex="005E"/>
  <outline>
    <contour>
      <point x="213" y="499" type="line"/>
      <point x="126" y="260" type="line"/>
      <point x="28" y="260" type="line"/>
      <point x="166" y="606" type="line"/>
      <point x="261" y="606" type="line"/>
      <point x="400" y="260" type="line"/>
      <point x="302" y="260" type="line"/>
    </contour>
  </outline>
</glyph>
<glyph name="underscore" format="1">
  <advance width="403"/>
  <unicode hex="005F"/>
  <outline>
    <contour>
      <point x="0" y="-56" type="line"/>
      <point x="402" y="-56" type="line"/>
      <point x="402" y="-117" type="line"/>
      <point x="0" y="-117" type="line"/>
    </contour>
  </outline>
</glyph>
<glyph name="grave" format="1">
  <advance width="241"/>
  <unicode hex="0060"/>
  <outline>
    <contour>
      <point x="19" y="636" type="line"/>
      <point x="19" y="639" type="line"/>
      <point x="126" y="639" type="line"/>
      <point x="202" y="522" type="line"/>
      <point x="114" y="522" type="line"/>
    </contour>
  </outline>
</glyph>
<glyph name="f" format="1">
  <advance width="241"/>
  <unicode hex="0066"/>
  <outline>
    <contour>
      <point x="164" y="646" type="curve" smooth="yes"/>
      <point x="189" y="646"/>
      <point x="224" y="641"/>
      <point x="241" y="636" type="curve"/>
      <point x="241" y="557" type="line"/>
      <point x="198" y="557" type="line" smooth="yes"/>
      <point x="174" y="557"/>
      <point x="161" y="544"/>
      <point x="161" y="519" type="curve" smooth="yes"/>
      <point x="161" y="465" type="line"/>
      <point x="241" y="465" type="line"/>
      <point x="241" y="376" type="line"/>
      <point x="161" y="376" type="line"/>
      <point x="161" y="0" type="line"/>
      <point x="55" y="0" type="line"/>
      <point x="55" y="376" type="line"/>
      <point x="8" y="376" type="line"/>
      <point x="8" y="465" type="line"/>
      <point x="55" y="465" type="line"/>
      <point x="55" y="522" type="line" smooth="yes"/>
      <point x="55" y="583"/>
      <point x="80" y="646"/>
    </contour>
  </outline>
</glyph>
<glyph name="i" format="1">
  <advance width="202"/>
  <unicode hex="0069"/>
  <outline>
    <contour>
      <point x="48" y="639" type="line"/>
      <point x="154" y="639" type="line"/>
      <point x="154" y="543" type="line"/>
      <point x="48" y="543" type="line"/>
    </contour>
    <contour>
      <point x="48" y="465" type="line"/>
      <point x="154" y="465" type="line"/>
      <point x="154" y="0" type="line"/>
      <point x="48" y="0" type="line"/>
    </contour>
  </outline>
</glyph>
<glyph name="k" format="1">
  <advance width="403"/>
  <unicode hex="006B"/>
  <outline>
    <contour>
      <point x="202" y="0" type="move" name="Anchor-1"/>
    </contour>
    <contour>
      <point x="0" y="0" type="move" name="Anchor-0"/>
    </contour>
    <contour>
      <point x="397" y="465" type="line"/>
      <point x="259" y="276" type="line"/>
      <point x="404" y="0" type="line"/>
      <point x="286" y="0" type="line"/>
      <point x="193" y="193" type="line"/>
      <point x="154" y="145" type="line"/>
      <point x="154" y="0" type="line"/>
      <point x="48" y="0" type="line"/>
      <point x="48" y="639" type="line"/>
      <point x="154" y="639" type="line"/>
      <point x="154" y="280" type="line"/>
      <point x="284" y="465" type="line"/>
    </contour>
  </outline>
</glyph>
<glyph name="r" format="1">
  <advance width="282"/>
  <unicode hex="0072"/>
  <outline>
    <contour>
      <point x="141" y="0" type="move" name="Anchor-1"/>
    </contour>
    <contour>
      <point x="141" y="465" type="move" name="Anchor-0"/>
    </contour>
    <contour>
      <point x="235" y="476" type="curve" smooth="yes"/>
      <point x="263" y="476"/>
      <point x="279" y="469"/>
      <point x="279" y="469" type="curve"/>
      <point x="279" y="366" type="line"/>
      <point x="241" y="366" type="line" smooth="yes"/>
      <point x="195" y="366"/>
      <point x="155" y="341"/>
      <point x="155" y="259" type="curve" smooth="yes"/>
      <point x="155" y="0" type="line"/>
      <point x="49" y="0" type="line"/>
      <point x="49" y="465" type="line"/>
      <point x="137" y="465" type="line"/>
      <point x="149" y="397" type="line"/>
      <point x="155" y="397" type="line"/>
      <point x="167" y="436"/>
      <point x="188" y="476"/>
    </contour>
  </outline>
</glyph>
<glyph name="x" format="1">
  <advance width="403"/>
  <unicode hex="0078"/>
  <outline>
    <contour>
      <point x="399" y="0" type="line"/>
      <point x="279" y="0" type="line"/>
      <point x="201" y="154" type="line"/>
      <point x="196" y="154" type="line"/>
      <point x="118" y="0" type="line"/>
      <point x="4" y="0" type="line"/>
      <point x="139" y="240" type="line"/>
      <point x="15" y="465" type="line"/>
      <point x="135" y="465" type="line"/>
      <point x="204" y="330" type="line"/>
      <point x="209" y="330" type="line"/>
      <point x="278" y="465" type="line"/>
      <point x="392" y="465" type="line"/>
      <point x="266" y="243" type="line"/>
    </contour>
  </outline>
</glyph>
<glyph name="z" format="1">
  <advance width="362"/>
  <unicode hex="007A"/>
  <outline>
    <contour>
      <point x="0" y="0" type="move" name="Anchor-1"/>
    </contour>
    <contour>
      <point x="181" y="465" type="move" name="Anchor-0"/>
    </contour>
    <contour>
      <point x="347" y="89" type="line"/>
      <point x="347" y="0" type="line"/>
      <point x="16" y="0" type="line"/>
      <point x="16" y="45" type="line"/>
      <point x="196" y="376" type="line"/>
      <point x="27" y="376" type="line"/>
      <point x="27" y="465" type="line"/>
      <point x="340" y="465" type="line"/>
      <point x="340" y="421" type="line"/>
      <point x="159" y="89" type="line"/>
    </contour>
  </outline>
</glyph>
<glyph name="bar" format="1">
  <advance width="203"/>
  <unicode hex="007C"/>
  <outline>
    <contour>
      <point x="62" y="639" type="line"/>
      <point x="141" y="639" type="line"/>
      <point x="141" y="-153" type="line"/>
      <point x="62" y="-153" type="line"/>
    </contour>
  </outline>
</glyph>
<glyph name="exclamdown" format="1">
  <advance width="241"/>
  <unicode hex="00A1"/>
  <outline>
    <contour>
      <point x="60" y="344" type="line"/>
      <point x="60" y="465" type="line"/>
      <point x="182" y="465" type="line"/>
      <point x="182" y="344" type="line"/>
    </contour>
    <contour>
      <point x="84" y="291" type="curve"/>
      <point x="156" y="291" type="line"/>
      <point x="167" y="147"/>
      <point x="178" y="3"/>
      <point x="188" y="-141" type="curve"/>
      <point x="53" y="-141" type="line"/>
      <point x="64" y="3"/>
      <point x="73" y="147"/>
    </contour>
  </outline>
</glyph>
<glyph name="sterling" format="1">
  <advance width="403"/>
  <unicode hex="00A3"/>
  <outline>
    <contour>
      <point x="223" y="617" type="curve" smooth="yes"/>
      <point x="320" y="617"/>
      <point x="383" y="560"/>
      <point x="383" y="446" type="curve" smooth="yes"/>
      <point x="383" y="434" type="line"/>
      <point x="278" y="434" type="line"/>
      <point x="278" y="457" type="line" smooth="yes"/>
      <point x="278" y="504"/>
      <point x="256" y="528"/>
      <point x="223" y="528" type="curve" smooth="yes"/>
      <point x="190" y="528"/>
      <point x="170" y="507"/>
      <point x="170" y="464" type="curve" smooth="yes"/>
      <point x="170" y="344" type="line"/>
      <point x="276" y="344" type="line"/>
      <point x="276" y="255" type="line"/>
      <point x="169" y="255" type="line"/>
      <point x="159" y="95" type="line"/>
      <point x="377" y="95" type="line"/>
      <point x="377" y="0" type="line"/>
      <point x="18" y="0" type="line"/>
      <point x="18" y="95" type="line"/>
      <point x="63" y="95" type="line"/>
      <point x="63" y="255" type="line"/>
      <point x="8" y="255" type="line"/>
      <point x="8" y="344" type="line"/>
      <point x="63" y="344" type="line"/>
      <point x="63" y="441" type="line" smooth="yes"/>
      <point x="63" y="559"/>
      <point x="123" y="617"/>
    </contour>
  </outline>
</glyph>
<glyph name="currency" format="1">
  <advance width="403"/>
  <unicode hex="00A4"/>
  <outline>
    <contour>
      <point x="202" y="510" type="curve" smooth="yes"/>
      <point x="242" y="510"/>
      <point x="281" y="493"/>
      <point x="312" y="467" type="curve"/>
      <point x="349" y="504" type="line"/>
      <point x="402" y="449" type="line"/>
      <point x="359" y="406" type="line"/>
      <point x="375" y="375"/>
      <point x="384" y="340"/>
      <point x="384" y="302" type="curve" smooth="yes"/>
      <point x="384" y="263"/>
      <point x="374" y="228"/>
      <point x="358" y="197" type="curve"/>
      <point x="402" y="154" type="line"/>
      <point x="348" y="100" type="line"/>
      <point x="311" y="137" type="line"/>
      <point x="280" y="111"/>
      <point x="242" y="95"/>
      <point x="202" y="95" type="curve" smooth="yes"/>
      <point x="160" y="95"/>
      <point x="122" y="111"/>
      <point x="91" y="137" type="curve"/>
      <point x="54" y="100" type="line"/>
      <point x="0" y="154" type="line"/>
      <point x="44" y="198" type="line"/>
      <point x="28" y="228"/>
      <point x="19" y="264"/>
      <point x="19" y="302" type="curve" smooth="yes"/>
      <point x="19" y="339"/>
      <point x="27" y="374"/>
      <point x="43" y="405" type="curve"/>
      <point x="0" y="449" type="line"/>
      <point x="53" y="504" type="line"/>
      <point x="90" y="467" type="line"/>
      <point x="121" y="493"/>
      <point x="159" y="510"/>
    </contour>
    <contour>
      <point x="202" y="431" type="curve" smooth="yes"/>
      <point x="142" y="431"/>
      <point x="94" y="374"/>
      <point x="94" y="302" type="curve" smooth="yes"/>
      <point x="94" y="232"/>
      <point x="142" y="175"/>
      <point x="202" y="175" type="curve" smooth="yes"/>
      <point x="260" y="175"/>
      <point x="309" y="232"/>
      <point x="309" y="302" type="curve" smooth="yes"/>
      <point x="309" y="374"/>
      <point x="260" y="431"/>
    </contour>
  </outline>
</glyph>
<glyph name="yen" format="1">
  <advance width="403"/>
  <unicode hex="00A5"/>
  <outline>
    <contour>
      <point x="378" y="268" type="line"/>
      <point x="255" y="268" type="line"/>
      <point x="255" y="207" type="line"/>
      <point x="378" y="207" type="line"/>
      <point x="378" y="135" type="line"/>
      <point x="255" y="135" type="line"/>
      <point x="255" y="0" type="line"/>
      <point x="149" y="0" type="line"/>
      <point x="149" y="135" type="line"/>
      <point x="25" y="135" type="line"/>
      <point x="25" y="207" type="line"/>
      <point x="148" y="207" type="line"/>
      <point x="148" y="269" type="line"/>
      <point x="25" y="269" type="line"/>
      <point x="25" y="340" type="line"/>
      <point x="118" y="340" type="line"/>
      <point x="4" y="606" type="line"/>
      <point x="119" y="606" type="line"/>
      <point x="202" y="374" type="line"/>
      <point x="206" y="374" type="line"/>
      <point x="288" y="606" type="line"/>
      <point x="399" y="606" type="line"/>
      <point x="286" y="340" type="line"/>
      <point x="378" y="340" type="line"/>
    </contour>
  </outline>
</glyph>
<glyph name="ordfeminine" format="1">
  <advance width="268"/>
  <unicode hex="00AA"/>
  <outline>
    <contour>
      <point x="133" y="649" type="curve" smooth="yes"/>
      <point x="206" y="649"/>
      <point x="240" y="615"/>
      <point x="240" y="556" type="curve" smooth="yes"/>
      <point x="240" y="406" type="line" smooth="yes"/>
      <point x="240" y="391"/>
      <point x="248" y="385"/>
      <point x="257" y="385" type="curve" smooth="yes"/>
      <point x="271" y="385" type="line"/>
      <point x="271" y="330" type="line"/>
      <point x="263" y="326"/>
      <point x="250" y="321"/>
      <point x="229" y="321" type="curve" smooth="yes"/>
      <point x="201" y="321"/>
      <point x="181" y="338"/>
      <point x="174" y="362" type="curve"/>
      <point x="171" y="362" type="line"/>
      <point x="153" y="337"/>
      <point x="133" y="321"/>
      <point x="91" y="321" type="curve" smooth="yes"/>
      <point x="62" y="321"/>
      <point x="12" y="336"/>
      <point x="12" y="409" type="curve" smooth="yes"/>
      <point x="12" y="493"/>
      <point x="75" y="519"/>
      <point x="164" y="519" type="curve"/>
      <point x="164" y="552" type="line" smooth="yes"/>
      <point x="164" y="571"/>
      <point x="160" y="587"/>
      <point x="135" y="587" type="curve" smooth="yes"/>
      <point x="109" y="587"/>
      <point x="102" y="571"/>
      <point x="102" y="558" type="curve" smooth="yes"/>
      <point x="102" y="549" type="line"/>
      <point x="28" y="549" type="line"/>
      <point x="27" y="552"/>
      <point x="27" y="556"/>
      <point x="27" y="561" type="curve" smooth="yes"/>
      <point x="27" y="614"/>
      <point x="69" y="649"/>
    </contour>
    <contour>
      <point x="164" y="449" type="curve" smooth="yes"/>
      <point x="164" y="467" type="line"/>
      <point x="126" y="467"/>
      <point x="89" y="456"/>
      <point x="89" y="415" type="curve" smooth="yes"/>
      <point x="89" y="396"/>
      <point x="99" y="384"/>
      <point x="121" y="384" type="curve" smooth="yes"/>
      <point x="152" y="384"/>
      <point x="164" y="414"/>
    </contour>
  </outline>
</glyph>
<glyph name="logicalnot" format="1">
  <advance width="423"/>
  <unicode hex="00AC"/>
  <outline>
    <contour>
      <point x="301" y="309" type="line"/>
      <point x="26" y="309" type="line"/>
      <point x="26" y="409" type="line"/>
      <point x="393" y="409" type="line"/>
      <point x="393" y="165" type="line"/>
      <point x="301" y="165" type="line"/>
    </contour>
  </outline>
</glyph>
<glyph name="softhyphen" format="1">
  <advance width="241"/>
  <unicode hex="00AD"/>
  <outline>
    <contour>
      <point x="14" y="291" type="line"/>
      <point x="227" y="291" type="line"/>
      <point x="227" y="187" type="line"/>
      <point x="14" y="187" type="line"/>
    </contour>
  </outline>
</glyph>
<glyph name="registered" format="1">
  <advance width="534"/>
  <unicode hex="00AE"/>
  <outline>
    <contour>
      <point x="267" y="617" type="curve" smooth="yes"/>
      <point x="424" y="617"/>
      <point x="520" y="494"/>
      <point x="520" y="303" type="curve" smooth="yes"/>
      <point x="520" y="112"/>
      <point x="424" y="-11"/>
      <point x="267" y="-11" type="curve" smooth="yes"/>
      <point x="110" y="-11"/>
      <point x="14" y="112"/>
      <point x="14" y="303" type="curve" smooth="yes"/>
      <point x="14" y="494"/>
      <point x="110" y="617"/>
    </contour>
    <contour>
      <point x="267" y="568" type="curve" smooth="yes"/>
      <point x="141" y="568"/>
      <point x="64" y="465"/>
      <point x="64" y="303" type="curve" smooth="yes"/>
      <point x="64" y="141"/>
      <point x="141" y="38"/>
      <point x="267" y="38" type="curve" smooth="yes"/>
      <point x="393" y="38"/>
      <point x="470" y="141"/>
      <point x="470" y="303" type="curve" smooth="yes"/>
      <point x="470" y="465"/>
      <point x="393" y="568"/>
    </contour>
    <contour>
      <point x="154" y="483" type="line"/>
      <point x="293" y="483" type="line" smooth="yes"/>
      <point x="351" y="483"/>
      <point x="393" y="446"/>
      <point x="393" y="392" type="curve" smooth="yes"/>
      <point x="393" y="346"/>
      <point x="369" y="320"/>
      <point x="338" y="309" type="curve"/>
      <point x="338" y="305" type="line"/>
      <point x="355" y="299"/>
      <point x="390" y="278"/>
      <point x="390" y="210" type="curve" smooth="yes"/>
      <point x="390" y="165"/>
      <point x="400" y="151"/>
      <point x="415" y="146" type="curve"/>
      <point x="415" y="128" type="line"/>
      <point x="410" y="125"/>
      <point x="392" y="121"/>
      <point x="381" y="121" type="curve" smooth="yes"/>
      <point x="347" y="121"/>
      <point x="314" y="134"/>
      <point x="314" y="189" type="curve" smooth="yes"/>
      <point x="314" y="254"/>
      <point x="287" y="270"/>
      <point x="262" y="270" type="curve" smooth="yes"/>
      <point x="230" y="270" type="line"/>
      <point x="230" y="124" type="line"/>
      <point x="154" y="124" type="line"/>
    </contour>
    <contour>
      <point x="230" y="338" type="line"/>
      <point x="266" y="338" type="line" smooth="yes"/>
      <point x="295" y="338"/>
      <point x="316" y="354"/>
      <point x="316" y="378" type="curve" smooth="yes"/>
      <point x="316" y="400"/>
      <point x="297" y="414"/>
      <point x="269" y="414" type="curve" smooth="yes"/>
      <point x="230" y="414" type="line"/>
    </contour>
  </outline>
</glyph>
<glyph name="macron" format="1">
  <advance width="241"/>
  <unicode hex="00AF"/>
  <outline>
    <contour>
      <point x="8" y="606" type="line"/>
      <point x="233" y="606" type="line"/>
      <point x="233" y="530" type="line"/>
      <point x="8" y="530" type="line"/>
    </contour>
  </outline>
</glyph>
<glyph name="degree" format="1">
  <advance width="354"/>
  <unicode hex="00B0"/>
  <outline>
    <contour>
      <point x="175" y="617" type="curve" smooth="yes"/>
      <point x="245" y="617"/>
      <point x="301" y="561"/>
      <point x="301" y="492" type="curve" smooth="yes"/>
      <point x="301" y="422"/>
      <point x="245" y="366"/>
      <point x="175" y="366" type="curve" smooth="yes"/>
      <point x="105" y="366"/>
      <point x="50" y="422"/>
      <point x="50" y="492" type="curve" smooth="yes"/>
      <point x="50" y="561"/>
      <point x="105" y="617"/>
    </contour>
    <contour>
      <point x="175" y="556" type="curve" smooth="yes"/>
      <point x="139" y="556"/>
      <point x="110" y="528"/>
      <point x="110" y="492" type="curve" smooth="yes"/>
      <point x="110" y="455"/>
      <point x="139" y="426"/>
      <point x="175" y="426" type="curve" smooth="yes"/>
      <point x="211" y="426"/>
      <point x="240" y="455"/>
      <point x="240" y="492" type="curve" smooth="yes"/>
      <point x="240" y="528"/>
      <point x="211" y="556"/>
    </contour>
  </outline>
</glyph>
<glyph name="twosuperior" format="1">
  <advance width="241"/>
  <unicode hex="00B2"/>
  <outline>
    <contour>
      <point x="222" y="553" type="curve" smooth="yes"/>
      <point x="222" y="468"/>
      <point x="142" y="413"/>
      <point x="102" y="348" type="curve"/>
      <point x="224" y="348" type="line"/>
      <point x="224" y="283" type="line"/>
      <point x="13" y="283" type="line"/>
      <point x="13" y="299" type="line" smooth="yes"/>
      <point x="13" y="355"/>
      <point x="48" y="394"/>
      <point x="80" y="432" type="curve" smooth="yes"/>
      <point x="118" y="474"/>
      <point x="149" y="509"/>
      <point x="149" y="554" type="curve" smooth="yes"/>
      <point x="149" y="569"/>
      <point x="142" y="587"/>
      <point x="120" y="587" type="curve" smooth="yes"/>
      <point x="99" y="587"/>
      <point x="89" y="565"/>
      <point x="89" y="538" type="curve" smooth="yes"/>
      <point x="89" y="514" type="line"/>
      <point x="19" y="514" type="line"/>
      <point x="19" y="514"/>
      <point x="17" y="525"/>
      <point x="17" y="537" type="curve" smooth="yes"/>
      <point x="17" y="617"/>
      <point x="66" y="649"/>
      <point x="123" y="649" type="curve" smooth="yes"/>
      <point x="178" y="649"/>
      <point x="222" y="621"/>
    </contour>
  </outline>
</glyph>
<glyph name="acute" format="1">
  <advance width="241"/>
  <unicode hex="00B4"/>
  <outline>
    <contour>
      <point x="42" y="522" type="line"/>
      <point x="118" y="639" type="line"/>
      <point x="225" y="639" type="line"/>
      <point x="225" y="636" type="line"/>
      <point x="130" y="522" type="line"/>
    </contour>
  </outline>
</glyph>
<glyph name="micro" format="1">
  <advance width="443"/>
  <unicode hex="00B5"/>
  <outline>
    <contour>
      <point x="295" y="57" type="line"/>
      <point x="290" y="57" type="line"/>
      <point x="270" y="21"/>
      <point x="237" y="-11"/>
      <point x="190" y="-11" type="curve" smooth="yes"/>
      <point x="178" y="-11"/>
      <point x="165" y="-8"/>
      <point x="155" y="-4" type="curve"/>
      <point x="155" y="-153" type="line"/>
      <point x="49" y="-153" type="line"/>
      <point x="49" y="465" type="line"/>
      <point x="155" y="465" type="line"/>
      <point x="155" y="168" type="line" smooth="yes"/>
      <point x="155" y="108"/>
      <point x="176" y="86"/>
      <point x="216" y="86" type="curve" smooth="yes"/>
      <point x="257" y="86"/>
      <point x="288" y="125"/>
      <point x="288" y="177" type="curve" smooth="yes"/>
      <point x="288" y="465" type="line"/>
      <point x="394" y="465" type="line"/>
      <point x="394" y="0" type="line"/>
      <point x="306" y="0" type="line"/>
    </contour>
  </outline>
</glyph>
<glyph name="ordmasculine" format="1">
  <advance width="264"/>
  <unicode hex="00BA"/>
  <outline>
    <contour>
      <point x="134" y="649" type="curve" smooth="yes"/>
      <point x="218" y="649"/>
      <point x="260" y="598"/>
      <point x="260" y="484" type="curve" smooth="yes"/>
      <point x="260" y="371"/>
      <point x="218" y="320"/>
      <point x="134" y="320" type="curve" smooth="yes"/>
      <point x="50" y="320"/>
      <point x="9" y="371"/>
      <point x="9" y="484" type="curve" smooth="yes"/>
      <point x="9" y="598"/>
      <point x="50" y="649"/>
    </contour>
    <contour>
      <point x="134" y="584" type="curve" smooth="yes"/>
      <point x="100" y="584"/>
      <point x="88" y="553"/>
      <point x="88" y="496" type="curve" smooth="yes"/>
      <point x="88" y="473" type="line" smooth="yes"/>
      <point x="88" y="415"/>
      <point x="100" y="385"/>
      <point x="134" y="385" type="curve" smooth="yes"/>
      <point x="169" y="385"/>
      <point x="181" y="415"/>
      <point x="181" y="473" type="curve" smooth="yes"/>
      <point x="181" y="496" type="line" smooth="yes"/>
      <point x="181" y="553"/>
      <point x="169" y="584"/>
    </contour>
  </outline>
</glyph>
<glyph name="onequarter" format="1">
  <advance width="605"/>
  <unicode hex="00BC"/>
  <outline>
    <contour>
      <point x="465" y="617" type="line"/>
      <point x="523" y="617" type="line"/>
      <point x="174" y="-11" type="line"/>
      <point x="115" y="-11" type="line"/>
    </contour>
    <contour>
      <point x="224" y="250" type="line"/>
      <point x="29" y="250" type="line"/>
      <point x="29" y="311" type="line"/>
      <point x="95" y="311" type="line"/>
      <point x="95" y="517" type="line"/>
      <point x="28" y="517" type="line"/>
      <point x="28" y="567" type="line"/>
      <point x="55" y="570"/>
      <point x="101" y="587"/>
      <point x="130" y="606" type="curve"/>
      <point x="165" y="606" type="line"/>
      <point x="165" y="311" type="line"/>
      <point x="224" y="311" type="line"/>
    </contour>
    <contour>
      <point x="441" y="366" type="curve"/>
      <point x="511" y="366" type="line"/>
      <point x="492" y="276"/>
      <point x="440" y="174"/>
      <point x="417" y="140" type="curve"/>
      <point x="477" y="140" type="line"/>
      <point x="477" y="172" type="line"/>
      <point x="492" y="199"/>
      <point x="515" y="259"/>
      <point x="523" y="288" type="curve"/>
      <point x="547" y="288" type="line"/>
      <point x="547" y="140" type="line"/>
      <point x="584" y="140" type="line"/>
      <point x="584" y="79" type="line"/>
      <point x="547" y="79" type="line"/>
      <point x="547" y="0" type="line"/>
      <point x="477" y="0" type="line"/>
      <point x="477" y="79" type="line"/>
      <point x="351" y="79" type="line"/>
      <point x="351" y="133" type="line"/>
      <point x="387" y="197"/>
      <point x="419" y="286"/>
    </contour>
  </outline>
</glyph>
<glyph name="Aring" format="1">
  <advance width="523"/>
  <unicode hex="00C5"/>
  <outline>
    <contour>
      <point x="262" y="807" type="curve" smooth="yes"/>
      <point x="309" y="807"/>
      <point x="347" y="768"/>
      <point x="347" y="722" type="curve" smooth="yes"/>
      <point x="347" y="675"/>
      <point x="309" y="637"/>
      <point x="262" y="637" type="curve" smooth="yes"/>
      <point x="216" y="637"/>
      <point x="177" y="674"/>
      <point x="177" y="722" type="curve" smooth="yes"/>
      <point x="177" y="769"/>
      <point x="215" y="807"/>
    </contour>
    <contour>
      <point x="262" y="763" type="curve" smooth="yes"/>
      <point x="239" y="763"/>
      <point x="221" y="745"/>
      <point x="221" y="722" type="curve" smooth="yes"/>
      <point x="221" y="699"/>
      <point x="239" y="682"/>
      <point x="262" y="682" type="curve" smooth="yes"/>
      <point x="284" y="682"/>
      <point x="302" y="699"/>
      <point x="302" y="722" type="curve" smooth="yes"/>
      <point x="302" y="745"/>
      <point x="284" y="763"/>
    </contour>
    <contour>
      <point x="407" y="0" type="line"/>
      <point x="370" y="119" type="line"/>
      <point x="146" y="119" type="line"/>
      <point x="110" y="0" type="line"/>
      <point x="0" y="0" type="line"/>
      <point x="195" y="606" type="line"/>
      <point x="327" y="606" type="line"/>
      <point x="522" y="0" type="line"/>
    </contour>
    <contour>
      <point x="260" y="505" type="curve"/>
      <point x="256" y="505" type="line"/>
      <point x="256" y="505"/>
      <point x="248" y="451"/>
      <point x="239" y="423" type="curve" smooth="yes"/>
      <point x="177" y="220" type="line"/>
      <point x="339" y="220" type="line"/>
      <point x="278" y="423" type="line" smooth="yes"/>
      <point x="268" y="454"/>
      <point x="260" y="505"/>
    </contour>
  </outline>
</glyph>
<glyph name="AE" format="1">
  <advance width="725"/>
  <unicode hex="00C6"/>
  <outline>
    <contour>
      <point x="0" y="0" type="move" name="Anchor-1"/>
    </contour>
    <contour>
      <point x="362" y="606" type="move" name="Anchor-0"/>
    </contour>
    <contour>
      <point x="387" y="506" type="line"/>
      <point x="423" y="361" type="line"/>
      <point x="643" y="361" type="line"/>
      <point x="643" y="260" type="line"/>
      <point x="447" y="260" type="line"/>
      <point x="486" y="101" type="line"/>
      <point x="687" y="101" type="line"/>
      <point x="687" y="0" type="line"/>
      <point x="395" y="0" type="line"/>
      <point x="366" y="119" type="line"/>
      <point x="142" y="119" type="line"/>
      <point x="98" y="0" type="line"/>
      <point x="-7" y="0" type="line"/>
      <point x="225" y="606" type="line"/>
      <point x="682" y="606" type="line"/>
      <point x="682" y="506" type="line"/>
    </contour>
    <contour>
      <point x="280" y="483" type="curve"/>
      <point x="277" y="483" type="line"/>
      <point x="272" y="472"/>
      <point x="269" y="461"/>
      <point x="264" y="450" type="curve" smooth="yes"/>
      <point x="179" y="220" type="line"/>
      <point x="342" y="220" type="line"/>
      <point x="288" y="450" type="line" smooth="yes"/>
      <point x="286" y="461"/>
      <point x="283" y="472"/>
    </contour>
  </outline>
</glyph>
<glyph name="Ccedilla" format="1">
  <advance width="523"/>
  <unicode hex="00C7"/>
  <outline>
    <contour>
      <point x="271" y="617" type="curve" smooth="yes"/>
      <point x="398" y="617"/>
      <point x="494" y="545"/>
      <point x="494" y="381" type="curve"/>
      <point x="378" y="381" type="line"/>
      <point x="378" y="475"/>
      <point x="335" y="520"/>
      <point x="271" y="520" type="curve" smooth="yes"/>
      <point x="187" y="520"/>
      <point x="147" y="446"/>
      <point x="147" y="325" type="curve" smooth="yes"/>
      <point x="147" y="281" type="line" smooth="yes"/>
      <point x="147" y="160"/>
      <point x="188" y="87"/>
      <point x="275" y="87" type="curve" smooth="yes"/>
      <point x="340" y="87"/>
      <point x="384" y="131"/>
      <point x="384" y="225" type="curve"/>
      <point x="494" y="225" type="line"/>
      <point x="494" y="74"/>
      <point x="409" y="-2"/>
      <point x="292" y="-10" type="curve"/>
      <point x="290" y="-29" type="line"/>
      <point x="328" y="-32"/>
      <point x="360" y="-49"/>
      <point x="360" y="-89" type="curve" smooth="yes"/>
      <point x="360" y="-149"/>
      <point x="301" y="-161"/>
      <point x="263" y="-161" type="curve" smooth="yes"/>
      <point x="239" y="-161"/>
      <point x="210" y="-158"/>
      <point x="189" y="-154" type="curve"/>
      <point x="189" y="-111" type="line"/>
      <point x="252" y="-111" type="line" smooth="yes"/>
      <point x="271" y="-111"/>
      <point x="284" y="-106"/>
      <point x="284" y="-89" type="curve" smooth="yes"/>
      <point x="284" y="-75"/>
      <point x="277" y="-68"/>
      <point x="254" y="-68" type="curve" smooth="yes"/>
      <point x="225" y="-68" type="line"/>
      <point x="232" y="-8" type="line"/>
      <point x="103" y="8"/>
      <point x="30" y="108"/>
      <point x="30" y="303" type="curve" smooth="yes"/>
      <point x="30" y="517"/>
      <point x="119" y="617"/>
    </contour>
  </outline>
</glyph>
<glyph name="Eacute" format="1">
  <advance width="484"/>
  <unicode hex="00C9"/>
  <outline>
    <contour>
      <point x="269" y="664" type="line"/>
      <point x="181" y="664" type="line"/>
      <point x="257" y="781" type="line"/>
      <point x="363" y="781" type="line"/>
      <point x="364" y="778" type="line"/>
    </contour>
    <contour>
      <point x="166" y="506" type="line"/>
      <point x="166" y="361" type="line"/>
      <point x="400" y="361" type="line"/>
      <point x="400" y="260" type="line"/>
      <point x="166" y="260" type="line"/>
      <point x="166" y="101" type="line"/>
      <point x="445" y="101" type="line"/>
      <point x="445" y="0" type="line"/>
      <point x="53" y="0" type="line"/>
      <point x="53" y="606" type="line"/>
      <point x="439" y="606" type="line"/>
      <point x="439" y="506" type="line"/>
    </contour>
  </outline>
</glyph>
<glyph name="Edieresis" format="1">
  <advance width="484"/>
  <unicode hex="00CB"/>
  <outline>
    <contour>
      <point x="120" y="684" type="line"/>
      <point x="120" y="781" type="line"/>
      <point x="209" y="781" type="line"/>
      <point x="209" y="684" type="line"/>
    </contour>
    <contour>
      <point x="275" y="684" type="line"/>
      <point x="275" y="781" type="line"/>
      <point x="363" y="781" type="line"/>
      <point x="363" y="684" type="line"/>
    </contour>
    <contour>
      <point x="166" y="506" type="line"/>
      <point x="166" y="361" type="line"/>
      <point x="400" y="361" type="line"/>
      <point x="400" y="260" type="line"/>
      <point x="166" y="260" type="line"/>
      <point x="166" y="101" type="line"/>
      <point x="445" y="101" type="line"/>
      <point x="445" y="0" type="line"/>
      <point x="53" y="0" type="line"/>
      <point x="53" y="606" type="line"/>
      <point x="439" y="606" type="line"/>
      <point x="439" y="506" type="line"/>
    </contour>
  </outline>
</glyph>
<glyph name="Iacute" format="1">
  <advance width="202"/>
  <unicode hex="00CD"/>
  <outline>
    <contour>
      <point x="128" y="664" type="line"/>
      <point x="40" y="664" type="line"/>
      <point x="116" y="781" type="line"/>
      <point x="222" y="781" type="line"/>
      <point x="223" y="778" type="line"/>
    </contour>
    <contour>
      <point x="44" y="0" type="line"/>
      <point x="44" y="606" type="line"/>
      <point x="157" y="606" type="line"/>
      <point x="157" y="0" type="line"/>
    </contour>
  </outline>
</glyph>
<glyph name="Icircumflex" format="1">
  <advance width="202"/>
  <unicode hex="00CE"/>
  <outline>
    <contour>
      <point x="102" y="722" type="line"/>
      <point x="62" y="661" type="line"/>
      <point x="-19" y="661" type="line"/>
      <point x="58" y="781" type="line"/>
      <point x="145" y="781" type="line"/>
      <point x="220" y="661" type="line"/>
      <point x="141" y="661" type="line"/>
    </contour>
    <contour>
      <point x="44" y="606" type="line"/>
      <point x="157" y="606" type="line"/>
      <point x="157" y="0" type="line"/>
      <point x="44" y="0" type="line"/>
    </contour>
  </outline>
</glyph>
<glyph name="Idieresis" format="1">
  <advance width="202"/>
  <unicode hex="00CF"/>
  <outline>
    <contour>
      <point x="-20" y="684" type="line"/>
      <point x="-20" y="781" type="line"/>
      <point x="68" y="781" type="line"/>
      <point x="68" y="684" type="line"/>
    </contour>
    <contour>
      <point x="134" y="684" type="line"/>
      <point x="134" y="781" type="line"/>
      <point x="223" y="781" type="line"/>
      <point x="223" y="684" type="line"/>
    </contour>
    <contour>
      <point x="44" y="0" type="line"/>
      <point x="44" y="606" type="line"/>
      <point x="157" y="606" type="line"/>
      <point x="157" y="0" type="line"/>
    </contour>
  </outline>
</glyph>
<glyph name="Otilde" format="1">
  <advance width="564"/>
  <unicode hex="00D5"/>
  <outline>
    <contour>
      <point x="372" y="781" type="curve"/>
      <point x="431" y="781" type="line"/>
      <point x="431" y="732"/>
      <point x="406" y="673"/>
      <point x="344" y="673" type="curve" smooth="yes"/>
      <point x="301" y="673"/>
      <point x="267" y="705"/>
      <point x="227" y="705" type="curve" smooth="yes"/>
      <point x="208" y="705"/>
      <point x="196" y="697"/>
      <point x="193" y="673" type="curve"/>
      <point x="133" y="673" type="line"/>
      <point x="133" y="721"/>
      <point x="159" y="781"/>
      <point x="221" y="781" type="curve" smooth="yes"/>
      <point x="264" y="781"/>
      <point x="298" y="748"/>
      <point x="339" y="748" type="curve" smooth="yes"/>
      <point x="357" y="748"/>
      <point x="369" y="756"/>
    </contour>
    <contour>
      <point x="282" y="617" type="curve" smooth="yes"/>
      <point x="438" y="617"/>
      <point x="534" y="517"/>
      <point x="534" y="303" type="curve" smooth="yes"/>
      <point x="534" y="89"/>
      <point x="438" y="-11"/>
      <point x="282" y="-11" type="curve" smooth="yes"/>
      <point x="126" y="-11"/>
      <point x="30" y="89"/>
      <point x="30" y="303" type="curve" smooth="yes"/>
      <point x="30" y="517"/>
      <point x="126" y="617"/>
    </contour>
    <contour>
      <point x="282" y="520" type="curve" smooth="yes"/>
      <point x="192" y="520"/>
      <point x="147" y="446"/>
      <point x="147" y="325" type="curve" smooth="yes"/>
      <point x="147" y="281" type="line" smooth="yes"/>
      <point x="147" y="160"/>
      <point x="192" y="87"/>
      <point x="282" y="87" type="curve" smooth="yes"/>
      <point x="372" y="87"/>
      <point x="417" y="160"/>
      <point x="417" y="281" type="curve" smooth="yes"/>
      <point x="417" y="325" type="line" smooth="yes"/>
      <point x="417" y="446"/>
      <point x="372" y="520"/>
    </contour>
  </outline>
</glyph>
<glyph name="Oslash" format="1">
  <advance width="564"/>
  <unicode hex="00D8"/>
  <outline>
    <contour>
      <point x="0" y="0" type="move" name="Anchor-1"/>
    </contour>
    <contour>
      <point x="282" y="606" type="move" name="Anchor-0"/>
    </contour>
    <contour>
      <point x="530" y="639" type="line"/>
      <point x="467" y="539" type="line"/>
      <point x="510" y="488"/>
      <point x="534" y="409"/>
      <point x="534" y="303" type="curve" smooth="yes"/>
      <point x="534" y="89"/>
      <point x="438" y="-11"/>
      <point x="282" y="-11" type="curve" smooth="yes"/>
      <point x="229" y="-11"/>
      <point x="183" y="1"/>
      <point x="145" y="24" type="curve"/>
      <point x="110" y="-33" type="line"/>
      <point x="35" y="-33" type="line"/>
      <point x="97" y="66" type="line"/>
      <point x="54" y="118"/>
      <point x="30" y="196"/>
      <point x="30" y="303" type="curve" smooth="yes"/>
      <point x="30" y="517"/>
      <point x="126" y="617"/>
      <point x="282" y="617" type="curve" smooth="yes"/>
      <point x="335" y="617"/>
      <point x="381" y="606"/>
      <point x="419" y="582" type="curve"/>
      <point x="455" y="639" type="line"/>
    </contour>
    <contour>
      <point x="282" y="520" type="curve" smooth="yes"/>
      <point x="192" y="520"/>
      <point x="147" y="446"/>
      <point x="147" y="325" type="curve" smooth="yes"/>
      <point x="147" y="281" type="line" smooth="yes"/>
      <point x="147" y="239"/>
      <point x="152" y="202"/>
      <point x="163" y="171" type="curve"/>
      <point x="362" y="492" type="line"/>
      <point x="342" y="510"/>
      <point x="315" y="520"/>
    </contour>
    <contour>
      <point x="400" y="433" type="curve"/>
      <point x="202" y="114" type="line"/>
      <point x="222" y="96"/>
      <point x="249" y="87"/>
      <point x="282" y="87" type="curve" smooth="yes"/>
      <point x="372" y="87"/>
      <point x="417" y="160"/>
      <point x="417" y="281" type="curve" smooth="yes"/>
      <point x="417" y="325" type="line" smooth="yes"/>
      <point x="417" y="367"/>
      <point x="412" y="404"/>
    </contour>
  </outline>
</glyph>
<glyph name="Uacute" format="1">
  <advance width="523"/>
  <unicode hex="00DA"/>
  <outline>
    <contour>
      <point x="288" y="664" type="line"/>
      <point x="201" y="664" type="line"/>
      <point x="277" y="781" type="line"/>
      <point x="383" y="781" type="line"/>
      <point x="384" y="778" type="line"/>
    </contour>
    <contour>
      <point x="470" y="606" type="line"/>
      <point x="470" y="190" type="line" smooth="yes"/>
      <point x="470" y="58"/>
      <point x="392" y="-11"/>
      <point x="262" y="-11" type="curve" smooth="yes"/>
      <point x="132" y="-11"/>
      <point x="54" y="58"/>
      <point x="54" y="190" type="curve" smooth="yes"/>
      <point x="54" y="606" type="line"/>
      <point x="167" y="606" type="line"/>
      <point x="167" y="194" type="line" smooth="yes"/>
      <point x="167" y="124"/>
      <point x="202" y="87"/>
      <point x="262" y="87" type="curve" smooth="yes"/>
      <point x="322" y="87"/>
      <point x="357" y="124"/>
      <point x="357" y="194" type="curve" smooth="yes"/>
      <point x="357" y="606" type="line"/>
    </contour>
  </outline>
</glyph>
<glyph name="Yacute" format="1">
  <advance width="484"/>
  <unicode hex="00DD"/>
  <outline>
    <contour>
      <point x="269" y="664" type="line"/>
      <point x="181" y="664" type="line"/>
      <point x="257" y="781" type="line"/>
      <point x="363" y="781" type="line"/>
      <point x="364" y="778" type="line"/>
    </contour>
    <contour>
      <point x="299" y="0" type="line"/>
      <point x="186" y="0" type="line"/>
      <point x="186" y="229" type="line"/>
      <point x="0" y="606" type="line"/>
      <point x="119" y="606" type="line"/>
      <point x="243" y="340" type="line"/>
      <point x="247" y="340" type="line"/>
      <point x="370" y="606" type="line"/>
      <point x="484" y="606" type="line"/>
      <point x="299" y="229" type="line"/>
    </contour>
  </outline>
</glyph>
<glyph name="icircumflex" format="1">
  <advance width="202"/>
  <unicode hex="00EE"/>
  <outline>
    <contour>
      <point x="102" y="581" type="line"/>
      <point x="62" y="520" type="line"/>
      <point x="-19" y="520" type="line"/>
      <point x="58" y="639" type="line"/>
      <point x="145" y="639" type="line"/>
      <point x="220" y="520" type="line"/>
      <point x="141" y="520" type="line"/>
    </contour>
    <contour>
      <point x="48" y="465" type="line"/>
      <point x="154" y="465" type="line"/>
      <point x="154" y="0" type="line"/>
      <point x="48" y="0" type="line"/>
    </contour>
  </outline>
</glyph>
<glyph name="ntilde" format="1">
  <advance width="443"/>
  <unicode hex="00F1"/>
  <outline>
    <contour>
      <point x="312" y="639" type="curve"/>
      <point x="370" y="639" type="line"/>
      <point x="370" y="591"/>
      <point x="346" y="531"/>
      <point x="283" y="531" type="curve" smooth="yes"/>
      <point x="240" y="531"/>
      <point x="206" y="564"/>
      <point x="166" y="564" type="curve" smooth="yes"/>
      <point x="148" y="564"/>
      <point x="135" y="555"/>
      <point x="132" y="531" type="curve"/>
      <point x="73" y="531" type="line"/>
      <point x="73" y="580"/>
      <point x="98" y="639"/>
      <point x="160" y="639" type="curve" smooth="yes"/>
      <point x="203" y="639"/>
      <point x="238" y="606"/>
      <point x="278" y="606" type="curve" smooth="yes"/>
      <point x="296" y="606"/>
      <point x="309" y="614"/>
    </contour>
    <contour>
      <point x="271" y="476" type="curve" smooth="yes"/>
      <point x="342" y="476"/>
      <point x="394" y="436"/>
      <point x="394" y="326" type="curve" smooth="yes"/>
      <point x="394" y="0" type="line"/>
      <point x="288" y="0" type="line"/>
      <point x="288" y="297" type="line" smooth="yes"/>
      <point x="288" y="357"/>
      <point x="265" y="379"/>
      <point x="227" y="379" type="curve" smooth="yes"/>
      <point x="186" y="379"/>
      <point x="155" y="339"/>
      <point x="155" y="286" type="curve" smooth="yes"/>
      <point x="155" y="0" type="line"/>
      <point x="49" y="0" type="line"/>
      <point x="49" y="465" type="line"/>
      <point x="137" y="465" type="line"/>
      <point x="148" y="408" type="line"/>
      <point x="153" y="408" type="line"/>
      <point x="177" y="444"/>
      <point x="215" y="476"/>
    </contour>
  </outline>
</glyph>
<glyph name="divide" format="1">
  <advance width="485"/>
  <unicode hex="00F7"/>
  <outline>
    <contour>
      <point x="196" y="415" type="line"/>
      <point x="288" y="415" type="line"/>
      <point x="288" y="317" type="line"/>
      <point x="196" y="317" type="line"/>
    </contour>
    <contour>
      <point x="29" y="271" type="line"/>
      <point x="455" y="271" type="line"/>
      <point x="455" y="179" type="line"/>
      <point x="29" y="179" type="line"/>
    </contour>
    <contour>
      <point x="196" y="133" type="line"/>
      <point x="288" y="133" type="line"/>
      <point x="288" y="36" type="line"/>
      <point x="196" y="36" type="line"/>
    </contour>
  </outline>
</glyph>
<glyph name="yacute" format="1">
  <advance width="403"/>
  <unicode hex="00FD"/>
  <outline>
    <contour>
      <point x="228" y="522" type="line"/>
      <point x="141" y="522" type="line"/>
      <point x="217" y="639" type="line"/>
      <point x="323" y="639" type="line"/>
      <point x="324" y="636" type="line"/>
    </contour>
    <contour>
      <point x="400" y="465" type="line"/>
      <point x="272" y="24" type="line" smooth="yes"/>
      <point x="243" y="-77"/>
      <point x="197" y="-161"/>
      <point x="108" y="-161" type="curve" smooth="yes"/>
      <point x="65" y="-161"/>
      <point x="39" y="-154"/>
      <point x="39" y="-153" type="curve" smooth="yes"/>
      <point x="39" y="-72" type="line"/>
      <point x="87" y="-72" type="line" smooth="yes"/>
      <point x="117" y="-72"/>
      <point x="146" y="-51"/>
      <point x="158" y="0" type="curve"/>
      <point x="4" y="465" type="line"/>
      <point x="116" y="465" type="line"/>
      <point x="186" y="247" type="line" smooth="yes"/>
      <point x="198" y="207"/>
      <point x="202" y="166"/>
      <point x="210" y="126" type="curve"/>
      <point x="214" y="126" type="line"/>
      <point x="221" y="165"/>
      <point x="225" y="207"/>
      <point x="236" y="246" type="curve" smooth="yes"/>
      <point x="293" y="465" type="line"/>
    </contour>
  </outline>
</glyph>
<glyph name="thorn" format="1">
  <advance width="443"/>
  <unicode hex="00FE"/>
  <outline>
    <contour>
      <point x="257" y="476" type="curve" smooth="yes"/>
      <point x="349" y="476"/>
      <point x="407" y="400"/>
      <point x="407" y="232" type="curve" smooth="yes"/>
      <point x="407" y="63"/>
      <point x="345" y="-11"/>
      <point x="263" y="-11" type="curve" smooth="yes"/>
      <point x="216" y="-11"/>
      <point x="176" y="11"/>
      <point x="159" y="48" type="curve"/>
      <point x="155" y="48" type="line"/>
      <point x="155" y="-153" type="line"/>
      <point x="49" y="-153" type="line"/>
      <point x="49" y="639" type="line"/>
      <point x="155" y="639" type="line"/>
      <point x="155" y="413" type="line"/>
      <point x="178" y="455"/>
      <point x="215" y="476"/>
    </contour>
    <contour>
      <point x="296" y="216" type="curve" smooth="yes"/>
      <point x="296" y="249" type="line" smooth="yes"/>
      <point x="296" y="333"/>
      <point x="277" y="379"/>
      <point x="225" y="379" type="curve" smooth="yes"/>
      <point x="174" y="379"/>
      <point x="155" y="333"/>
      <point x="155" y="249" type="curve" smooth="yes"/>
      <point x="155" y="217" type="line" smooth="yes"/>
      <point x="155" y="133"/>
      <point x="174" y="86"/>
      <point x="225" y="86" type="curve" smooth="yes"/>
      <point x="277" y="86"/>
      <point x="296" y="132"/>
    </contour>
  </outline>
</glyph>
<glyph name="Dcaron" format="1">
  <advance width="523"/>
  <unicode hex="010E"/>
  <outline>
    <contour>
      <point x="105" y="781" type="line"/>
      <point x="185" y="781" type="line"/>
      <point x="225" y="720" type="line"/>
      <point x="263" y="781" type="line"/>
      <point x="343" y="781" type="line"/>
      <point x="268" y="661" type="line"/>
      <point x="181" y="661" type="line"/>
    </contour>
    <contour>
      <point x="53" y="606" type="line"/>
      <point x="250" y="606" type="line" smooth="yes"/>
      <point x="401" y="606"/>
      <point x="493" y="507"/>
      <point x="493" y="312" type="curve" smooth="yes"/>
      <point x="493" y="104"/>
      <point x="401" y="0"/>
      <point x="250" y="0" type="curve" smooth="yes"/>
      <point x="53" y="0" type="line"/>
    </contour>
    <contour>
      <point x="166" y="101" type="line"/>
      <point x="240" y="101" type="line" smooth="yes"/>
      <point x="324" y="101"/>
      <point x="377" y="164"/>
      <point x="377" y="290" type="curve" smooth="yes"/>
      <point x="377" y="334" type="line" smooth="yes"/>
      <point x="377" y="448"/>
      <point x="324" y="506"/>
      <point x="240" y="506" type="curve" smooth="yes"/>
      <point x="166" y="506" type="line"/>
    </contour>
  </outline>
</glyph>
<glyph name="Ebreve" format="1">
  <advance width="484"/>
  <unicode hex="0114"/>
  <outline>
    <contour>
      <point x="294" y="781" type="curve"/>
      <point x="360" y="781" type="line"/>
      <point x="360" y="736"/>
      <point x="315" y="686"/>
      <point x="241" y="686" type="curve" smooth="yes"/>
      <point x="169" y="686"/>
      <point x="124" y="736"/>
      <point x="124" y="781" type="curve"/>
      <point x="189" y="781" type="line"/>
      <point x="192" y="768"/>
      <point x="212" y="751"/>
      <point x="241" y="751" type="curve" smooth="yes"/>
      <point x="271" y="751"/>
      <point x="293" y="768"/>
    </contour>
    <contour>
      <point x="439" y="606" type="line"/>
      <point x="439" y="506" type="line"/>
      <point x="166" y="506" type="line"/>
      <point x="166" y="361" type="line"/>
      <point x="400" y="361" type="line"/>
      <point x="400" y="260" type="line"/>
      <point x="166" y="260" type="line"/>
      <point x="166" y="101" type="line"/>
      <point x="445" y="101" type="line"/>
      <point x="445" y="0" type="line"/>
      <point x="53" y="0" type="line"/>
      <point x="53" y="606" type="line"/>
    </contour>
  </outline>
</glyph>
<glyph name="ebreve" format="1">
  <advance width="403"/>
  <unicode hex="0115"/>
  <outline>
    <contour>
      <point x="255" y="639" type="curve"/>
      <point x="320" y="639" type="line"/>
      <point x="320" y="595"/>
      <point x="275" y="545"/>
      <point x="202" y="545" type="curve" smooth="yes"/>
      <point x="129" y="545"/>
      <point x="84" y="595"/>
      <point x="84" y="639" type="curve"/>
      <point x="149" y="639" type="line"/>
      <point x="152" y="627"/>
      <point x="172" y="610"/>
      <point x="202" y="610" type="curve" smooth="yes"/>
      <point x="232" y="610"/>
      <point x="253" y="627"/>
    </contour>
    <contour>
      <point x="206" y="476" type="curve" smooth="yes"/>
      <point x="318" y="476"/>
      <point x="374" y="400"/>
      <point x="374" y="232" type="curve" smooth="yes"/>
      <point x="374" y="206" type="line"/>
      <point x="138" y="206" type="line"/>
      <point x="139" y="123"/>
      <point x="157" y="76"/>
      <point x="210" y="76" type="curve" smooth="yes"/>
      <point x="246" y="76"/>
      <point x="269" y="109"/>
      <point x="269" y="164" type="curve"/>
      <point x="374" y="164" type="line"/>
      <point x="374" y="45"/>
      <point x="304" y="-11"/>
      <point x="210" y="-11" type="curve" smooth="yes"/>
      <point x="90" y="-11"/>
      <point x="27" y="65"/>
      <point x="27" y="232" type="curve" smooth="yes"/>
      <point x="27" y="400"/>
      <point x="91" y="476"/>
    </contour>
    <contour>
      <point x="206" y="389" type="curve" smooth="yes"/>
      <point x="161" y="389"/>
      <point x="142" y="350"/>
      <point x="139" y="283" type="curve"/>
      <point x="263" y="283" type="line"/>
      <point x="263" y="350"/>
      <point x="245" y="389"/>
    </contour>
  </outline>
</glyph>
<glyph name="eogonek" format="1">
  <advance width="403"/>
  <unicode hex="0119"/>
  <outline>
    <contour>
      <point x="374" y="206" type="line"/>
      <point x="138" y="206" type="line"/>
      <point x="139" y="123"/>
      <point x="157" y="76"/>
      <point x="210" y="76" type="curve" smooth="yes"/>
      <point x="246" y="76"/>
      <point x="269" y="109"/>
      <point x="269" y="164" type="curve"/>
      <point x="374" y="164" type="line"/>
      <point x="374" y="80"/>
      <point x="339" y="28"/>
      <point x="286" y="4" type="curve"/>
      <point x="276" y="-8"/>
      <point x="260" y="-33"/>
      <point x="260" y="-57" type="curve" smooth="yes"/>
      <point x="260" y="-80"/>
      <point x="271" y="-103"/>
      <point x="300" y="-103" type="curve" smooth="yes"/>
      <point x="319" y="-103" type="line"/>
      <point x="319" y="-151" type="line"/>
      <point x="299" y="-159"/>
      <point x="280" y="-164"/>
      <point x="261" y="-164" type="curve" smooth="yes"/>
      <point x="221" y="-164"/>
      <point x="173" y="-145"/>
      <point x="173" y="-84" type="curve" smooth="yes"/>
      <point x="173" y="-51"/>
      <point x="184" y="-29"/>
      <point x="198" y="-11" type="curve"/>
      <point x="86" y="-6"/>
      <point x="27" y="71"/>
      <point x="27" y="232" type="curve" smooth="yes"/>
      <point x="27" y="400"/>
      <point x="91" y="476"/>
      <point x="206" y="476" type="curve" smooth="yes"/>
      <point x="318" y="476"/>
      <point x="374" y="400"/>
      <point x="374" y="232" type="curve" smooth="yes"/>
    </contour>
    <contour>
      <point x="139" y="283" type="curve"/>
      <point x="263" y="283" type="line"/>
      <point x="263" y="350"/>
      <point x="245" y="389"/>
      <point x="206" y="389" type="curve" smooth="yes"/>
      <point x="161" y="389"/>
      <point x="142" y="350"/>
    </contour>
  </outline>
</glyph>
<glyph name="Hcircumflex" format="1">
  <advance width="523"/>
  <unicode hex="0124"/>
  <outline>
    <contour>
      <point x="301" y="661" type="line"/>
      <point x="262" y="722" type="line"/>
      <point x="222" y="661" type="line"/>
      <point x="143" y="661" type="line"/>
      <point x="219" y="781" type="line"/>
      <point x="306" y="781" type="line"/>
      <point x="381" y="661" type="line"/>
    </contour>
    <contour>
      <point x="357" y="0" type="line"/>
      <point x="357" y="260" type="line"/>
      <point x="166" y="260" type="line"/>
      <point x="166" y="0" type="line"/>
      <point x="53" y="0" type="line"/>
      <point x="53" y="606" type="line"/>
      <point x="166" y="606" type="line"/>
      <point x="166" y="361" type="line"/>
      <point x="357" y="361" type="line"/>
      <point x="357" y="606" type="line"/>
      <point x="470" y="606" type="line"/>
      <point x="470" y="0" type="line"/>
    </contour>
  </outline>
</glyph>
<glyph name="hcircumflex" format="1">
  <advance width="443"/>
  <unicode hex="0125"/>
  <outline>
    <contour>
      <point x="100" y="722" type="line"/>
      <point x="60" y="661" type="line"/>
      <point x="-19" y="661" type="line"/>
      <point x="57" y="781" type="line"/>
      <point x="143" y="781" type="line"/>
      <point x="218" y="661" type="line"/>
      <point x="139" y="661" type="line"/>
    </contour>
    <contour>
      <point x="155" y="415" type="line"/>
      <point x="158" y="415" type="line"/>
      <point x="179" y="445"/>
      <point x="216" y="476"/>
      <point x="271" y="476" type="curve" smooth="yes"/>
      <point x="342" y="476"/>
      <point x="394" y="436"/>
      <point x="394" y="326" type="curve" smooth="yes"/>
      <point x="394" y="0" type="line"/>
      <point x="288" y="0" type="line"/>
      <point x="288" y="297" type="line" smooth="yes"/>
      <point x="288" y="357"/>
      <point x="265" y="379"/>
      <point x="227" y="379" type="curve" smooth="yes"/>
      <point x="186" y="379"/>
      <point x="155" y="339"/>
      <point x="155" y="286" type="curve" smooth="yes"/>
      <point x="155" y="0" type="line"/>
      <point x="49" y="0" type="line"/>
      <point x="49" y="639" type="line"/>
      <point x="155" y="639" type="line"/>
    </contour>
  </outline>
</glyph>
<glyph name="Hbar" format="1">
  <advance width="523"/>
  <unicode hex="0126"/>
  <outline>
    <contour>
      <point x="470" y="0" type="line"/>
      <point x="357" y="0" type="line"/>
      <point x="357" y="254" type="line"/>
      <point x="166" y="254" type="line"/>
      <point x="166" y="0" type="line"/>
      <point x="53" y="0" type="line"/>
      <point x="53" y="433" type="line"/>
      <point x="9" y="433" type="line"/>
      <point x="9" y="510" type="line"/>
      <point x="53" y="510" type="line"/>
      <point x="53" y="606" type="line"/>
      <point x="166" y="606" type="line"/>
      <point x="166" y="510" type="line"/>
      <point x="357" y="510" type="line"/>
      <point x="357" y="606" type="line"/>
      <point x="470" y="606" type="line"/>
      <point x="470" y="510" type="line"/>
      <point x="514" y="510" type="line"/>
      <point x="514" y="433" type="line"/>
      <point x="470" y="433" type="line"/>
    </contour>
    <contour>
      <point x="166" y="433" type="line"/>
      <point x="166" y="354" type="line"/>
      <point x="357" y="354" type="line"/>
      <point x="357" y="433" type="line"/>
    </contour>
  </outline>
</glyph>
<glyph name="Imacron" format="1">
  <advance width="202"/>
  <unicode hex="012A"/>
  <outline>
    <contour>
      <point x="-12" y="748" type="line"/>
      <point x="214" y="748" type="line"/>
      <point x="214" y="671" type="line"/>
      <point x="-12" y="671" type="line"/>
    </contour>
    <contour>
      <point x="44" y="606" type="line"/>
      <point x="157" y="606" type="line"/>
      <point x="157" y="0" type="line"/>
      <point x="44" y="0" type="line"/>
    </contour>
  </outline>
</glyph>
<glyph name="ibreve" format="1">
  <advance width="202"/>
  <unicode hex="012D"/>
  <outline>
    <contour>
      <point x="154" y="639" type="curve"/>
      <point x="219" y="639" type="line"/>
      <point x="219" y="595"/>
      <point x="174" y="545"/>
      <point x="101" y="545" type="curve" smooth="yes"/>
      <point x="28" y="545"/>
      <point x="-18" y="595"/>
      <point x="-18" y="639" type="curve"/>
      <point x="49" y="639" type="line"/>
      <point x="51" y="627"/>
      <point x="72" y="610"/>
      <point x="101" y="610" type="curve" smooth="yes"/>
      <point x="131" y="610"/>
      <point x="152" y="627"/>
    </contour>
    <contour>
      <point x="48" y="465" type="line"/>
      <point x="154" y="465" type="line"/>
      <point x="154" y="0" type="line"/>
      <point x="48" y="0" type="line"/>
    </contour>
  </outline>
</glyph>
<glyph name="Iogonek" format="1">
  <advance width="202"/>
  <unicode hex="012E"/>
  <outline>
    <contour>
      <point x="157" y="606" type="line"/>
      <point x="157" y="0" type="line"/>
      <point x="148" y="-12"/>
      <point x="131" y="-37"/>
      <point x="131" y="-62" type="curve" smooth="yes"/>
      <point x="131" y="-85"/>
      <point x="141" y="-107"/>
      <point x="171" y="-107" type="curve" smooth="yes"/>
      <point x="190" y="-107" type="line"/>
      <point x="190" y="-156" type="line"/>
      <point x="170" y="-164"/>
      <point x="151" y="-168"/>
      <point x="132" y="-168" type="curve" smooth="yes"/>
      <point x="92" y="-168"/>
      <point x="44" y="-149"/>
      <point x="44" y="-88" type="curve" smooth="yes"/>
      <point x="44" y="-47"/>
      <point x="62" y="-22"/>
      <point x="83" y="0" type="curve"/>
      <point x="44" y="0" type="line"/>
      <point x="44" y="606" type="line"/>
    </contour>
  </outline>
</glyph>
<glyph name="Idotaccent" format="1">
  <advance width="202"/>
  <unicode hex="0130"/>
  <outline>
    <contour>
      <point x="54" y="781" type="line"/>
      <point x="149" y="781" type="line"/>
      <point x="149" y="679" type="line"/>
      <point x="54" y="679" type="line"/>
    </contour>
    <contour>
      <point x="44" y="606" type="line"/>
      <point x="157" y="606" type="line"/>
      <point x="157" y="0" type="line"/>
      <point x="44" y="0" type="line"/>
    </contour>
  </outline>
</glyph>
<glyph name="dotlessi" format="1">
  <advance width="202"/>
  <unicode hex="0131"/>
  <outline>
    <contour>
      <point x="0" y="0" type="move" name="Anchor-1"/>
    </contour>
    <contour>
      <point x="101" y="465" type="move" name="Anchor-0"/>
    </contour>
    <contour>
      <point x="48" y="465" type="line"/>
      <point x="154" y="465" type="line"/>
      <point x="154" y="0" type="line"/>
      <point x="48" y="0" type="line"/>
    </contour>
  </outline>
</glyph>
<glyph name="kgreenlandic" format="1">
  <advance width="404"/>
  <unicode hex="0138"/>
  <outline>
    <contour>
      <point x="286" y="0" type="line"/>
      <point x="193" y="193" type="line"/>
      <point x="154" y="145" type="line"/>
      <point x="154" y="0" type="line"/>
      <point x="48" y="0" type="line"/>
      <point x="48" y="465" type="line"/>
      <point x="154" y="465" type="line"/>
      <point x="154" y="280" type="line"/>
      <point x="284" y="465" type="line"/>
      <point x="397" y="465" type="line"/>
      <point x="259" y="276" type="line"/>
      <point x="404" y="0" type="line"/>
    </contour>
  </outline>
</glyph>
<glyph name="Lcommaaccent" format="1">
  <advance width="443"/>
  <unicode hex="013B"/>
  <outline>
    <contour>
      <point x="423" y="106" type="line"/>
      <point x="423" y="0" type="line"/>
      <point x="53" y="0" type="line"/>
      <point x="53" y="606" type="line"/>
      <point x="166" y="606" type="line"/>
      <point x="166" y="106" type="line"/>
    </contour>
    <contour>
      <point x="236" y="-232" type="line"/>
      <point x="179" y="-232" type="line"/>
      <point x="210" y="-157" type="line"/>
      <point x="167" y="-157" type="line"/>
      <point x="167" y="-49" type="line"/>
      <point x="276" y="-49" type="line"/>
      <point x="276" y="-148" type="line"/>
    </contour>
  </outline>
</glyph>
<glyph name="lcommaaccent" format="1">
  <advance width="202"/>
  <unicode hex="013C"/>
  <outline>
    <contour>
      <point x="48" y="639" type="line"/>
      <point x="154" y="639" type="line"/>
      <point x="154" y="0" type="line"/>
      <point x="48" y="0" type="line"/>
    </contour>
    <contour>
      <point x="58" y="-232" type="line"/>
      <point x="90" y="-157" type="line"/>
      <point x="47" y="-157" type="line"/>
      <point x="47" y="-49" type="line"/>
      <point x="156" y="-49" type="line"/>
      <point x="156" y="-148" type="line"/>
      <point x="116" y="-232" type="line"/>
    </contour>
  </outline>
</glyph>
<glyph name="Lslash" format="1">
  <advance width="443"/>
  <unicode hex="0141"/>
  <outline>
    <contour>
      <point x="269" y="486" type="line"/>
      <point x="269" y="400" type="line"/>
      <point x="166" y="309" type="line"/>
      <point x="166" y="106" type="line"/>
      <point x="423" y="106" type="line"/>
      <point x="423" y="0" type="line"/>
      <point x="53" y="0" type="line"/>
      <point x="53" y="210" type="line"/>
      <point x="0" y="163" type="line"/>
      <point x="0" y="247" type="line"/>
      <point x="53" y="293" type="line"/>
      <point x="53" y="606" type="line"/>
      <point x="166" y="606" type="line"/>
      <point x="166" y="394" type="line"/>
    </contour>
  </outline>
</glyph>
<glyph name="lslash" format="1">
  <advance width="202"/>
  <unicode hex="0142"/>
  <outline>
    <contour>
      <point x="224" y="361" type="line"/>
      <point x="154" y="299" type="line"/>
      <point x="154" y="0" type="line"/>
      <point x="48" y="0" type="line"/>
      <point x="48" y="204" type="line"/>
      <point x="-12" y="151" type="line"/>
      <point x="-12" y="236" type="line"/>
      <point x="48" y="289" type="line"/>
      <point x="48" y="639" type="line"/>
      <point x="154" y="639" type="line"/>
      <point x="154" y="384" type="line"/>
      <point x="224" y="446" type="line"/>
    </contour>
  </outline>
</glyph>
<glyph name="Ncommaaccent" format="1">
  <advance width="523"/>
  <unicode hex="0145"/>
  <outline>
    <contour>
      <point x="370" y="0" type="line"/>
      <point x="182" y="334" type="line" smooth="yes"/>
      <point x="175" y="347"/>
      <point x="155" y="391"/>
      <point x="155" y="391" type="curve"/>
      <point x="151" y="388" type="line"/>
      <point x="151" y="388"/>
      <point x="153" y="354"/>
      <point x="153" y="338" type="curve" smooth="yes"/>
      <point x="153" y="0" type="line"/>
      <point x="53" y="0" type="line"/>
      <point x="53" y="606" type="line"/>
      <point x="153" y="606" type="line"/>
      <point x="340" y="272" type="line"/>
      <point x="350" y="257"/>
      <point x="368" y="216"/>
      <point x="368" y="216" type="curve"/>
      <point x="370" y="218" type="line"/>
      <point x="370" y="606" type="line"/>
      <point x="470" y="606" type="line"/>
      <point x="470" y="0" type="line"/>
    </contour>
    <contour>
      <point x="276" y="-232" type="line"/>
      <point x="219" y="-232" type="line"/>
      <point x="250" y="-157" type="line"/>
      <point x="207" y="-157" type="line"/>
      <point x="207" y="-49" type="line"/>
      <point x="316" y="-49" type="line"/>
      <point x="316" y="-148" type="line"/>
    </contour>
  </outline>
</glyph>
<glyph name="napostrophe" format="1">
  <advance width="598"/>
  <unicode hex="0149"/>
  <outline>
    <contour>
      <point x="129" y="423" type="line"/>
      <point x="72" y="423" type="line"/>
      <point x="103" y="498" type="line"/>
      <point x="59" y="498" type="line"/>
      <point x="59" y="606" type="line"/>
      <point x="169" y="606" type="line"/>
      <point x="169" y="507" type="line"/>
    </contour>
    <contour>
      <point x="425" y="476" type="curve" smooth="yes"/>
      <point x="497" y="476"/>
      <point x="549" y="436"/>
      <point x="549" y="326" type="curve" smooth="yes"/>
      <point x="549" y="0" type="line"/>
      <point x="443" y="0" type="line"/>
      <point x="443" y="297" type="line" smooth="yes"/>
      <point x="443" y="357"/>
      <point x="420" y="379"/>
      <point x="382" y="379" type="curve" smooth="yes"/>
      <point x="340" y="379"/>
      <point x="309" y="339"/>
      <point x="309" y="286" type="curve" smooth="yes"/>
      <point x="309" y="0" type="line"/>
      <point x="203" y="0" type="line"/>
      <point x="203" y="465" type="line"/>
      <point x="292" y="465" type="line"/>
      <point x="302" y="408" type="line"/>
      <point x="308" y="408" type="line"/>
      <point x="331" y="444"/>
      <point x="370" y="476"/>
    </contour>
  </outline>
</glyph>
<glyph name="Eng" format="1">
  <advance width="524"/>
  <unicode hex="014A"/>
  <outline>
    <contour>
      <point x="470" y="606" type="line"/>
      <point x="470" y="-36" type="line" smooth="yes"/>
      <point x="470" y="-98"/>
      <point x="447" y="-161"/>
      <point x="362" y="-161" type="curve" smooth="yes"/>
      <point x="336" y="-161"/>
      <point x="304" y="-156"/>
      <point x="286" y="-150" type="curve"/>
      <point x="286" y="-72" type="line"/>
      <point x="325" y="-72" type="line" smooth="yes"/>
      <point x="353" y="-72"/>
      <point x="367" y="-57"/>
      <point x="367" y="-29" type="curve" smooth="yes"/>
      <point x="367" y="0" type="line"/>
      <point x="182" y="334" type="line" smooth="yes"/>
      <point x="175" y="347"/>
      <point x="155" y="391"/>
      <point x="155" y="391" type="curve"/>
      <point x="151" y="388" type="line"/>
      <point x="151" y="388"/>
      <point x="153" y="354"/>
      <point x="153" y="338" type="curve" smooth="yes"/>
      <point x="153" y="0" type="line"/>
      <point x="53" y="0" type="line"/>
      <point x="53" y="606" type="line"/>
      <point x="153" y="606" type="line"/>
      <point x="340" y="272" type="line"/>
      <point x="350" y="257"/>
      <point x="368" y="216"/>
      <point x="368" y="216" type="curve"/>
      <point x="370" y="218" type="line"/>
      <point x="370" y="606" type="line"/>
    </contour>
  </outline>
</glyph>
<glyph name="omacron" format="1">
  <advance width="443"/>
  <unicode hex="014D"/>
  <outline>
    <contour>
      <point x="109" y="606" type="line"/>
      <point x="334" y="606" type="line"/>
      <point x="334" y="530" type="line"/>
      <point x="109" y="530" type="line"/>
    </contour>
    <contour>
      <point x="222" y="476" type="curve" smooth="yes"/>
      <point x="346" y="476"/>
      <point x="408" y="400"/>
      <point x="408" y="232" type="curve" smooth="yes"/>
      <point x="408" y="65"/>
      <point x="346" y="-11"/>
      <point x="222" y="-11" type="curve" smooth="yes"/>
      <point x="98" y="-11"/>
      <point x="36" y="65"/>
      <point x="36" y="232" type="curve" smooth="yes"/>
      <point x="36" y="400"/>
      <point x="98" y="476"/>
    </contour>
    <contour>
      <point x="222" y="386" type="curve" smooth="yes"/>
      <point x="167" y="386"/>
      <point x="147" y="339"/>
      <point x="147" y="249" type="curve" smooth="yes"/>
      <point x="147" y="216" type="line" smooth="yes"/>
      <point x="147" y="126"/>
      <point x="167" y="79"/>
      <point x="222" y="79" type="curve" smooth="yes"/>
      <point x="277" y="79"/>
      <point x="297" y="126"/>
      <point x="297" y="216" type="curve" smooth="yes"/>
      <point x="297" y="249" type="line" smooth="yes"/>
      <point x="297" y="339"/>
      <point x="277" y="386"/>
    </contour>
  </outline>
</glyph>
<glyph name="obreve" format="1">
  <advance width="443"/>
  <unicode hex="014F"/>
  <outline>
    <contour>
      <point x="274" y="639" type="curve"/>
      <point x="339" y="639" type="line"/>
      <point x="339" y="595"/>
      <point x="294" y="545"/>
      <point x="221" y="545" type="curve" smooth="yes"/>
      <point x="149" y="545"/>
      <point x="103" y="595"/>
      <point x="103" y="639" type="curve"/>
      <point x="169" y="639" type="line"/>
      <point x="171" y="627"/>
      <point x="192" y="610"/>
      <point x="221" y="610" type="curve" smooth="yes"/>
      <point x="251" y="610"/>
      <point x="272" y="627"/>
    </contour>
    <contour>
      <point x="222" y="476" type="curve" smooth="yes"/>
      <point x="346" y="476"/>
      <point x="408" y="400"/>
      <point x="408" y="232" type="curve" smooth="yes"/>
      <point x="408" y="65"/>
      <point x="346" y="-11"/>
      <point x="222" y="-11" type="curve" smooth="yes"/>
      <point x="98" y="-11"/>
      <point x="36" y="65"/>
      <point x="36" y="232" type="curve" smooth="yes"/>
      <point x="36" y="400"/>
      <point x="98" y="476"/>
    </contour>
    <contour>
      <point x="222" y="386" type="curve" smooth="yes"/>
      <point x="167" y="386"/>
      <point x="147" y="339"/>
      <point x="147" y="249" type="curve" smooth="yes"/>
      <point x="147" y="216" type="line" smooth="yes"/>
      <point x="147" y="126"/>
      <point x="167" y="79"/>
      <point x="222" y="79" type="curve" smooth="yes"/>
      <point x="277" y="79"/>
      <point x="297" y="126"/>
      <point x="297" y="216" type="curve" smooth="yes"/>
      <point x="297" y="249" type="line" smooth="yes"/>
      <point x="297" y="339"/>
      <point x="277" y="386"/>
    </contour>
  </outline>
</glyph>
<glyph name="Ohungarumlaut" format="1">
  <advance width="564"/>
  <unicode hex="0150"/>
  <outline>
    <contour>
      <point x="253" y="664" type="line"/>
      <point x="183" y="664" type="line"/>
      <point x="238" y="781" type="line"/>
      <point x="326" y="781" type="line"/>
      <point x="327" y="778" type="line"/>
    </contour>
    <contour>
      <point x="377" y="664" type="line"/>
      <point x="307" y="664" type="line"/>
      <point x="362" y="781" type="line"/>
      <point x="450" y="781" type="line"/>
      <point x="451" y="778" type="line"/>
    </contour>
    <contour>
      <point x="282" y="617" type="curve" smooth="yes"/>
      <point x="438" y="617"/>
      <point x="534" y="517"/>
      <point x="534" y="303" type="curve" smooth="yes"/>
      <point x="534" y="89"/>
      <point x="438" y="-11"/>
      <point x="282" y="-11" type="curve" smooth="yes"/>
      <point x="126" y="-11"/>
      <point x="30" y="89"/>
      <point x="30" y="303" type="curve" smooth="yes"/>
      <point x="30" y="517"/>
      <point x="126" y="617"/>
    </contour>
    <contour>
      <point x="282" y="520" type="curve" smooth="yes"/>
      <point x="192" y="520"/>
      <point x="147" y="446"/>
      <point x="147" y="325" type="curve" smooth="yes"/>
      <point x="147" y="281" type="line" smooth="yes"/>
      <point x="147" y="160"/>
      <point x="192" y="87"/>
      <point x="282" y="87" type="curve" smooth="yes"/>
      <point x="372" y="87"/>
      <point x="417" y="160"/>
      <point x="417" y="281" type="curve" smooth="yes"/>
      <point x="417" y="325" type="line" smooth="yes"/>
      <point x="417" y="446"/>
      <point x="372" y="520"/>
    </contour>
  </outline>
</glyph>
<glyph name="Scedilla" format="1">
  <advance width="484"/>
  <unicode hex="015E"/>
  <outline>
    <contour>
      <point x="241" y="617" type="curve" smooth="yes"/>
      <point x="349" y="617"/>
      <point x="438" y="563"/>
      <point x="438" y="438" type="curve" smooth="yes"/>
      <point x="438" y="428" type="line"/>
      <point x="323" y="428" type="line"/>
      <point x="323" y="436" type="line" smooth="yes"/>
      <point x="323" y="487"/>
      <point x="292" y="520"/>
      <point x="240" y="520" type="curve" smooth="yes"/>
      <point x="186" y="520"/>
      <point x="156" y="492"/>
      <point x="156" y="455" type="curve" smooth="yes"/>
      <point x="156" y="332"/>
      <point x="450" y="405"/>
      <point x="450" y="182" type="curve" smooth="yes"/>
      <point x="450" y="52"/>
      <point x="372" y="-3"/>
      <point x="259" y="-10" type="curve"/>
      <point x="257" y="-29" type="line"/>
      <point x="295" y="-32"/>
      <point x="327" y="-49"/>
      <point x="327" y="-89" type="curve" smooth="yes"/>
      <point x="327" y="-149"/>
      <point x="269" y="-161"/>
      <point x="231" y="-161" type="curve" smooth="yes"/>
      <point x="206" y="-161"/>
      <point x="178" y="-158"/>
      <point x="156" y="-154" type="curve"/>
      <point x="156" y="-111" type="line"/>
      <point x="219" y="-111" type="line" smooth="yes"/>
      <point x="239" y="-111"/>
      <point x="251" y="-106"/>
      <point x="251" y="-89" type="curve" smooth="yes"/>
      <point x="251" y="-75"/>
      <point x="244" y="-68"/>
      <point x="221" y="-68" type="curve" smooth="yes"/>
      <point x="192" y="-68" type="line"/>
      <point x="199" y="-8" type="line"/>
      <point x="103" y="4"/>
      <point x="27" y="66"/>
      <point x="27" y="178" type="curve" smooth="yes"/>
      <point x="27" y="197" type="line"/>
      <point x="145" y="197" type="line"/>
      <point x="144" y="183" type="line"/>
      <point x="144" y="126"/>
      <point x="179" y="87"/>
      <point x="241" y="87" type="curve" smooth="yes"/>
      <point x="309" y="87"/>
      <point x="333" y="123"/>
      <point x="333" y="158" type="curve" smooth="yes"/>
      <point x="333" y="302"/>
      <point x="39" y="217"/>
      <point x="39" y="447" type="curve" smooth="yes"/>
      <point x="39" y="562"/>
      <point x="134" y="617"/>
    </contour>
  </outline>
</glyph>
<glyph name="scedilla" format="1">
  <advance width="403"/>
  <unicode hex="015F"/>
  <outline>
    <contour>
      <point x="202" y="476" type="curve" smooth="yes"/>
      <point x="291" y="476"/>
      <point x="360" y="429"/>
      <point x="360" y="349" type="curve" smooth="yes"/>
      <point x="360" y="339"/>
      <point x="359" y="330"/>
      <point x="359" y="329" type="curve"/>
      <point x="251" y="329" type="line"/>
      <point x="251" y="331" type="line"/>
      <point x="250" y="370"/>
      <point x="231" y="389"/>
      <point x="199" y="389" type="curve" smooth="yes"/>
      <point x="166" y="389"/>
      <point x="144" y="371"/>
      <point x="144" y="343" type="curve" smooth="yes"/>
      <point x="144" y="253"/>
      <point x="371" y="324"/>
      <point x="371" y="140" type="curve" smooth="yes"/>
      <point x="371" y="34"/>
      <point x="307" y="-4"/>
      <point x="219" y="-10" type="curve"/>
      <point x="217" y="-29" type="line"/>
      <point x="255" y="-32"/>
      <point x="287" y="-49"/>
      <point x="287" y="-89" type="curve" smooth="yes"/>
      <point x="287" y="-149"/>
      <point x="229" y="-161"/>
      <point x="191" y="-161" type="curve" smooth="yes"/>
      <point x="165" y="-161"/>
      <point x="138" y="-158"/>
      <point x="117" y="-154" type="curve"/>
      <point x="117" y="-111" type="line"/>
      <point x="179" y="-111" type="line" smooth="yes"/>
      <point x="199" y="-111"/>
      <point x="211" y="-106"/>
      <point x="211" y="-89" type="curve" smooth="yes"/>
      <point x="211" y="-75"/>
      <point x="203" y="-68"/>
      <point x="181" y="-68" type="curve" smooth="yes"/>
      <point x="152" y="-68" type="line"/>
      <point x="159" y="-8" type="line"/>
      <point x="76" y="4"/>
      <point x="29" y="59"/>
      <point x="29" y="137" type="curve" smooth="yes"/>
      <point x="29" y="141"/>
      <point x="30" y="148"/>
      <point x="30" y="148" type="curve"/>
      <point x="138" y="148" type="line"/>
      <point x="138" y="141" type="line"/>
      <point x="139" y="92"/>
      <point x="171" y="76"/>
      <point x="202" y="76" type="curve" smooth="yes"/>
      <point x="230" y="76"/>
      <point x="263" y="88"/>
      <point x="263" y="126" type="curve" smooth="yes"/>
      <point x="263" y="225"/>
      <point x="36" y="155"/>
      <point x="36" y="334" type="curve" smooth="yes"/>
      <point x="36" y="429"/>
      <point x="110" y="476"/>
    </contour>
  </outline>
</glyph>
<glyph name="Tcaron" format="1">
  <advance width="443"/>
  <unicode hex="0164"/>
  <outline>
    <contour>
      <point x="179" y="661" type="line"/>
      <point x="103" y="781" type="line"/>
      <point x="182" y="781" type="line"/>
      <point x="222" y="720" type="line"/>
      <point x="261" y="781" type="line"/>
      <point x="340" y="781" type="line"/>
      <point x="265" y="661" type="line"/>
    </contour>
    <contour>
      <point x="278" y="506" type="line"/>
      <point x="278" y="0" type="line"/>
      <point x="165" y="0" type="line"/>
      <point x="165" y="506" type="line"/>
      <point x="15" y="506" type="line"/>
      <point x="15" y="606" type="line"/>
      <point x="429" y="606" type="line"/>
      <point x="429" y="506" type="line"/>
    </contour>
  </outline>
</glyph>
<glyph name="tbar" format="1">
  <advance width="241"/>
  <unicode hex="0167"/>
  <outline>
    <contour>
      <point x="228" y="465" type="line"/>
      <point x="228" y="376" type="line"/>
      <point x="161" y="376" type="line"/>
      <point x="161" y="309" type="line"/>
      <point x="225" y="309" type="line"/>
      <point x="225" y="232" type="line"/>
      <point x="161" y="232" type="line"/>
      <point x="161" y="117" type="line" smooth="yes"/>
      <point x="161" y="92"/>
      <point x="174" y="79"/>
      <point x="198" y="79" type="curve" smooth="yes"/>
      <point x="228" y="79" type="line"/>
      <point x="228" y="0" type="line"/>
      <point x="213" y="-5"/>
      <point x="185" y="-11"/>
      <point x="164" y="-11" type="curve" smooth="yes"/>
      <point x="80" y="-11"/>
      <point x="55" y="52"/>
      <point x="55" y="114" type="curve" smooth="yes"/>
      <point x="55" y="232" type="line"/>
      <point x="10" y="232" type="line"/>
      <point x="10" y="309" type="line"/>
      <point x="55" y="309" type="line"/>
      <point x="55" y="376" type="line"/>
      <point x="8" y="376" type="line"/>
      <point x="8" y="465" type="line"/>
      <point x="55" y="465" type="line"/>
      <point x="71" y="596" type="line"/>
      <point x="161" y="596" type="line"/>
      <point x="161" y="465" type="line"/>
    </contour>
  </outline>
</glyph>
<glyph name="Utilde" format="1">
  <advance width="523"/>
  <unicode hex="0168"/>
  <outline>
    <contour>
      <point x="352" y="781" type="curve"/>
      <point x="410" y="781" type="line"/>
      <point x="410" y="732"/>
      <point x="385" y="673"/>
      <point x="323" y="673" type="curve" smooth="yes"/>
      <point x="280" y="673"/>
      <point x="246" y="705"/>
      <point x="206" y="705" type="curve" smooth="yes"/>
      <point x="187" y="705"/>
      <point x="175" y="697"/>
      <point x="171" y="673" type="curve"/>
      <point x="113" y="673" type="line"/>
      <point x="113" y="721"/>
      <point x="138" y="781"/>
      <point x="200" y="781" type="curve" smooth="yes"/>
      <point x="243" y="781"/>
      <point x="278" y="748"/>
      <point x="317" y="748" type="curve" smooth="yes"/>
      <point x="336" y="748"/>
      <point x="348" y="756"/>
    </contour>
    <contour>
      <point x="470" y="606" type="line"/>
      <point x="470" y="190" type="line" smooth="yes"/>
      <point x="470" y="58"/>
      <point x="392" y="-11"/>
      <point x="262" y="-11" type="curve" smooth="yes"/>
      <point x="132" y="-11"/>
      <point x="54" y="58"/>
      <point x="54" y="190" type="curve" smooth="yes"/>
      <point x="54" y="606" type="line"/>
      <point x="167" y="606" type="line"/>
      <point x="167" y="194" type="line" smooth="yes"/>
      <point x="167" y="124"/>
      <point x="202" y="87"/>
      <point x="262" y="87" type="curve" smooth="yes"/>
      <point x="322" y="87"/>
      <point x="357" y="124"/>
      <point x="357" y="194" type="curve" smooth="yes"/>
      <point x="357" y="606" type="line"/>
    </contour>
  </outline>
</glyph>
<glyph name="Umacron" format="1">
  <advance width="523"/>
  <unicode hex="016A"/>
  <outline>
    <contour>
      <point x="149" y="671" type="line"/>
      <point x="149" y="748" type="line"/>
      <point x="375" y="748" type="line"/>
      <point x="375" y="671" type="line"/>
    </contour>
    <contour>
      <point x="470" y="606" type="line"/>
      <point x="470" y="190" type="line" smooth="yes"/>
      <point x="470" y="58"/>
      <point x="392" y="-11"/>
      <point x="262" y="-11" type="curve" smooth="yes"/>
      <point x="132" y="-11"/>
      <point x="54" y="58"/>
      <point x="54" y="190" type="curve" smooth="yes"/>
      <point x="54" y="606" type="line"/>
      <point x="167" y="606" type="line"/>
      <point x="167" y="194" type="line" smooth="yes"/>
      <point x="167" y="124"/>
      <point x="202" y="87"/>
      <point x="262" y="87" type="curve" smooth="yes"/>
      <point x="322" y="87"/>
      <point x="357" y="124"/>
      <point x="357" y="194" type="curve" smooth="yes"/>
      <point x="357" y="606" type="line"/>
    </contour>
  </outline>
</glyph>
<glyph name="umacron" format="1">
  <advance width="443"/>
  <unicode hex="016B"/>
  <outline>
    <contour>
      <point x="109" y="606" type="line"/>
      <point x="334" y="606" type="line"/>
      <point x="334" y="530" type="line"/>
      <point x="109" y="530" type="line"/>
    </contour>
    <contour>
      <point x="295" y="57" type="line"/>
      <point x="290" y="57" type="line"/>
      <point x="266" y="21"/>
      <point x="228" y="-11"/>
      <point x="172" y="-11" type="curve" smooth="yes"/>
      <point x="101" y="-11"/>
      <point x="49" y="29"/>
      <point x="49" y="139" type="curve" smooth="yes"/>
      <point x="49" y="465" type="line"/>
      <point x="155" y="465" type="line"/>
      <point x="155" y="168" type="line" smooth="yes"/>
      <point x="155" y="108"/>
      <point x="176" y="86"/>
      <point x="216" y="86" type="curve" smooth="yes"/>
      <point x="257" y="86"/>
      <point x="288" y="125"/>
      <point x="288" y="177" type="curve" smooth="yes"/>
      <point x="288" y="465" type="line"/>
      <point x="394" y="465" type="line"/>
      <point x="394" y="0" type="line"/>
      <point x="306" y="0" type="line"/>
    </contour>
  </outline>
</glyph>
<glyph name="uring" format="1">
  <advance width="443"/>
  <unicode hex="016F"/>
  <outline>
    <contour>
      <point x="222" y="666" type="curve" smooth="yes"/>
      <point x="270" y="666"/>
      <point x="307" y="627"/>
      <point x="307" y="581" type="curve" smooth="yes"/>
      <point x="307" y="534"/>
      <point x="269" y="496"/>
      <point x="222" y="496" type="curve" smooth="yes"/>
      <point x="176" y="496"/>
      <point x="137" y="533"/>
      <point x="137" y="581" type="curve" smooth="yes"/>
      <point x="137" y="628"/>
      <point x="175" y="666"/>
    </contour>
    <contour>
      <point x="222" y="621" type="curve" smooth="yes"/>
      <point x="199" y="621"/>
      <point x="181" y="604"/>
      <point x="181" y="581" type="curve" smooth="yes"/>
      <point x="181" y="558"/>
      <point x="199" y="540"/>
      <point x="222" y="540" type="curve" smooth="yes"/>
      <point x="244" y="540"/>
      <point x="263" y="558"/>
      <point x="263" y="581" type="curve" smooth="yes"/>
      <point x="263" y="604"/>
      <point x="244" y="621"/>
    </contour>
    <contour>
      <point x="295" y="57" type="line"/>
      <point x="290" y="57" type="line"/>
      <point x="266" y="21"/>
      <point x="228" y="-11"/>
      <point x="172" y="-11" type="curve" smooth="yes"/>
      <point x="101" y="-11"/>
      <point x="49" y="29"/>
      <point x="49" y="139" type="curve" smooth="yes"/>
      <point x="49" y="465" type="line"/>
      <point x="155" y="465" type="line"/>
      <point x="155" y="168" type="line" smooth="yes"/>
      <point x="155" y="108"/>
      <point x="176" y="86"/>
      <point x="216" y="86" type="curve" smooth="yes"/>
      <point x="257" y="86"/>
      <point x="288" y="125"/>
      <point x="288" y="177" type="curve" smooth="yes"/>
      <point x="288" y="465" type="line"/>
      <point x="394" y="465" type="line"/>
      <point x="394" y="0" type="line"/>
      <point x="306" y="0" type="line"/>
    </contour>
  </outline>
</glyph>
<glyph name="wcircumflex" format="1">
  <advance width="564"/>
  <unicode hex="0175"/>
  <outline>
    <contour>
      <point x="283" y="581" type="line"/>
      <point x="243" y="520" type="line"/>
      <point x="164" y="520" type="line"/>
      <point x="240" y="639" type="line"/>
      <point x="326" y="639" type="line"/>
      <point x="401" y="520" type="line"/>
      <point x="322" y="520" type="line"/>
    </contour>
    <contour>
      <point x="344" y="0" type="line"/>
      <point x="298" y="222" type="line" smooth="yes"/>
      <point x="288" y="269"/>
      <point x="285" y="337"/>
      <point x="285" y="337" type="curve"/>
      <point x="279" y="337" type="line"/>
      <point x="279" y="337"/>
      <point x="276" y="271"/>
      <point x="266" y="223" type="curve" smooth="yes"/>
      <point x="221" y="0" type="line"/>
      <point x="114" y="0" type="line"/>
      <point x="1" y="465" type="line"/>
      <point x="107" y="465" type="line"/>
      <point x="151" y="274" type="line" smooth="yes"/>
      <point x="165" y="211"/>
      <point x="170" y="128"/>
      <point x="170" y="128" type="curve"/>
      <point x="173" y="128" type="line"/>
      <point x="173" y="128"/>
      <point x="179" y="207"/>
      <point x="193" y="273" type="curve" smooth="yes"/>
      <point x="232" y="465" type="line"/>
      <point x="339" y="465" type="line"/>
      <point x="378" y="272" type="line" smooth="yes"/>
      <point x="388" y="227"/>
      <point x="398" y="128"/>
      <point x="398" y="128" type="curve"/>
      <point x="401" y="128" type="line"/>
      <point x="401" y="128"/>
      <point x="414" y="220"/>
      <point x="424" y="272" type="curve"/>
      <point x="465" y="465" type="line"/>
      <point x="563" y="465" type="line"/>
      <point x="451" y="0" type="line"/>
    </contour>
  </outline>
</glyph>
<glyph name="Ycircumflex" format="1">
  <advance width="484"/>
  <unicode hex="0176"/>
  <outline>
    <contour>
      <point x="242" y="722" type="line"/>
      <point x="202" y="661" type="line"/>
      <point x="123" y="661" type="line"/>
      <point x="199" y="781" type="line"/>
      <point x="286" y="781" type="line"/>
      <point x="361" y="661" type="line"/>
      <point x="281" y="661" type="line"/>
    </contour>
    <contour>
      <point x="186" y="0" type="line"/>
      <point x="186" y="229" type="line"/>
      <point x="0" y="606" type="line"/>
      <point x="119" y="606" type="line"/>
      <point x="243" y="340" type="line"/>
      <point x="247" y="340" type="line"/>
      <point x="370" y="606" type="line"/>
      <point x="484" y="606" type="line"/>
      <point x="299" y="229" type="line"/>
      <point x="299" y="0" type="line"/>
    </contour>
  </outline>
</glyph>
<glyph name="Ydieresis" format="1">
  <advance width="484"/>
  <unicode hex="0178"/>
  <outline>
    <contour>
      <point x="120" y="684" type="line"/>
      <point x="120" y="781" type="line"/>
      <point x="209" y="781" type="line"/>
      <point x="209" y="684" type="line"/>
    </contour>
    <contour>
      <point x="275" y="684" type="line"/>
      <point x="275" y="781" type="line"/>
      <point x="363" y="781" type="line"/>
      <point x="363" y="684" type="line"/>
    </contour>
    <contour>
      <point x="299" y="0" type="line"/>
      <point x="186" y="0" type="line"/>
      <point x="186" y="229" type="line"/>
      <point x="0" y="606" type="line"/>
      <point x="119" y="606" type="line"/>
      <point x="243" y="340" type="line"/>
      <point x="247" y="340" type="line"/>
      <point x="370" y="606" type="line"/>
      <point x="484" y="606" type="line"/>
      <point x="299" y="229" type="line"/>
    </contour>
  </outline>
</glyph>
<glyph name="Zacute" format="1">
  <advance width="443"/>
  <unicode hex="0179"/>
  <outline>
    <contour>
      <point x="248" y="664" type="line"/>
      <point x="161" y="664" type="line"/>
      <point x="237" y="781" type="line"/>
      <point x="343" y="781" type="line"/>
      <point x="344" y="778" type="line"/>
    </contour>
    <contour>
      <point x="169" y="101" type="line"/>
      <point x="424" y="101" type="line"/>
      <point x="424" y="0" type="line"/>
      <point x="14" y="0" type="line"/>
      <point x="14" y="43" type="line"/>
      <point x="263" y="506" type="line"/>
      <point x="33" y="506" type="line"/>
      <point x="33" y="606" type="line"/>
      <point x="418" y="606" type="line"/>
      <point x="418" y="562" type="line"/>
    </contour>
  </outline>
</glyph>
<glyph name="zacute" format="1">
  <advance width="362"/>
  <unicode hex="017A"/>
  <outline>
    <contour>
      <point x="208" y="522" type="line"/>
      <point x="120" y="522" type="line"/>
      <point x="196" y="639" type="line"/>
      <point x="302" y="639" type="line"/>
      <point x="303" y="636" type="line"/>
    </contour>
    <contour>
      <point x="159" y="89" type="line"/>
      <point x="347" y="89" type="line"/>
      <point x="347" y="0" type="line"/>
      <point x="16" y="0" type="line"/>
      <point x="16" y="45" type="line"/>
      <point x="196" y="376" type="line"/>
      <point x="27" y="376" type="line"/>
      <point x="27" y="465" type="line"/>
      <point x="340" y="465" type="line"/>
      <point x="340" y="421" type="line"/>
    </contour>
  </outline>
</glyph>
<glyph name="Zcaron" format="1">
  <advance width="443"/>
  <unicode hex="017D"/>
  <outline>
    <contour>
      <point x="179" y="661" type="line"/>
      <point x="103" y="781" type="line"/>
      <point x="182" y="781" type="line"/>
      <point x="222" y="720" type="line"/>
      <point x="261" y="781" type="line"/>
      <point x="340" y="781" type="line"/>
      <point x="265" y="661" type="line"/>
    </contour>
    <contour>
      <point x="169" y="101" type="line"/>
      <point x="424" y="101" type="line"/>
      <point x="424" y="0" type="line"/>
      <point x="14" y="0" type="line"/>
      <point x="14" y="43" type="line"/>
      <point x="263" y="506" type="line"/>
      <point x="33" y="506" type="line"/>
      <point x="33" y="606" type="line"/>
      <point x="418" y="606" type="line"/>
      <point x="418" y="562" type="line"/>
    </contour>
  </outline>
</glyph>
<glyph name="AEacute" format="1">
  <advance width="725"/>
  <unicode hex="01FC"/>
  <outline>
    <contour>
      <point x="389" y="664" type="line"/>
      <point x="301" y="664" type="line"/>
      <point x="377" y="781" type="line"/>
      <point x="484" y="781" type="line"/>
      <point x="484" y="778" type="line"/>
    </contour>
    <contour>
      <point x="387" y="506" type="line"/>
      <point x="423" y="361" type="line"/>
      <point x="643" y="361" type="line"/>
      <point x="643" y="260" type="line"/>
      <point x="447" y="260" type="line"/>
      <point x="486" y="101" type="line"/>
      <point x="687" y="101" type="line"/>
      <point x="687" y="0" type="line"/>
      <point x="395" y="0" type="line"/>
      <point x="366" y="119" type="line"/>
      <point x="142" y="119" type="line"/>
      <point x="98" y="0" type="line"/>
      <point x="-7" y="0" type="line"/>
      <point x="225" y="606" type="line"/>
      <point x="682" y="606" type="line"/>
      <point x="682" y="506" type="line"/>
    </contour>
    <contour>
      <point x="280" y="483" type="curve"/>
      <point x="277" y="483" type="line"/>
      <point x="271" y="469"/>
      <point x="266" y="453"/>
      <point x="261" y="439" type="curve" smooth="yes"/>
      <point x="179" y="220" type="line"/>
      <point x="342" y="220" type="line"/>
      <point x="290" y="442" type="line" smooth="yes"/>
      <point x="286" y="455"/>
      <point x="284" y="469"/>
    </contour>
  </outline>
</glyph>
<glyph name="Tcommaaccent" format="1">
  <advance width="443"/>
  <unicode hex="021A"/>
  <outline>
    <contour>
      <point x="278" y="506" type="line"/>
      <point x="278" y="0" type="line"/>
      <point x="165" y="0" type="line"/>
      <point x="165" y="506" type="line"/>
      <point x="15" y="506" type="line"/>
      <point x="15" y="606" type="line"/>
      <point x="429" y="606" type="line"/>
      <point x="429" y="506" type="line"/>
    </contour>
    <contour>
      <point x="236" y="-232" type="line"/>
      <point x="179" y="-232" type="line"/>
      <point x="210" y="-157" type="line"/>
      <point x="167" y="-157" type="line"/>
      <point x="167" y="-49" type="line"/>
      <point x="276" y="-49" type="line"/>
      <point x="276" y="-148" type="line"/>
    </contour>
  </outline>
</glyph>
<glyph name="breve" format="1">
  <advance width="241"/>
  <unicode hex="02D8"/>
  <outline>
    <contour>
      <point x="171" y="639" type="curve"/>
      <point x="237" y="639" type="line"/>
      <point x="237" y="595"/>
      <point x="192" y="545"/>
      <point x="118" y="545" type="curve" smooth="yes"/>
      <point x="46" y="545"/>
      <point x="1" y="595"/>
      <point x="1" y="639" type="curve"/>
      <point x="66" y="639" type="line"/>
      <point x="69" y="627"/>
      <point x="89" y="610"/>
      <point x="118" y="610" type="curve" smooth="yes"/>
      <point x="149" y="610"/>
      <point x="170" y="627"/>
    </contour>
  </outline>
</glyph>
<glyph name="dotaccent" format="1">
  <advance width="241"/>
  <unicode hex="02D9"/>
  <outline>
    <contour>
      <point x="73" y="639" type="line"/>
      <point x="168" y="639" type="line"/>
      <point x="168" y="537" type="line"/>
      <point x="73" y="537" type="line"/>
    </contour>
  </outline>
</glyph>
<glyph name="hungarumlaut" format="1">
  <advance width="241"/>
  <unicode hex="02DD"/>
  <outline>
    <contour>
      <point x="4" y="522" type="line"/>
      <point x="58" y="639" type="line"/>
      <point x="147" y="639" type="line"/>
      <point x="148" y="636" type="line"/>
      <point x="73" y="522" type="line"/>
    </contour>
    <contour>
      <point x="127" y="522" type="line"/>
      <point x="182" y="639" type="line"/>
      <point x="271" y="639" type="line"/>
      <point x="271" y="636" type="line"/>
      <point x="197" y="522" type="line"/>
    </contour>
  </outline>
</glyph>
<glyph name="commaaccent" format="1">
  <advance width="0"/>
  <unicode hex="0326"/>
  <outline>
    <contour>
      <point x="-122" y="0" type="move" name="_Anchor-4"/>
    </contour>
    <contour>
      <point x="-122" y="0" type="move" name="_Anchor-3"/>
    </contour>
    <contour>
      <point x="-122" y="0" type="move" name="_Anchor-1"/>
    </contour>
    <contour>
      <point x="-165" y="-232" type="line"/>
      <point x="-133" y="-157" type="line"/>
      <point x="-177" y="-157" type="line"/>
      <point x="-177" y="-49" type="line"/>
      <point x="-67" y="-49" type="line"/>
      <point x="-67" y="-148" type="line"/>
      <point x="-108" y="-232" type="line"/>
    </contour>
  </outline>
</glyph>
<glyph name="Delta" format="1">
  <advance width="521"/>
  <unicode hex="0394"/>
  <outline>
    <contour>
      <point x="502" y="0" type="line"/>
      <point x="11" y="0" type="line"/>
      <point x="11" y="49" type="line"/>
      <point x="191" y="606" type="line"/>
      <point x="323" y="606" type="line"/>
      <point x="502" y="49" type="line"/>
    </contour>
    <contour>
      <point x="136" y="101" type="line"/>
      <point x="371" y="101" type="line"/>
      <point x="255" y="478" type="line"/>
      <point x="252" y="478" type="line"/>
    </contour>
  </outline>
</glyph>
<glyph name="visargadeva" format="1">
  <advance width="208"/>
  <unicode hex="0903"/>
  <outline>
    <contour>
      <point x="153" y="465" type="line"/>
      <point x="153" y="367" type="line"/>
      <point x="55" y="367" type="line"/>
      <point x="55" y="465" type="line"/>
    </contour>
    <contour>
      <point x="153" y="181" type="line"/>
      <point x="153" y="83" type="line"/>
      <point x="55" y="83" type="line"/>
      <point x="55" y="181" type="line"/>
    </contour>
  </outline>
</glyph>
<glyph name="udeva" format="1">
  <advance width="382"/>
  <unicode hex="0909"/>
  <outline>
    <contour>
      <point x="192" y="0" type="move" name="Anchor-3"/>
    </contour>
    <contour>
      <point x="192" y="606" type="move" name="Anchor-2"/>
    </contour>
    <contour>
      <point x="392" y="513" type="line"/>
      <point x="323" y="513" type="line"/>
      <point x="333" y="495"/>
      <point x="339" y="473"/>
      <point x="339" y="448" type="curve" smooth="yes"/>
      <point x="339" y="401"/>
      <point x="308" y="355"/>
      <point x="263" y="331" type="curve"/>
      <point x="263" y="328" type="line"/>
      <point x="314" y="311"/>
      <point x="348" y="259"/>
      <point x="348" y="198" type="curve" smooth="yes"/>
      <point x="348" y="104"/>
      <point x="283" y="42"/>
      <point x="185" y="42" type="curve" smooth="yes"/>
      <point x="88" y="42"/>
      <point x="23" y="105"/>
      <point x="23" y="186" type="curve" smooth="yes"/>
      <point x="23" y="197"/>
      <point x="24" y="206"/>
      <point x="26" y="215" type="curve"/>
      <point x="129" y="215" type="line"/>
      <point x="129" y="193" type="line" smooth="yes"/>
      <point x="129" y="153"/>
      <point x="148" y="131"/>
      <point x="186" y="131" type="curve" smooth="yes"/>
      <point x="222" y="131"/>
      <point x="242" y="153"/>
      <point x="242" y="204" type="curve" smooth="yes"/>
      <point x="242" y="270"/>
      <point x="213" y="286"/>
      <point x="176" y="286" type="curve" smooth="yes"/>
      <point x="147" y="286" type="line"/>
      <point x="147" y="366" type="line"/>
      <point x="177" y="366" type="line" smooth="yes"/>
      <point x="212" y="366"/>
      <point x="233" y="392"/>
      <point x="233" y="449" type="curve" smooth="yes"/>
      <point x="233" y="492"/>
      <point x="219" y="513"/>
      <point x="185" y="513" type="curve" smooth="yes"/>
      <point x="-10" y="513" type="line"/>
      <point x="-10" y="606" type="line"/>
      <point x="392" y="606" type="line"/>
    </contour>
  </outline>
</glyph>
<glyph name="rVocalicdeva" format="1">
  <advance width="703"/>
  <unicode hex="090B"/>
  <outline>
    <contour>
      <point x="326" y="0" type="move" name="Anchor-3"/>
    </contour>
    <contour>
      <point x="326" y="606" type="move" name="Anchor-2"/>
    </contour>
    <contour>
      <point x="379" y="513" type="line"/>
      <point x="379" y="311" type="line"/>
      <point x="537" y="392" type="line"/>
      <point x="537" y="430" type="line"/>
      <point x="635" y="430" type="line"/>
      <point x="635" y="165" type="line"/>
      <point x="615" y="165" type="line" smooth="yes"/>
      <point x="582" y="165"/>
      <point x="561" y="151"/>
      <point x="561" y="123" type="curve" smooth="yes"/>
      <point x="561" y="95"/>
      <point x="582" y="81"/>
      <point x="615" y="81" type="curve" smooth="yes"/>
      <point x="639" y="81"/>
      <point x="663" y="88"/>
      <point x="679" y="95" type="curve"/>
      <point x="679" y="4" type="line"/>
      <point x="655" y="-6"/>
      <point x="634" y="-11"/>
      <point x="607" y="-11" type="curve" smooth="yes"/>
      <point x="529" y="-11"/>
      <point x="455" y="36"/>
      <point x="455" y="123" type="curve" smooth="yes"/>
      <point x="455" y="183"/>
      <point x="490" y="224"/>
      <point x="537" y="243" type="curve"/>
      <point x="537" y="287" type="line"/>
      <point x="379" y="207" type="line"/>
      <point x="379" y="0" type="line"/>
      <point x="273" y="0" type="line"/>
      <point x="273" y="161" type="line"/>
      <point x="27" y="32" type="line"/>
      <point x="27" y="137" type="line"/>
      <point x="187" y="221" type="line"/>
      <point x="171" y="265" type="line"/>
      <point x="138" y="343"/>
      <point x="107" y="352"/>
      <point x="57" y="352" type="curve" smooth="yes"/>
      <point x="26" y="352" type="line"/>
      <point x="26" y="434" type="line"/>
      <point x="38" y="438"/>
      <point x="60" y="441"/>
      <point x="88" y="441" type="curve" smooth="yes"/>
      <point x="192" y="441"/>
      <point x="230" y="372"/>
      <point x="260" y="298" type="curve" smooth="yes"/>
      <point x="273" y="266" type="line"/>
      <point x="273" y="513" type="line"/>
      <point x="-10" y="513" type="line"/>
      <point x="-10" y="606" type="line"/>
      <point x="712" y="606" type="line"/>
      <point x="712" y="513" type="line"/>
    </contour>
  </outline>
</glyph>
<glyph name="lVocalicdeva" format="1">
  <advance width="605"/>
  <unicode hex="090C"/>
  <outline>
    <contour>
      <point x="482" y="0" type="move" name="Anchor-3"/>
    </contour>
    <contour>
      <point x="482" y="606" type="move" name="Anchor-2"/>
    </contour>
    <contour>
      <point x="535" y="66" type="line"/>
      <point x="514" y="66" type="line" smooth="yes"/>
      <point x="481" y="66"/>
      <point x="460" y="52"/>
      <point x="460" y="24" type="curve" smooth="yes"/>
      <point x="460" y="-4"/>
      <point x="481" y="-18"/>
      <point x="514" y="-18" type="curve" smooth="yes"/>
      <point x="538" y="-18"/>
      <point x="562" y="-11"/>
      <point x="578" y="-4" type="curve"/>
      <point x="578" y="-95" type="line"/>
      <point x="554" y="-105"/>
      <point x="533" y="-110"/>
      <point x="506" y="-110" type="curve" smooth="yes"/>
      <point x="428" y="-110"/>
      <point x="354" y="-63"/>
      <point x="354" y="24" type="curve" smooth="yes"/>
      <point x="354" y="81"/>
      <point x="385" y="120"/>
      <point x="429" y="141" type="curve"/>
      <point x="429" y="277" type="line" smooth="yes"/>
      <point x="429" y="327"/>
      <point x="415" y="356"/>
      <point x="385" y="356" type="curve" smooth="yes"/>
      <point x="348" y="356"/>
      <point x="339" y="314"/>
      <point x="339" y="267" type="curve" smooth="yes"/>
      <point x="339" y="197" type="line"/>
      <point x="229" y="197" type="line"/>
      <point x="229" y="267" type="line" smooth="yes"/>
      <point x="229" y="314"/>
      <point x="220" y="356"/>
      <point x="184" y="356" type="curve" smooth="yes"/>
      <point x="153" y="356"/>
      <point x="139" y="311"/>
      <point x="139" y="232" type="curve" smooth="yes"/>
      <point x="139" y="135"/>
      <point x="172" y="89"/>
      <point x="237" y="89" type="curve" smooth="yes"/>
      <point x="265" y="89" type="line"/>
      <point x="265" y="4" type="line"/>
      <point x="254" y="1"/>
      <point x="242" y="0"/>
      <point x="230" y="0" type="curve" smooth="yes"/>
      <point x="100" y="0"/>
      <point x="29" y="81"/>
      <point x="29" y="250" type="curve" smooth="yes"/>
      <point x="29" y="368"/>
      <point x="85" y="445"/>
      <point x="171" y="445" type="curve" smooth="yes"/>
      <point x="232" y="445"/>
      <point x="269" y="409"/>
      <point x="283" y="361" type="curve"/>
      <point x="286" y="361" type="line"/>
      <point x="299" y="409"/>
      <point x="332" y="445"/>
      <point x="389" y="445" type="curve" smooth="yes"/>
      <point x="403" y="445"/>
      <point x="417" y="442"/>
      <point x="429" y="437" type="curve"/>
      <point x="429" y="513" type="line"/>
      <point x="-10" y="513" type="line"/>
      <point x="-10" y="606" type="line"/>
      <point x="615" y="606" type="line"/>
      <point x="615" y="513" type="line"/>
      <point x="535" y="513" type="line"/>
    </contour>
  </outline>
</glyph>
<glyph name="odeva" format="1">
  <advance width="869"/>
  <unicode hex="0913"/>
  <outline>
    <contour>
      <point x="745" y="0" type="move" name="Anchor-3"/>
    </contour>
    <contour>
      <point x="745" y="606" type="move" name="Anchor-2"/>
    </contour>
    <contour>
      <point x="879" y="513" type="line"/>
      <point x="799" y="513" type="line"/>
      <point x="799" y="0" type="line"/>
      <point x="693" y="0" type="line"/>
      <point x="693" y="513" type="line"/>
      <point x="556" y="513" type="line"/>
      <point x="556" y="0" type="line"/>
      <point x="450" y="0" type="line"/>
      <point x="450" y="218" type="line"/>
      <point x="335" y="218" type="line"/>
      <point x="336" y="202" type="line"/>
      <point x="336" y="103"/>
      <point x="275" y="42"/>
      <point x="179" y="42" type="curve" smooth="yes"/>
      <point x="84" y="42"/>
      <point x="26" y="98"/>
      <point x="26" y="182" type="curve" smooth="yes"/>
      <point x="26" y="191"/>
      <point x="27" y="200"/>
      <point x="29" y="210" type="curve"/>
      <point x="137" y="210" type="line"/>
      <point x="137" y="186" type="line" smooth="yes"/>
      <point x="137" y="150"/>
      <point x="154" y="131"/>
      <point x="181" y="131" type="curve" smooth="yes"/>
      <point x="208" y="131"/>
      <point x="225" y="153"/>
      <point x="225" y="207" type="curve" smooth="yes"/>
      <point x="225" y="273"/>
      <point x="199" y="290"/>
      <point x="169" y="290" type="curve" smooth="yes"/>
      <point x="141" y="290" type="line"/>
      <point x="141" y="378" type="line"/>
      <point x="171" y="378" type="line" smooth="yes"/>
      <point x="200" y="378"/>
      <point x="218" y="405"/>
      <point x="218" y="464" type="curve" smooth="yes"/>
      <point x="218" y="507"/>
      <point x="208" y="529"/>
      <point x="181" y="529" type="curve" smooth="yes"/>
      <point x="156" y="529"/>
      <point x="146" y="508"/>
      <point x="146" y="471" type="curve" smooth="yes"/>
      <point x="146" y="453" type="line"/>
      <point x="38" y="453" type="line"/>
      <point x="37" y="464"/>
      <point x="36" y="475"/>
      <point x="36" y="486" type="curve" smooth="yes"/>
      <point x="36" y="565"/>
      <point x="95" y="617"/>
      <point x="181" y="617" type="curve" smooth="yes"/>
      <point x="270" y="617"/>
      <point x="328" y="563"/>
      <point x="328" y="466" type="curve" smooth="yes"/>
      <point x="328" y="402"/>
      <point x="302" y="365"/>
      <point x="260" y="340" type="curve"/>
      <point x="260" y="337" type="line"/>
      <point x="274" y="331"/>
      <point x="287" y="323"/>
      <point x="298" y="311" type="curve"/>
      <point x="450" y="311" type="line"/>
      <point x="450" y="513" type="line"/>
      <point x="409" y="513" type="line"/>
      <point x="409" y="606" type="line"/>
      <point x="690" y="606" type="line"/>
      <point x="622" y="821" type="line"/>
      <point x="729" y="821" type="line"/>
      <point x="788" y="606" type="line"/>
      <point x="879" y="606" type="line"/>
    </contour>
  </outline>
</glyph>
<glyph name="nyadeva" format="1">
  <advance width="555"/>
  <unicode hex="091E"/>
  <outline>
    <contour>
      <point x="432" y="0" type="move" name="Anchor-3"/>
    </contour>
    <contour>
      <point x="432" y="606" type="move" name="Anchor-2"/>
    </contour>
    <contour>
      <point x="565" y="513" type="line"/>
      <point x="485" y="513" type="line"/>
      <point x="485" y="0" type="line"/>
      <point x="379" y="0" type="line"/>
      <point x="379" y="217" type="line"/>
      <point x="329" y="217" type="line"/>
      <point x="318" y="129"/>
      <point x="269" y="88"/>
      <point x="182" y="88" type="curve" smooth="yes"/>
      <point x="99" y="88"/>
      <point x="43" y="135"/>
      <point x="43" y="205" type="curve" smooth="yes"/>
      <point x="43" y="211"/>
      <point x="44" y="218"/>
      <point x="46" y="224" type="curve"/>
      <point x="148" y="224" type="line"/>
      <point x="148" y="219" type="line" smooth="yes"/>
      <point x="148" y="193"/>
      <point x="159" y="178"/>
      <point x="184" y="178" type="curve" smooth="yes"/>
      <point x="215" y="178"/>
      <point x="226" y="199"/>
      <point x="226" y="248" type="curve" smooth="yes"/>
      <point x="226" y="276" type="line" smooth="yes"/>
      <point x="226" y="325"/>
      <point x="215" y="345"/>
      <point x="186" y="345" type="curve" smooth="yes"/>
      <point x="163" y="345"/>
      <point x="151" y="332"/>
      <point x="151" y="304" type="curve" smooth="yes"/>
      <point x="151" y="300" type="line"/>
      <point x="46" y="300" type="line"/>
      <point x="44" y="308"/>
      <point x="43" y="314"/>
      <point x="43" y="318" type="curve" smooth="yes"/>
      <point x="43" y="389"/>
      <point x="100" y="435"/>
      <point x="185" y="435" type="curve" smooth="yes"/>
      <point x="266" y="435"/>
      <point x="315" y="395"/>
      <point x="328" y="311" type="curve"/>
      <point x="379" y="311" type="line"/>
      <point x="379" y="513" type="line"/>
      <point x="-10" y="513" type="line"/>
      <point x="-10" y="606" type="line"/>
      <point x="565" y="606" type="line"/>
    </contour>
  </outline>
</glyph>
<glyph name="dadeva" format="1">
  <advance width="406"/>
  <unicode hex="0926"/>
  <outline>
    <contour>
      <point x="321" y="0" type="move" name="Anchor-3"/>
    </contour>
    <contour>
      <point x="275" y="606" type="move" name="Anchor-2"/>
    </contour>
    <contour>
      <point x="327" y="340" type="line"/>
      <point x="211" y="340" type="line" smooth="yes"/>
      <point x="168" y="340"/>
      <point x="139" y="312"/>
      <point x="139" y="246" type="curve" smooth="yes"/>
      <point x="139" y="191"/>
      <point x="160" y="156"/>
      <point x="193" y="156" type="curve" smooth="yes"/>
      <point x="206" y="156"/>
      <point x="217" y="162"/>
      <point x="226" y="171" type="curve"/>
      <point x="217" y="209" type="line"/>
      <point x="323" y="209" type="line"/>
      <point x="373" y="0" type="line"/>
      <point x="267" y="0" type="line"/>
      <point x="246" y="88" type="line"/>
      <point x="229" y="77"/>
      <point x="206" y="69"/>
      <point x="176" y="69" type="curve" smooth="yes"/>
      <point x="96" y="69"/>
      <point x="30" y="128"/>
      <point x="30" y="249" type="curve" smooth="yes"/>
      <point x="30" y="373"/>
      <point x="100" y="434"/>
      <point x="208" y="434" type="curve" smooth="yes"/>
      <point x="220" y="434" type="line"/>
      <point x="220" y="513" type="line"/>
      <point x="-10" y="513" type="line"/>
      <point x="-10" y="606" type="line"/>
      <point x="416" y="606" type="line"/>
      <point x="416" y="513" type="line"/>
      <point x="327" y="513" type="line"/>
    </contour>
  </outline>
</glyph>
<glyph name="nnnadeva" format="1">
  <advance width="535"/>
  <unicode hex="0929"/>
  <outline>
    <contour>
      <point x="413" y="0" type="move" name="Anchor-3"/>
    </contour>
    <contour>
      <point x="413" y="606" type="move" name="Anchor-2"/>
    </contour>
    <contour>
      <point x="545" y="513" type="line"/>
      <point x="465" y="513" type="line"/>
      <point x="465" y="0" type="line"/>
      <point x="359" y="0" type="line"/>
      <point x="359" y="300" type="line"/>
      <point x="282" y="300" type="line"/>
      <point x="282" y="256" type="line" smooth="yes"/>
      <point x="282" y="175"/>
      <point x="228" y="118"/>
      <point x="141" y="118" type="curve" smooth="yes"/>
      <point x="55" y="118"/>
      <point x="4" y="170"/>
      <point x="4" y="256" type="curve" smooth="yes"/>
      <point x="4" y="338"/>
      <point x="59" y="393"/>
      <point x="142" y="393" type="curve" smooth="yes"/>
      <point x="359" y="393" type="line"/>
      <point x="359" y="513" type="line"/>
      <point x="-10" y="513" type="line"/>
      <point x="-10" y="606" type="line"/>
      <point x="545" y="606" type="line"/>
    </contour>
    <contour>
      <point x="176" y="300" type="line"/>
      <point x="142" y="300" type="line" smooth="yes"/>
      <point x="120" y="300"/>
      <point x="106" y="281"/>
      <point x="106" y="256" type="curve" smooth="yes"/>
      <point x="106" y="230"/>
      <point x="120" y="212"/>
      <point x="141" y="212" type="curve" smooth="yes"/>
      <point x="163" y="212"/>
      <point x="176" y="232"/>
      <point x="176" y="256" type="curve" smooth="yes"/>
    </contour>
    <contour>
      <point x="182" y="78" type="line"/>
      <point x="265" y="78" type="line"/>
      <point x="265" y="-5" type="line"/>
      <point x="182" y="-5" type="line"/>
    </contour>
  </outline>
</glyph>
<glyph name="badeva" format="1">
  <advance width="431"/>
  <unicode hex="092C"/>
  <outline>
    <contour>
      <point x="313" y="0" type="move" name="Anchor-3"/>
    </contour>
    <contour>
      <point x="313" y="606" type="move" name="Anchor-2"/>
    </contour>
    <contour>
      <point x="446" y="513" type="line"/>
      <point x="366" y="513" type="line"/>
      <point x="366" y="0" type="line"/>
      <point x="260" y="0" type="line"/>
      <point x="260" y="114" type="line"/>
      <point x="256" y="114" type="line"/>
      <point x="238" y="100"/>
      <point x="208" y="89"/>
      <point x="171" y="89" type="curve" smooth="yes"/>
      <point x="85" y="89"/>
      <point x="30" y="147"/>
      <point x="30" y="276" type="curve" smooth="yes"/>
      <point x="30" y="405"/>
      <point x="84" y="461"/>
      <point x="171" y="461" type="curve" smooth="yes"/>
      <point x="208" y="461"/>
      <point x="238" y="450"/>
      <point x="256" y="436" type="curve"/>
      <point x="260" y="436" type="line"/>
      <point x="260" y="513" type="line"/>
      <point x="-10" y="513" type="line"/>
      <point x="-10" y="606" type="line"/>
      <point x="446" y="606" type="line"/>
    </contour>
    <contour>
      <point x="260" y="264" type="curve" smooth="yes"/>
      <point x="260" y="284" type="line" smooth="yes"/>
      <point x="260" y="335"/>
      <point x="245" y="364"/>
      <point x="200" y="364" type="curve" smooth="yes"/>
      <point x="193" y="364"/>
      <point x="187" y="363"/>
      <point x="181" y="362" type="curve"/>
      <point x="256" y="225" type="line"/>
      <point x="259" y="236"/>
      <point x="260" y="249"/>
    </contour>
    <contour>
      <point x="140" y="286" type="curve" smooth="yes"/>
      <point x="140" y="264" type="line" smooth="yes"/>
      <point x="140" y="214"/>
      <point x="156" y="186"/>
      <point x="200" y="186" type="curve" smooth="yes"/>
      <point x="208" y="186"/>
      <point x="215" y="187"/>
      <point x="221" y="188" type="curve"/>
      <point x="145" y="327" type="line"/>
      <point x="142" y="316"/>
      <point x="140" y="302"/>
    </contour>
  </outline>
</glyph>
<glyph name="rradeva" format="1">
  <advance width="337"/>
  <unicode hex="0931"/>
  <outline>
    <contour>
      <point x="220" y="0" type="move" name="Anchor-3"/>
    </contour>
    <contour>
      <point x="220" y="606" type="move" name="Anchor-2"/>
    </contour>
    <contour>
      <point x="272" y="513" type="line"/>
      <point x="272" y="409" type="line" smooth="yes"/>
      <point x="272" y="306"/>
      <point x="234" y="249"/>
      <point x="163" y="240" type="curve"/>
      <point x="284" y="0" type="line"/>
      <point x="173" y="0" type="line"/>
      <point x="59" y="254" type="line"/>
      <point x="59" y="324" type="line"/>
      <point x="120" y="324" type="line" smooth="yes"/>
      <point x="150" y="324"/>
      <point x="166" y="350"/>
      <point x="166" y="399" type="curve" smooth="yes"/>
      <point x="166" y="513" type="line"/>
      <point x="-10" y="513" type="line"/>
      <point x="-10" y="606" type="line"/>
      <point x="347" y="606" type="line"/>
      <point x="347" y="513" type="line"/>
    </contour>
    <contour>
      <point x="11" y="87" type="line"/>
      <point x="94" y="87" type="line"/>
      <point x="94" y="4" type="line"/>
      <point x="11" y="4" type="line"/>
    </contour>
  </outline>
</glyph>
<glyph name="llladeva" format="1">
  <advance width="653"/>
  <unicode hex="0934"/>
  <outline>
    <contour>
      <point x="334" y="0" type="move" name="Anchor-3"/>
    </contour>
    <contour>
      <point x="467" y="606" type="move" name="Anchor-2"/>
    </contour>
    <contour>
      <point x="519" y="513" type="line"/>
      <point x="519" y="453" type="line"/>
      <point x="585" y="431"/>
      <point x="623" y="368"/>
      <point x="623" y="276" type="curve" smooth="yes"/>
      <point x="623" y="159"/>
      <point x="566" y="89"/>
      <point x="467" y="89" type="curve" smooth="yes"/>
      <point x="422" y="89"/>
      <point x="363" y="100"/>
      <point x="332" y="153" type="curve"/>
      <point x="305" y="113"/>
      <point x="264" y="89"/>
      <point x="191" y="89" type="curve" smooth="yes"/>
      <point x="90" y="89"/>
      <point x="30" y="159"/>
      <point x="30" y="274" type="curve" smooth="yes"/>
      <point x="30" y="391"/>
      <point x="88" y="461"/>
      <point x="186" y="461" type="curve" smooth="yes"/>
      <point x="231" y="461"/>
      <point x="290" y="450"/>
      <point x="321" y="397" type="curve"/>
      <point x="341" y="427"/>
      <point x="369" y="448"/>
      <point x="413" y="457" type="curve"/>
      <point x="413" y="513" type="line"/>
      <point x="-10" y="513" type="line"/>
      <point x="-10" y="606" type="line"/>
      <point x="663" y="606" type="line"/>
      <point x="663" y="513" type="line"/>
    </contour>
    <contour>
      <point x="278" y="280" type="curve"/>
      <point x="280" y="287" type="line"/>
      <point x="271" y="350"/>
      <point x="244" y="364"/>
      <point x="205" y="364" type="curve" smooth="yes"/>
      <point x="161" y="364"/>
      <point x="140" y="335"/>
      <point x="140" y="275" type="curve" smooth="yes"/>
      <point x="140" y="215"/>
      <point x="159" y="186"/>
      <point x="197" y="186" type="curve" smooth="yes"/>
      <point x="243" y="186"/>
      <point x="261" y="212"/>
    </contour>
    <contour>
      <point x="448" y="186" type="curve" smooth="yes"/>
      <point x="492" y="186"/>
      <point x="513" y="215"/>
      <point x="513" y="275" type="curve" smooth="yes"/>
      <point x="513" y="335"/>
      <point x="494" y="364"/>
      <point x="456" y="364" type="curve" smooth="yes"/>
      <point x="410" y="364"/>
      <point x="392" y="339"/>
      <point x="375" y="270" type="curve"/>
      <point x="373" y="263" type="line"/>
      <point x="382" y="200"/>
      <point x="409" y="186"/>
    </contour>
    <contour>
      <point x="292" y="83" type="line"/>
      <point x="375" y="83" type="line"/>
      <point x="375" y="0" type="line"/>
      <point x="292" y="0" type="line"/>
    </contour>
  </outline>
</glyph>
<glyph name="hadeva" format="1">
  <advance width="417"/>
  <unicode hex="0939"/>
  <outline>
    <contour>
      <point x="243" y="-30" type="move" name="Anchor-3"/>
    </contour>
    <contour>
      <point x="293" y="606" type="move" name="Anchor-2"/>
    </contour>
    <contour>
      <point x="346" y="354" type="line"/>
      <point x="180" y="354" type="line" smooth="yes"/>
      <point x="163" y="354"/>
      <point x="143" y="344"/>
      <point x="143" y="321" type="curve" smooth="yes"/>
      <point x="143" y="289"/>
      <point x="183" y="288"/>
      <point x="211" y="288" type="curve" smooth="yes"/>
      <point x="214" y="288" type="line" smooth="yes"/>
      <point x="315" y="288"/>
      <point x="366" y="232"/>
      <point x="366" y="158" type="curve" smooth="yes"/>
      <point x="366" y="148"/>
      <point x="365" y="135"/>
      <point x="364" y="128" type="curve"/>
      <point x="255" y="128" type="line"/>
      <point x="255" y="149" type="line" smooth="yes"/>
      <point x="255" y="180"/>
      <point x="242" y="199"/>
      <point x="206" y="199" type="curve" smooth="yes"/>
      <point x="170" y="199"/>
      <point x="150" y="179"/>
      <point x="150" y="139" type="curve" smooth="yes"/>
      <point x="150" y="81"/>
      <point x="191" y="60"/>
      <point x="295" y="60" type="curve" smooth="yes"/>
      <point x="339" y="60" type="line"/>
      <point x="339" y="-21" type="line"/>
      <point x="317" y="-28"/>
      <point x="295" y="-30"/>
      <point x="268" y="-30" type="curve" smooth="yes"/>
      <point x="126" y="-30"/>
      <point x="39" y="27"/>
      <point x="39" y="133" type="curve" smooth="yes"/>
      <point x="39" y="177"/>
      <point x="54" y="213"/>
      <point x="80" y="239" type="curve"/>
      <point x="54" y="256"/>
      <point x="35" y="283"/>
      <point x="35" y="329" type="curve" smooth="yes"/>
      <point x="35" y="414"/>
      <point x="98" y="447"/>
      <point x="181" y="447" type="curve" smooth="yes"/>
      <point x="232" y="447" type="line"/>
      <point x="232" y="513" type="line"/>
      <point x="-10" y="513" type="line"/>
      <point x="-10" y="606" type="line"/>
      <point x="427" y="606" type="line"/>
      <point x="427" y="513" type="line"/>
      <point x="346" y="513" type="line"/>
    </contour>
  </outline>
</glyph>
<glyph name="nuktadeva" format="1">
  <advance width="0"/>
  <unicode hex="093C"/>
  <outline>
    <contour>
      <point x="-163" y="-52" type="line"/>
      <point x="-80" y="-52" type="line"/>
      <point x="-80" y="-135" type="line"/>
      <point x="-163" y="-135" type="line"/>
    </contour>
  </outline>
</glyph>
<glyph name="avagrahadeva" format="1">
  <advance width="384"/>
  <unicode hex="093D"/>
  <outline>
    <contour>
      <point x="371" y="513" type="line"/>
      <point x="194" y="513" type="line" smooth="yes"/>
      <point x="166" y="513"/>
      <point x="137" y="499"/>
      <point x="137" y="460" type="curve" smooth="yes"/>
      <point x="137" y="414"/>
      <point x="178" y="383"/>
      <point x="224" y="348" type="curve" smooth="yes"/>
      <point x="283" y="304"/>
      <point x="356" y="250"/>
      <point x="356" y="144" type="curve" smooth="yes"/>
      <point x="356" y="37"/>
      <point x="283" y="-11"/>
      <point x="189" y="-11" type="curve" smooth="yes"/>
      <point x="85" y="-11"/>
      <point x="24" y="49"/>
      <point x="24" y="133" type="curve" smooth="yes"/>
      <point x="24" y="144"/>
      <point x="25" y="148"/>
      <point x="25" y="148" type="curve"/>
      <point x="133" y="148" type="line"/>
      <point x="133" y="141" type="line" smooth="yes"/>
      <point x="133" y="93"/>
      <point x="165" y="76"/>
      <point x="191" y="76" type="curve" smooth="yes"/>
      <point x="219" y="76"/>
      <point x="248" y="98"/>
      <point x="248" y="145" type="curve" smooth="yes"/>
      <point x="248" y="202"/>
      <point x="204" y="238"/>
      <point x="152" y="278" type="curve" smooth="yes"/>
      <point x="91" y="325"/>
      <point x="29" y="374"/>
      <point x="29" y="464" type="curve" smooth="yes"/>
      <point x="29" y="561"/>
      <point x="99" y="606"/>
      <point x="193" y="606" type="curve" smooth="yes"/>
      <point x="371" y="606" type="line"/>
    </contour>
  </outline>
</glyph>
<glyph name="iMatradeva" format="1">
  <advance width="246"/>
  <unicode hex="093F"/>
  <outline>
    <contour>
      <point x="120" y="0" type="move" name="Anchor-3"/>
    </contour>
    <contour>
      <point x="123" y="606" type="move" name="Anchor-2"/>
    </contour>
    <contour>
      <point x="315" y="827" type="curve" smooth="yes"/>
      <point x="378" y="827"/>
      <point x="476" y="812"/>
      <point x="603" y="764" type="curve"/>
      <point x="603" y="673" type="line"/>
      <point x="450" y="724"/>
      <point x="353" y="734"/>
      <point x="302" y="734" type="curve" smooth="yes"/>
      <point x="190" y="734"/>
      <point x="176" y="682"/>
      <point x="176" y="627" type="curve" smooth="yes"/>
      <point x="176" y="606" type="line"/>
      <point x="256" y="606" type="line"/>
      <point x="256" y="513" type="line"/>
      <point x="176" y="513" type="line"/>
      <point x="176" y="0" type="line"/>
      <point x="70" y="0" type="line"/>
      <point x="70" y="513" type="line"/>
      <point x="-10" y="513" type="line"/>
      <point x="-10" y="606" type="line"/>
      <point x="70" y="606" type="line"/>
      <point x="70" y="644" type="line" smooth="yes"/>
      <point x="70" y="693"/>
      <point x="96" y="827"/>
    </contour>
  </outline>
</glyph>
<glyph name="iiMatradeva" format="1">
  <advance width="246"/>
  <unicode hex="0940"/>
  <outline>
    <contour>
      <point x="121" y="0" type="move" name="Anchor-3"/>
    </contour>
    <contour>
      <point x="123" y="606" type="move" name="Anchor-2"/>
    </contour>
    <contour>
      <point x="256" y="513" type="line"/>
      <point x="176" y="513" type="line"/>
      <point x="176" y="0" type="line"/>
      <point x="70" y="0" type="line"/>
      <point x="70" y="513" type="line"/>
      <point x="-10" y="513" type="line"/>
      <point x="-10" y="606" type="line"/>
      <point x="70" y="606" type="line"/>
      <point x="70" y="671" type="line" smooth="yes"/>
      <point x="70" y="710"/>
      <point x="59" y="741"/>
      <point x="0" y="741" type="curve" smooth="yes"/>
      <point x="-49" y="741"/>
      <point x="-63" y="712"/>
      <point x="-63" y="687" type="curve" smooth="yes"/>
      <point x="-63" y="673" type="line"/>
      <point x="-165" y="673" type="line"/>
      <point x="-166" y="678"/>
      <point x="-166" y="685"/>
      <point x="-166" y="693" type="curve" smooth="yes"/>
      <point x="-166" y="774"/>
      <point x="-103" y="827"/>
      <point x="-3" y="827" type="curve" smooth="yes"/>
      <point x="120" y="827"/>
      <point x="176" y="772"/>
      <point x="176" y="677" type="curve" smooth="yes"/>
      <point x="176" y="606" type="line"/>
      <point x="256" y="606" type="line"/>
    </contour>
  </outline>
</glyph>
<glyph name="uMatradeva" format="1">
  <advance width="0"/>
  <unicode hex="0941"/>
  <outline>
    <contour>
      <point x="-123" y="0" type="move" name="_Anchor-4"/>
    </contour>
    <contour>
      <point x="-123" y="0" type="move" name="_Anchor-3"/>
    </contour>
    <contour>
      <point x="-123" y="0" type="move" name="_Anchor-1"/>
    </contour>
    <contour>
      <point x="-324" y="-126" type="curve"/>
      <point x="-324" y="0" type="line"/>
      <point x="-268" y="-64"/>
      <point x="-198" y="-125"/>
      <point x="-140" y="-125" type="curve" smooth="yes"/>
      <point x="-110" y="-125"/>
      <point x="-93" y="-106"/>
      <point x="-93" y="-83" type="curve" smooth="yes"/>
      <point x="-93" y="-57"/>
      <point x="-113" y="-43"/>
      <point x="-148" y="-43" type="curve" smooth="yes"/>
      <point x="-169" y="-43"/>
      <point x="-189" y="-48"/>
      <point x="-204" y="-53" type="curve"/>
      <point x="-204" y="38" type="line"/>
      <point x="-184" y="45"/>
      <point x="-164" y="49"/>
      <point x="-140" y="49" type="curve" smooth="yes"/>
      <point x="-60" y="49"/>
      <point x="13" y="2"/>
      <point x="13" y="-85" type="curve" smooth="yes"/>
      <point x="13" y="-171"/>
      <point x="-58" y="-218"/>
      <point x="-137" y="-218" type="curve" smooth="yes"/>
      <point x="-202" y="-218"/>
      <point x="-265" y="-182"/>
    </contour>
  </outline>
</glyph>
<glyph name="uuMatradeva" format="1">
  <advance width="0"/>
  <unicode hex="0942"/>
  <outline>
    <contour>
      <point x="-124" y="0" type="move" name="_Anchor-4"/>
    </contour>
    <contour>
      <point x="-124" y="0" type="move" name="_Anchor-3"/>
    </contour>
    <contour>
      <point x="-124" y="0" type="move" name="_Anchor-1"/>
    </contour>
    <contour>
      <point x="-138" y="49" type="curve" smooth="yes"/>
      <point x="-48" y="49"/>
      <point x="49" y="-10"/>
      <point x="49" y="-218" type="curve"/>
      <point x="-60" y="-218" type="line"/>
      <point x="-60" y="-90"/>
      <point x="-87" y="-45"/>
      <point x="-138" y="-45" type="curve" smooth="yes"/>
      <point x="-166" y="-45"/>
      <point x="-182" y="-64"/>
      <point x="-182" y="-87" type="curve" smooth="yes"/>
      <point x="-182" y="-113"/>
      <point x="-166" y="-126"/>
      <point x="-146" y="-126" type="curve" smooth="yes"/>
      <point x="-131" y="-126"/>
      <point x="-117" y="-124"/>
      <point x="-107" y="-120" type="curve"/>
      <point x="-107" y="-212" type="line"/>
      <point x="-126" y="-218"/>
      <point x="-141" y="-218"/>
      <point x="-163" y="-218" type="curve" smooth="yes"/>
      <point x="-232" y="-218"/>
      <point x="-288" y="-158"/>
      <point x="-288" y="-85" type="curve" smooth="yes"/>
      <point x="-288" y="1"/>
      <point x="-219" y="49"/>
    </contour>
  </outline>
</glyph>
<glyph name="rVocalicMatradeva" format="1">
  <advance width="0"/>
  <unicode hex="0943"/>
  <outline>
    <contour>
      <point x="-123" y="0" type="move" name="_Anchor-4"/>
    </contour>
    <contour>
      <point x="-123" y="0" type="move" name="_Anchor-3"/>
    </contour>
    <contour>
      <point x="-123" y="0" type="move" name="_Anchor-1"/>
    </contour>
    <contour>
      <point x="-98" y="92" type="curve" smooth="yes"/>
      <point x="-88" y="92"/>
      <point x="-79" y="91"/>
      <point x="-70" y="90" type="curve"/>
      <point x="-70" y="0" type="line"/>
      <point x="-90" y="0" type="line" smooth="yes"/>
      <point x="-123" y="0"/>
      <point x="-144" y="-14"/>
      <point x="-144" y="-42" type="curve" smooth="yes"/>
      <point x="-144" y="-70"/>
      <point x="-123" y="-84"/>
      <point x="-90" y="-84" type="curve" smooth="yes"/>
      <point x="-66" y="-84"/>
      <point x="-42" y="-77"/>
      <point x="-26" y="-70" type="curve"/>
      <point x="-26" y="-161" type="line"/>
      <point x="-50" y="-171"/>
      <point x="-71" y="-176"/>
      <point x="-98" y="-176" type="curve" smooth="yes"/>
      <point x="-176" y="-176"/>
      <point x="-250" y="-129"/>
      <point x="-250" y="-42" type="curve" smooth="yes"/>
      <point x="-250" y="45"/>
      <point x="-176" y="92"/>
    </contour>
  </outline>
</glyph>
<glyph name="rrVocalicMatradeva" format="1">
  <advance width="0"/>
  <unicode hex="0944"/>
  <outline>
    <contour>
      <point x="-123" y="0" type="move" name="_Anchor-4"/>
    </contour>
    <contour>
      <point x="-123" y="0" type="move" name="_Anchor-3"/>
    </contour>
    <contour>
      <point x="-123" y="0" type="move" name="_Anchor-1"/>
    </contour>
    <contour>
      <point x="-90" y="-225" type="curve" smooth="yes"/>
      <point x="-66" y="-225"/>
      <point x="-42" y="-218"/>
      <point x="-26" y="-211" type="curve"/>
      <point x="-26" y="-302" type="line"/>
      <point x="-50" y="-312"/>
      <point x="-71" y="-317"/>
      <point x="-98" y="-317" type="curve" smooth="yes"/>
      <point x="-176" y="-317"/>
      <point x="-250" y="-273"/>
      <point x="-250" y="-200" type="curve" smooth="yes"/>
      <point x="-250" y="-165"/>
      <point x="-234" y="-134"/>
      <point x="-209" y="-113" type="curve"/>
      <point x="-234" y="-91"/>
      <point x="-250" y="-61"/>
      <point x="-250" y="-26" type="curve" smooth="yes"/>
      <point x="-250" y="48"/>
      <point x="-176" y="92"/>
      <point x="-98" y="92" type="curve" smooth="yes"/>
      <point x="-88" y="92"/>
      <point x="-79" y="91"/>
      <point x="-70" y="90" type="curve"/>
      <point x="-70" y="0" type="line"/>
      <point x="-97" y="0" type="line" smooth="yes"/>
      <point x="-127" y="0"/>
      <point x="-144" y="-12"/>
      <point x="-144" y="-35" type="curve" smooth="yes"/>
      <point x="-144" y="-58"/>
      <point x="-123" y="-69"/>
      <point x="-90" y="-69" type="curve" smooth="yes"/>
      <point x="-70" y="-69" type="line"/>
      <point x="-70" y="-156" type="line"/>
      <point x="-97" y="-156" type="line" smooth="yes"/>
      <point x="-127" y="-156"/>
      <point x="-144" y="-168"/>
      <point x="-144" y="-191" type="curve" smooth="yes"/>
      <point x="-144" y="-214"/>
      <point x="-123" y="-225"/>
    </contour>
  </outline>
</glyph>
<glyph name="eShortMatradeva" format="1">
  <advance width="0"/>
  <unicode hex="0946"/>
  <outline>
    <contour>
      <point x="-122" y="606" type="move" name="_Anchor-5"/>
    </contour>
    <contour>
      <point x="-122" y="606" type="move" name="_Anchor-2"/>
    </contour>
    <contour>
      <point x="-122" y="606" type="move" name="_Anchor-0"/>
    </contour>
    <contour>
      <point x="-176" y="573" type="line"/>
      <point x="-176" y="662" type="line" smooth="yes"/>
      <point x="-176" y="680"/>
      <point x="-185" y="687"/>
      <point x="-205" y="687" type="curve" smooth="yes"/>
      <point x="-389" y="687" type="line" smooth="yes"/>
      <point x="-483" y="687"/>
      <point x="-523" y="722"/>
      <point x="-523" y="805" type="curve" smooth="yes"/>
      <point x="-523" y="827" type="line"/>
      <point x="-417" y="827" type="line"/>
      <point x="-417" y="805" type="line" smooth="yes"/>
      <point x="-417" y="787"/>
      <point x="-409" y="779"/>
      <point x="-389" y="779" type="curve" smooth="yes"/>
      <point x="-205" y="779" type="line" smooth="yes"/>
      <point x="-110" y="779"/>
      <point x="-70" y="744"/>
      <point x="-70" y="662" type="curve" smooth="yes"/>
      <point x="-70" y="573" type="line"/>
    </contour>
  </outline>
</glyph>
<glyph name="eMatradeva" format="1">
  <advance width="0"/>
  <unicode hex="0947"/>
  <outline>
    <contour>
      <point x="-123" y="606" type="move" name="_Anchor-5"/>
    </contour>
    <contour>
      <point x="-123" y="606" type="move" name="_Anchor-2"/>
    </contour>
    <contour>
      <point x="-123" y="606" type="move" name="_Anchor-0"/>
    </contour>
    <contour>
      <point x="-72" y="606" type="line"/>
      <point x="-72" y="513" type="line"/>
      <point x="-187" y="513" type="line"/>
      <point x="-187" y="606" type="line"/>
      <point x="-179" y="606" type="line"/>
      <point x="-247" y="821" type="line"/>
      <point x="-140" y="821" type="line"/>
      <point x="-81" y="606" type="line"/>
    </contour>
  </outline>
</glyph>
<glyph name="oShortMatradeva" format="1">
  <advance width="246"/>
  <unicode hex="094A"/>
  <outline>
    <contour>
      <point x="123" y="0" type="move" name="Anchor-3"/>
    </contour>
    <contour>
      <point x="123" y="606" type="move" name="Anchor-2"/>
    </contour>
    <contour>
      <point x="256" y="513" type="line"/>
      <point x="176" y="513" type="line"/>
      <point x="176" y="0" type="line"/>
      <point x="70" y="0" type="line"/>
      <point x="70" y="513" type="line"/>
      <point x="-10" y="513" type="line"/>
      <point x="-10" y="606" type="line"/>
      <point x="69" y="606" type="line"/>
      <point x="69" y="662" type="line" smooth="yes"/>
      <point x="69" y="680"/>
      <point x="60" y="687"/>
      <point x="40" y="687" type="curve" smooth="yes"/>
      <point x="-144" y="687" type="line" smooth="yes"/>
      <point x="-238" y="687"/>
      <point x="-278" y="722"/>
      <point x="-278" y="805" type="curve" smooth="yes"/>
      <point x="-278" y="827" type="line"/>
      <point x="-172" y="827" type="line"/>
      <point x="-172" y="805" type="line" smooth="yes"/>
      <point x="-172" y="787"/>
      <point x="-164" y="779"/>
      <point x="-144" y="779" type="curve" smooth="yes"/>
      <point x="40" y="779" type="line" smooth="yes"/>
      <point x="135" y="779"/>
      <point x="175" y="744"/>
      <point x="175" y="662" type="curve" smooth="yes"/>
      <point x="175" y="606" type="line"/>
      <point x="256" y="606" type="line"/>
    </contour>
  </outline>
</glyph>
<glyph name="auMatradeva" format="1">
  <advance width="246"/>
  <unicode hex="094C"/>
  <outline>
    <contour>
      <point x="123" y="0" type="move" name="Anchor-3"/>
    </contour>
    <contour>
      <point x="123" y="606" type="move" name="Anchor-2"/>
    </contour>
    <contour>
      <point x="256" y="606" type="line"/>
      <point x="256" y="513" type="line"/>
      <point x="176" y="513" type="line"/>
      <point x="176" y="0" type="line"/>
      <point x="70" y="0" type="line"/>
      <point x="70" y="513" type="line"/>
      <point x="-49" y="513" type="line"/>
      <point x="-49" y="606" type="line"/>
      <point x="-40" y="606" type="line"/>
      <point x="-108" y="821" type="line"/>
      <point x="-1" y="821" type="line"/>
      <point x="58" y="606" type="line"/>
      <point x="75" y="606" type="line"/>
      <point x="70" y="652"/>
      <point x="67" y="697"/>
      <point x="67" y="743" type="curve" smooth="yes"/>
      <point x="67" y="821" type="line"/>
      <point x="174" y="821" type="line"/>
      <point x="174" y="606" type="line"/>
    </contour>
  </outline>
</glyph>
<glyph name="acutedeva" format="1">
  <advance width="0"/>
  <unicode hex="0954"/>
  <outline>
    <contour>
      <point x="-123" y="606" type="move" name="_Anchor-5"/>
    </contour>
    <contour>
      <point x="-123" y="606" type="move" name="_Anchor-2"/>
    </contour>
    <contour>
      <point x="-123" y="606" type="move" name="_Anchor-0"/>
    </contour>
    <contour>
      <point x="-166" y="659" type="line"/>
      <point x="-90" y="776" type="line"/>
      <point x="17" y="776" type="line"/>
      <point x="17" y="773" type="line"/>
      <point x="-78" y="659" type="line"/>
    </contour>
  </outline>
</glyph>
<glyph name="llVocalicMatradeva" format="1">
  <advance width="0"/>
  <unicode hex="0963"/>
  <outline>
    <contour>
      <point x="-123" y="0" type="move" name="_Anchor-4"/>
    </contour>
    <contour>
      <point x="-123" y="0" type="move" name="_Anchor-3"/>
    </contour>
    <contour>
      <point x="-123" y="0" type="move" name="_Anchor-1"/>
    </contour>
    <contour>
      <point x="2" y="-238" type="curve"/>
      <point x="-4" y="-247"/>
      <point x="-5" y="-254"/>
      <point x="-5" y="-260" type="curve" smooth="yes"/>
      <point x="-5" y="-276"/>
      <point x="4" y="-285"/>
      <point x="21" y="-285" type="curve" smooth="yes"/>
      <point x="33" y="-285"/>
      <point x="47" y="-280"/>
      <point x="63" y="-273" type="curve"/>
      <point x="63" y="-339" type="line"/>
      <point x="46" y="-348"/>
      <point x="27" y="-355"/>
      <point x="3" y="-355" type="curve" smooth="yes"/>
      <point x="-44" y="-355"/>
      <point x="-89" y="-330"/>
      <point x="-89" y="-280" type="curve" smooth="yes"/>
      <point x="-89" y="-257"/>
      <point x="-80" y="-236"/>
      <point x="-66" y="-216" type="curve"/>
      <point x="-80" y="-204"/>
      <point x="-89" y="-188"/>
      <point x="-89" y="-167" type="curve" smooth="yes"/>
      <point x="-89" y="-123"/>
      <point x="-48" y="-79"/>
      <point x="-48" y="-46" type="curve" smooth="yes"/>
      <point x="-48" y="-31"/>
      <point x="-56" y="-24"/>
      <point x="-67" y="-24" type="curve" smooth="yes"/>
      <point x="-84" y="-24"/>
      <point x="-91" y="-40"/>
      <point x="-91" y="-65" type="curve" smooth="yes"/>
      <point x="-91" y="-76" type="line"/>
      <point x="-155" y="-76" type="line"/>
      <point x="-155" y="-65" type="line" smooth="yes"/>
      <point x="-155" y="-41"/>
      <point x="-162" y="-24"/>
      <point x="-180" y="-24" type="curve" smooth="yes"/>
      <point x="-197" y="-24"/>
      <point x="-205" y="-40"/>
      <point x="-205" y="-69" type="curve" smooth="yes"/>
      <point x="-205" y="-104"/>
      <point x="-194" y="-122"/>
      <point x="-165" y="-122" type="curve" smooth="yes"/>
      <point x="-158" y="-122" type="line"/>
      <point x="-158" y="-202" type="line"/>
      <point x="-167" y="-202" type="line" smooth="yes"/>
      <point x="-252" y="-202"/>
      <point x="-292" y="-158"/>
      <point x="-292" y="-68" type="curve" smooth="yes"/>
      <point x="-292" y="8"/>
      <point x="-263" y="56"/>
      <point x="-202" y="56" type="curve" smooth="yes"/>
      <point x="-162" y="56"/>
      <point x="-137" y="34"/>
      <point x="-123" y="5" type="curve"/>
      <point x="-111" y="30"/>
      <point x="-88" y="56"/>
      <point x="-44" y="56" type="curve" smooth="yes"/>
      <point x="6" y="56"/>
      <point x="39" y="21"/>
      <point x="39" y="-27" type="curve" smooth="yes"/>
      <point x="39" y="-77"/>
      <point x="2" y="-121"/>
      <point x="2" y="-144" type="curve" smooth="yes"/>
      <point x="2" y="-155"/>
      <point x="11" y="-164"/>
      <point x="23" y="-164" type="curve" smooth="yes"/>
      <point x="32" y="-164"/>
      <point x="47" y="-159"/>
      <point x="63" y="-152" type="curve"/>
      <point x="63" y="-222" type="line"/>
      <point x="46" y="-231"/>
      <point x="27" y="-238"/>
    </contour>
  </outline>
</glyph>
<glyph name="zerodeva" format="1">
  <advance width="436"/>
  <unicode hex="0966"/>
  <outline>
    <contour>
      <point x="218" y="516" type="curve" smooth="yes"/>
      <point x="333" y="516"/>
      <point x="394" y="446"/>
      <point x="394" y="315" type="curve" smooth="yes"/>
      <point x="394" y="184"/>
      <point x="333" y="114"/>
      <point x="218" y="114" type="curve" smooth="yes"/>
      <point x="104" y="114"/>
      <point x="42" y="184"/>
      <point x="42" y="315" type="curve" smooth="yes"/>
      <point x="42" y="446"/>
      <point x="104" y="516"/>
    </contour>
    <contour>
      <point x="218" y="426" type="curve" smooth="yes"/>
      <point x="173" y="426"/>
      <point x="148" y="391"/>
      <point x="148" y="327" type="curve" smooth="yes"/>
      <point x="148" y="303" type="line" smooth="yes"/>
      <point x="148" y="239"/>
      <point x="173" y="204"/>
      <point x="218" y="204" type="curve" smooth="yes"/>
      <point x="264" y="204"/>
      <point x="288" y="239"/>
      <point x="288" y="303" type="curve" smooth="yes"/>
      <point x="288" y="327" type="line" smooth="yes"/>
      <point x="288" y="391"/>
      <point x="264" y="426"/>
    </contour>
  </outline>
</glyph>
<glyph name="sevendeva" format="1">
  <advance width="517"/>
  <unicode hex="096D"/>
  <outline>
    <contour>
      <point x="341" y="516" type="curve" smooth="yes"/>
      <point x="435" y="516"/>
      <point x="475" y="454"/>
      <point x="475" y="308" type="curve" smooth="yes"/>
      <point x="475" y="102"/>
      <point x="396" y="-11"/>
      <point x="248" y="-11" type="curve" smooth="yes"/>
      <point x="106" y="-11"/>
      <point x="42" y="91"/>
      <point x="42" y="284" type="curve" smooth="yes"/>
      <point x="42" y="369"/>
      <point x="55" y="472"/>
      <point x="105" y="627" type="curve"/>
      <point x="218" y="627" type="line"/>
      <point x="162" y="466"/>
      <point x="148" y="356"/>
      <point x="148" y="272" type="curve" smooth="yes"/>
      <point x="148" y="247" type="line" smooth="yes"/>
      <point x="148" y="136"/>
      <point x="182" y="81"/>
      <point x="258" y="81" type="curve" smooth="yes"/>
      <point x="314" y="81"/>
      <point x="352" y="111"/>
      <point x="367" y="218" type="curve"/>
      <point x="350" y="217" type="line"/>
      <point x="265" y="217"/>
      <point x="200" y="274"/>
      <point x="200" y="373" type="curve" smooth="yes"/>
      <point x="200" y="461"/>
      <point x="251" y="516"/>
    </contour>
    <contour>
      <point x="373" y="299" type="line"/>
      <point x="373" y="353" type="line" smooth="yes"/>
      <point x="373" y="404"/>
      <point x="362" y="429"/>
      <point x="339" y="429" type="curve" smooth="yes"/>
      <point x="315" y="429"/>
      <point x="304" y="404"/>
      <point x="304" y="370" type="curve" smooth="yes"/>
      <point x="304" y="323"/>
      <point x="324" y="299"/>
      <point x="360" y="299" type="curve" smooth="yes"/>
    </contour>
  </outline>
</glyph>
<glyph name="ninedeva" format="1">
  <advance width="428"/>
  <unicode hex="096F"/>
  <outline>
    <contour>
      <point x="323" y="151" type="curve" smooth="yes"/>
      <point x="365" y="113"/>
      <point x="378" y="83"/>
      <point x="378" y="58" type="curve" smooth="yes"/>
      <point x="378" y="42"/>
      <point x="372" y="23"/>
      <point x="362" y="0" type="curve"/>
      <point x="273" y="0" type="line"/>
      <point x="275" y="12"/>
      <point x="275" y="21"/>
      <point x="275" y="30" type="curve" smooth="yes"/>
      <point x="275" y="55"/>
      <point x="268" y="72"/>
      <point x="246" y="92" type="curve" smooth="yes"/>
      <point x="182" y="152"/>
      <point x="42" y="244"/>
      <point x="42" y="434" type="curve" smooth="yes"/>
      <point x="42" y="566"/>
      <point x="104" y="637"/>
      <point x="206" y="637" type="curve" smooth="yes"/>
      <point x="297" y="637"/>
      <point x="363" y="578"/>
      <point x="363" y="474" type="curve" smooth="yes"/>
      <point x="363" y="363"/>
      <point x="287" y="295"/>
      <point x="184" y="293" type="curve"/>
      <point x="223" y="228"/>
      <point x="283" y="186"/>
    </contour>
    <contour>
      <point x="205" y="550" type="curve" smooth="yes"/>
      <point x="168" y="550"/>
      <point x="145" y="515"/>
      <point x="145" y="439" type="curve" smooth="yes"/>
      <point x="145" y="416"/>
      <point x="147" y="395"/>
      <point x="152" y="375" type="curve"/>
      <point x="177" y="375" type="line" smooth="yes"/>
      <point x="226" y="375"/>
      <point x="259" y="410"/>
      <point x="259" y="471" type="curve" smooth="yes"/>
      <point x="259" y="514"/>
      <point x="244" y="550"/>
    </contour>
  </outline>
</glyph>
<glyph name="abbreviationdeva" format="1">
  <advance width="411"/>
  <unicode hex="0970"/>
  <outline>
    <contour>
      <point x="205" y="616" type="curve" smooth="yes"/>
      <point x="289" y="616"/>
      <point x="356" y="549"/>
      <point x="356" y="466" type="curve" smooth="yes"/>
      <point x="356" y="382"/>
      <point x="289" y="315"/>
      <point x="205" y="315" type="curve" smooth="yes"/>
      <point x="121" y="315"/>
      <point x="55" y="382"/>
      <point x="55" y="466" type="curve" smooth="yes"/>
      <point x="55" y="549"/>
      <point x="121" y="616"/>
    </contour>
    <contour>
      <point x="205" y="543" type="curve" smooth="yes"/>
      <point x="162" y="543"/>
      <point x="127" y="510"/>
      <point x="127" y="466" type="curve" smooth="yes"/>
      <point x="127" y="422"/>
      <point x="162" y="387"/>
      <point x="205" y="387" type="curve" smooth="yes"/>
      <point x="248" y="387"/>
      <point x="283" y="422"/>
      <point x="283" y="466" type="curve" smooth="yes"/>
      <point x="283" y="510"/>
      <point x="248" y="543"/>
    </contour>
  </outline>
</glyph>
<glyph name="dddadeva" format="1">
  <advance width="432"/>
  <unicode hex="097E"/>
  <outline>
    <contour>
      <point x="210" y="0" type="move" name="Anchor-3"/>
    </contour>
    <contour>
      <point x="308" y="606" type="move" name="Anchor-2"/>
    </contour>
    <contour>
      <point x="361" y="354" type="line"/>
      <point x="216" y="354" type="line" smooth="yes"/>
      <point x="195" y="354"/>
      <point x="173" y="345"/>
      <point x="173" y="324" type="curve" smooth="yes"/>
      <point x="173" y="300"/>
      <point x="202" y="297"/>
      <point x="223" y="297" type="curve" smooth="yes"/>
      <point x="255" y="297" type="line" smooth="yes"/>
      <point x="311" y="297"/>
      <point x="390" y="285"/>
      <point x="390" y="181" type="curve" smooth="yes"/>
      <point x="390" y="77"/>
      <point x="311" y="39"/>
      <point x="211" y="39" type="curve" smooth="yes"/>
      <point x="93" y="39"/>
      <point x="30" y="83"/>
      <point x="30" y="167" type="curve" smooth="yes"/>
      <point x="30" y="170"/>
      <point x="30" y="177"/>
      <point x="32" y="186" type="curve"/>
      <point x="139" y="186" type="line"/>
      <point x="139" y="182" type="line" smooth="yes"/>
      <point x="139" y="141"/>
      <point x="181" y="126"/>
      <point x="212" y="126" type="curve" smooth="yes"/>
      <point x="241" y="126"/>
      <point x="282" y="139"/>
      <point x="282" y="174" type="curve" smooth="yes"/>
      <point x="282" y="202"/>
      <point x="261" y="207"/>
      <point x="244" y="207" type="curve" smooth="yes"/>
      <point x="209" y="207" type="line" smooth="yes"/>
      <point x="147" y="207"/>
      <point x="65" y="221"/>
      <point x="65" y="324" type="curve" smooth="yes"/>
      <point x="65" y="413"/>
      <point x="131" y="447"/>
      <point x="219" y="447" type="curve" smooth="yes"/>
      <point x="255" y="447" type="line"/>
      <point x="255" y="513" type="line"/>
      <point x="-10" y="513" type="line"/>
      <point x="-10" y="606" type="line"/>
      <point x="442" y="606" type="line"/>
      <point x="442" y="513" type="line"/>
      <point x="361" y="513" type="line"/>
    </contour>
    <contour>
      <point x="40" y="0" type="line"/>
      <point x="380" y="0" type="line"/>
      <point x="380" y="-80" type="line"/>
      <point x="40" y="-80" type="line"/>
    </contour>
  </outline>
</glyph>
<glyph name="Wdieresis" format="1">
  <advance width="684"/>
  <unicode hex="1E84"/>
  <outline>
    <contour>
      <point x="221" y="684" type="line"/>
      <point x="221" y="781" type="line"/>
      <point x="309" y="781" type="line"/>
      <point x="309" y="684" type="line"/>
    </contour>
    <contour>
      <point x="376" y="684" type="line"/>
      <point x="376" y="781" type="line"/>
      <point x="464" y="781" type="line"/>
      <point x="464" y="684" type="line"/>
    </contour>
    <contour>
      <point x="438" y="0" type="line"/>
      <point x="355" y="386" type="line" smooth="yes"/>
      <point x="348" y="417"/>
      <point x="343" y="472"/>
      <point x="343" y="472" type="curve"/>
      <point x="339" y="472" type="line"/>
      <point x="339" y="472"/>
      <point x="332" y="412"/>
      <point x="327" y="386" type="curve" smooth="yes"/>
      <point x="246" y="0" type="line"/>
      <point x="132" y="0" type="line"/>
      <point x="0" y="606" type="line"/>
      <point x="112" y="606" type="line"/>
      <point x="185" y="233" type="line" smooth="yes"/>
      <point x="190" y="207"/>
      <point x="196" y="149"/>
      <point x="196" y="149" type="curve"/>
      <point x="200" y="149" type="line"/>
      <point x="200" y="149"/>
      <point x="206" y="208"/>
      <point x="211" y="233" type="curve" smooth="yes"/>
      <point x="285" y="606" type="line"/>
      <point x="413" y="606" type="line"/>
      <point x="485" y="233" type="line" smooth="yes"/>
      <point x="490" y="210"/>
      <point x="497" y="149"/>
      <point x="497" y="149" type="curve"/>
      <point x="500" y="149" type="line"/>
      <point x="500" y="149"/>
      <point x="506" y="203"/>
      <point x="512" y="233" type="curve" smooth="yes"/>
      <point x="586" y="606" type="line"/>
      <point x="683" y="606" type="line"/>
      <point x="552" y="0" type="line"/>
    </contour>
  </outline>
</glyph>
<glyph name="Ygrave" format="1">
  <advance width="484"/>
  <unicode hex="1EF2"/>
  <outline>
    <contour>
      <point x="215" y="664" type="line"/>
      <point x="119" y="778" type="line"/>
      <point x="120" y="781" type="line"/>
      <point x="226" y="781" type="line"/>
      <point x="302" y="664" type="line"/>
    </contour>
    <contour>
      <point x="299" y="0" type="line"/>
      <point x="186" y="0" type="line"/>
      <point x="186" y="229" type="line"/>
      <point x="0" y="606" type="line"/>
      <point x="119" y="606" type="line"/>
      <point x="243" y="340" type="line"/>
      <point x="247" y="340" type="line"/>
      <point x="370" y="606" type="line"/>
      <point x="484" y="606" type="line"/>
      <point x="299" y="229" type="line"/>
    </contour>
  </outline>
</glyph>
<glyph name="zerowidthnonjoiner" format="1">
  <advance width="0"/>
  <unicode hex="200C"/>
  <outline>
    <contour>
      <point x="79" y="-404" type="line"/>
      <point x="0" y="-404" type="line"/>
      <point x="0" y="827" type="line"/>
      <point x="79" y="827" type="line"/>
    </contour>
  </outline>
</glyph>
<glyph name="underscoredbl" format="1">
  <advance width="442"/>
  <unicode hex="2017"/>
  <outline>
    <contour>
      <point x="0" y="-78" type="line"/>
      <point x="442" y="-78" type="line"/>
      <point x="442" y="-123" type="line"/>
      <point x="0" y="-123" type="line"/>
    </contour>
    <contour>
      <point x="0" y="-155" type="line"/>
      <point x="442" y="-155" type="line"/>
      <point x="442" y="-200" type="line"/>
      <point x="0" y="-200" type="line"/>
    </contour>
  </outline>
</glyph>
<glyph name="quoteleft" format="1">
  <advance width="202"/>
  <unicode hex="2018"/>
  <outline>
    <contour>
      <point x="162" y="347" type="line"/>
      <point x="40" y="347" type="line"/>
      <point x="40" y="458" type="line"/>
      <point x="98" y="606" type="line"/>
      <point x="162" y="606" type="line"/>
      <point x="113" y="469" type="line"/>
      <point x="162" y="469" type="line"/>
    </contour>
  </outline>
</glyph>
<glyph name="quoteright" format="1">
  <advance width="202"/>
  <unicode hex="2019"/>
  <outline>
    <contour>
      <point x="40" y="347" type="line"/>
      <point x="88" y="485" type="line"/>
      <point x="40" y="485" type="line"/>
      <point x="40" y="606" type="line"/>
      <point x="162" y="606" type="line"/>
      <point x="162" y="496" type="line"/>
      <point x="103" y="347" type="line"/>
    </contour>
  </outline>
</glyph>
<glyph name="quotereversed" format="1">
  <advance width="202"/>
  <unicode hex="201B"/>
  <outline>
    <contour>
      <point x="162" y="347" type="line"/>
      <point x="98" y="347" type="line"/>
      <point x="40" y="496" type="line"/>
      <point x="40" y="606" type="line"/>
      <point x="162" y="606" type="line"/>
      <point x="162" y="485" type="line"/>
      <point x="113" y="485" type="line"/>
    </contour>
  </outline>
</glyph>
<glyph name="quotedblleft" format="1">
  <advance width="362"/>
  <unicode hex="201C"/>
  <outline>
    <contour>
      <point x="161" y="469" type="line"/>
      <point x="161" y="347" type="line"/>
      <point x="39" y="347" type="line"/>
      <point x="39" y="458" type="line"/>
      <point x="97" y="606" type="line"/>
      <point x="161" y="606" type="line"/>
      <point x="112" y="469" type="line"/>
    </contour>
    <contour>
      <point x="323" y="469" type="line"/>
      <point x="323" y="347" type="line"/>
      <point x="201" y="347" type="line"/>
      <point x="201" y="458" type="line"/>
      <point x="259" y="606" type="line"/>
      <point x="323" y="606" type="line"/>
      <point x="274" y="469" type="line"/>
    </contour>
  </outline>
</glyph>
<glyph name="quotedblright" format="1">
  <advance width="362"/>
  <unicode hex="201D"/>
  <outline>
    <contour>
      <point x="40" y="347" type="line"/>
      <point x="88" y="485" type="line"/>
      <point x="40" y="485" type="line"/>
      <point x="40" y="606" type="line"/>
      <point x="162" y="606" type="line"/>
      <point x="162" y="496" type="line"/>
      <point x="103" y="347" type="line"/>
    </contour>
    <contour>
      <point x="202" y="347" type="line"/>
      <point x="250" y="485" type="line"/>
      <point x="202" y="485" type="line"/>
      <point x="202" y="606" type="line"/>
      <point x="324" y="606" type="line"/>
      <point x="324" y="496" type="line"/>
      <point x="265" y="347" type="line"/>
    </contour>
  </outline>
</glyph>
<glyph name="daggerdbl" format="1">
  <advance width="403"/>
  <unicode hex="2021"/>
  <outline>
    <contour>
      <point x="380" y="360" type="line"/>
      <point x="233" y="376" type="line"/>
      <point x="251" y="230" type="line"/>
      <point x="233" y="80" type="line"/>
      <point x="380" y="96" type="line"/>
      <point x="380" y="-4" type="line"/>
      <point x="233" y="11" type="line"/>
      <point x="248" y="-153" type="line"/>
      <point x="153" y="-153" type="line"/>
      <point x="168" y="11" type="line"/>
      <point x="22" y="-4" type="line"/>
      <point x="22" y="96" type="line"/>
      <point x="168" y="80" type="line"/>
      <point x="150" y="230" type="line"/>
      <point x="168" y="376" type="line"/>
      <point x="22" y="360" type="line"/>
      <point x="22" y="460" type="line"/>
      <point x="168" y="445" type="line"/>
      <point x="153" y="606" type="line"/>
      <point x="248" y="606" type="line"/>
      <point x="233" y="445" type="line"/>
      <point x="380" y="460" type="line"/>
    </contour>
  </outline>
</glyph>
<glyph name="caret" format="1">
  <advance width="299"/>
  <unicode hex="2038"/>
  <outline>
    <contour>
      <point x="149" y="-102" type="line"/>
      <point x="104" y="-230" type="line"/>
      <point x="10" y="-230" type="line"/>
      <point x="120" y="44" type="line"/>
      <point x="179" y="44" type="line"/>
      <point x="289" y="-230" type="line"/>
      <point x="195" y="-230" type="line"/>
    </contour>
  </outline>
</glyph>
<glyph name="exclamdbl" format="1">
  <advance width="483"/>
  <unicode hex="203C"/>
  <outline>
    <contour>
      <point x="53" y="606" type="curve"/>
      <point x="188" y="606" type="line"/>
      <point x="178" y="462"/>
      <point x="167" y="318"/>
      <point x="156" y="174" type="curve"/>
      <point x="84" y="174" type="line"/>
      <point x="73" y="318"/>
      <point x="64" y="462"/>
    </contour>
    <contour>
      <point x="294" y="606" type="curve"/>
      <point x="430" y="606" type="line"/>
      <point x="419" y="462"/>
      <point x="408" y="318"/>
      <point x="398" y="174" type="curve"/>
      <point x="325" y="174" type="line"/>
      <point x="315" y="318"/>
      <point x="305" y="462"/>
    </contour>
    <contour>
      <point x="60" y="0" type="line"/>
      <point x="60" y="121" type="line"/>
      <point x="182" y="121" type="line"/>
      <point x="182" y="0" type="line"/>
    </contour>
    <contour>
      <point x="301" y="0" type="line"/>
      <point x="301" y="121" type="line"/>
      <point x="423" y="121" type="line"/>
      <point x="423" y="0" type="line"/>
    </contour>
  </outline>
</glyph>
<glyph name="nsuperior" format="1">
  <advance width="287"/>
  <unicode hex="207F"/>
  <outline>
    <contour>
      <point x="177" y="649" type="curve" smooth="yes"/>
      <point x="225" y="649"/>
      <point x="260" y="622"/>
      <point x="260" y="548" type="curve" smooth="yes"/>
      <point x="260" y="329" type="line"/>
      <point x="184" y="329" type="line"/>
      <point x="184" y="529" type="line" smooth="yes"/>
      <point x="184" y="567"/>
      <point x="171" y="581"/>
      <point x="148" y="581" type="curve" smooth="yes"/>
      <point x="122" y="581"/>
      <point x="103" y="555"/>
      <point x="103" y="522" type="curve" smooth="yes"/>
      <point x="103" y="329" type="line"/>
      <point x="27" y="329" type="line"/>
      <point x="27" y="642" type="line"/>
      <point x="91" y="642" type="line"/>
      <point x="98" y="604" type="line"/>
      <point x="102" y="604" type="line"/>
      <point x="117" y="628"/>
      <point x="141" y="649"/>
    </contour>
  </outline>
</glyph>
<glyph name="franc" format="1">
  <advance width="446"/>
  <unicode hex="20A3"/>
  <outline>
    <contour>
      <point x="441" y="323" type="line"/>
      <point x="430" y="323" type="line" smooth="yes"/>
      <point x="384" y="323"/>
      <point x="343" y="298"/>
      <point x="343" y="216" type="curve" smooth="yes"/>
      <point x="343" y="0" type="line"/>
      <point x="237" y="0" type="line"/>
      <point x="237" y="252" type="line"/>
      <point x="149" y="252" type="line"/>
      <point x="149" y="0" type="line"/>
      <point x="35" y="0" type="line"/>
      <point x="35" y="606" type="line"/>
      <point x="347" y="606" type="line"/>
      <point x="347" y="506" type="line"/>
      <point x="149" y="506" type="line"/>
      <point x="149" y="353" type="line"/>
      <point x="237" y="353" type="line"/>
      <point x="237" y="422" type="line"/>
      <point x="325" y="422" type="line"/>
      <point x="338" y="354" type="line"/>
      <point x="343" y="354" type="line"/>
      <point x="354" y="392"/>
      <point x="373" y="432"/>
      <point x="415" y="432" type="curve" smooth="yes"/>
      <point x="431" y="432"/>
      <point x="441" y="425"/>
      <point x="441" y="425" type="curve"/>
    </contour>
  </outline>
</glyph>
<glyph name="peseta" format="1">
  <advance width="849"/>
  <unicode hex="20A7"/>
  <outline>
    <contour>
      <point x="44" y="606" type="line"/>
      <point x="182" y="606" type="line" smooth="yes"/>
      <point x="291" y="606"/>
      <point x="354" y="548"/>
      <point x="369" y="465" type="curve"/>
      <point x="385" y="465" type="line"/>
      <point x="411" y="596" type="line"/>
      <point x="488" y="596" type="line"/>
      <point x="488" y="465" type="line"/>
      <point x="615" y="465" type="line"/>
      <point x="633" y="471"/>
      <point x="654" y="476"/>
      <point x="678" y="476" type="curve" smooth="yes"/>
      <point x="771" y="476"/>
      <point x="815" y="409"/>
      <point x="815" y="354" type="curve"/>
      <point x="814" y="329" type="line"/>
      <point x="712" y="329" type="line"/>
      <point x="712" y="340" type="line"/>
      <point x="711" y="370"/>
      <point x="698" y="389"/>
      <point x="674" y="389" type="curve" smooth="yes"/>
      <point x="645" y="389"/>
      <point x="635" y="368"/>
      <point x="635" y="350" type="curve" smooth="yes"/>
      <point x="635" y="259"/>
      <point x="825" y="294"/>
      <point x="825" y="138" type="curve" smooth="yes"/>
      <point x="825" y="40"/>
      <point x="772" y="-11"/>
      <point x="680" y="-11" type="curve" smooth="yes"/>
      <point x="624" y="-11"/>
      <point x="582" y="6"/>
      <point x="555" y="38" type="curve"/>
      <point x="555" y="0" type="line"/>
      <point x="541" y="-5"/>
      <point x="514" y="-11"/>
      <point x="495" y="-11" type="curve" smooth="yes"/>
      <point x="410" y="-11"/>
      <point x="385" y="52"/>
      <point x="385" y="114" type="curve" smooth="yes"/>
      <point x="385" y="376" type="line"/>
      <point x="367" y="376" type="line"/>
      <point x="348" y="289"/>
      <point x="278" y="235"/>
      <point x="182" y="235" type="curve" smooth="yes"/>
      <point x="157" y="235" type="line"/>
      <point x="157" y="0" type="line"/>
      <point x="44" y="0" type="line"/>
    </contour>
    <contour>
      <point x="157" y="335" type="line"/>
      <point x="171" y="335" type="line" smooth="yes"/>
      <point x="225" y="335"/>
      <point x="255" y="369"/>
      <point x="255" y="424" type="curve" smooth="yes"/>
      <point x="255" y="474"/>
      <point x="225" y="506"/>
      <point x="171" y="506" type="curve" smooth="yes"/>
      <point x="157" y="506" type="line"/>
    </contour>
    <contour>
      <point x="488" y="376" type="line"/>
      <point x="488" y="117" type="line" smooth="yes"/>
      <point x="488" y="92"/>
      <point x="501" y="79"/>
      <point x="525" y="79" type="curve" smooth="yes"/>
      <point x="532" y="79" type="line"/>
      <point x="528" y="94"/>
      <point x="525" y="110"/>
      <point x="525" y="129" type="curve" smooth="yes"/>
      <point x="525" y="140"/>
      <point x="527" y="147"/>
      <point x="527" y="147" type="curve"/>
      <point x="629" y="147" type="line"/>
      <point x="629" y="133" type="line" smooth="yes"/>
      <point x="629" y="100"/>
      <point x="646" y="76"/>
      <point x="676" y="76" type="curve" smooth="yes"/>
      <point x="703" y="76"/>
      <point x="720" y="93"/>
      <point x="720" y="119" type="curve" smooth="yes"/>
      <point x="720" y="217"/>
      <point x="531" y="171"/>
      <point x="531" y="340" type="curve" smooth="yes"/>
      <point x="531" y="352"/>
      <point x="533" y="364"/>
      <point x="536" y="376" type="curve"/>
    </contour>
  </outline>
</glyph>
<glyph name="careof" format="1">
  <advance width="698"/>
  <unicode hex="2105"/>
  <outline>
    <contour>
      <point x="156" y="617" type="curve" smooth="yes"/>
      <point x="226" y="617"/>
      <point x="271" y="578"/>
      <point x="271" y="486" type="curve"/>
      <point x="194" y="486" type="line"/>
      <point x="194" y="532"/>
      <point x="181" y="554"/>
      <point x="156" y="554" type="curve" smooth="yes"/>
      <point x="125" y="554"/>
      <point x="112" y="521"/>
      <point x="112" y="457" type="curve" smooth="yes"/>
      <point x="112" y="434" type="line" smooth="yes"/>
      <point x="112" y="370"/>
      <point x="125" y="337"/>
      <point x="158" y="337" type="curve" smooth="yes"/>
      <point x="186" y="337"/>
      <point x="196" y="360"/>
      <point x="196" y="405" type="curve"/>
      <point x="271" y="405" type="line"/>
      <point x="271" y="313"/>
      <point x="227" y="274"/>
      <point x="158" y="274" type="curve" smooth="yes"/>
      <point x="73" y="274"/>
      <point x="34" y="328"/>
      <point x="34" y="446" type="curve" smooth="yes"/>
      <point x="34" y="563"/>
      <point x="75" y="617"/>
    </contour>
    <contour>
      <point x="111" y="-11" type="line"/>
      <point x="479" y="617" type="line"/>
      <point x="546" y="617" type="line"/>
      <point x="179" y="-11" type="line"/>
    </contour>
    <contour>
      <point x="509" y="331" type="curve" smooth="yes"/>
      <point x="597" y="331"/>
      <point x="640" y="278"/>
      <point x="640" y="160" type="curve" smooth="yes"/>
      <point x="640" y="42"/>
      <point x="597" y="-11"/>
      <point x="509" y="-11" type="curve" smooth="yes"/>
      <point x="422" y="-11"/>
      <point x="378" y="42"/>
      <point x="378" y="160" type="curve" smooth="yes"/>
      <point x="378" y="278"/>
      <point x="422" y="331"/>
    </contour>
    <contour>
      <point x="509" y="269" type="curve" smooth="yes"/>
      <point x="470" y="269"/>
      <point x="456" y="235"/>
      <point x="456" y="171" type="curve" smooth="yes"/>
      <point x="456" y="149" type="line" smooth="yes"/>
      <point x="456" y="85"/>
      <point x="470" y="51"/>
      <point x="509" y="51" type="curve" smooth="yes"/>
      <point x="548" y="51"/>
      <point x="562" y="85"/>
      <point x="562" y="149" type="curve" smooth="yes"/>
      <point x="562" y="171" type="line" smooth="yes"/>
      <point x="562" y="235"/>
      <point x="548" y="269"/>
    </contour>
  </outline>
</glyph>
<glyph name="fiveeighths" format="1">
  <advance width="605"/>
  <unicode hex="215D"/>
  <outline>
    <contour>
      <point x="453" y="617" type="line"/>
      <point x="511" y="617" type="line"/>
      <point x="162" y="-11" type="line"/>
      <point x="103" y="-11" type="line"/>
    </contour>
    <contour>
      <point x="106" y="540" type="line"/>
      <point x="103" y="468" type="line"/>
      <point x="111" y="474"/>
      <point x="129" y="483"/>
      <point x="148" y="483" type="curve" smooth="yes"/>
      <point x="198" y="483"/>
      <point x="239" y="445"/>
      <point x="239" y="365" type="curve" smooth="yes"/>
      <point x="239" y="286"/>
      <point x="196" y="240"/>
      <point x="131" y="240" type="curve" smooth="yes"/>
      <point x="65" y="240"/>
      <point x="22" y="284"/>
      <point x="22" y="355" type="curve"/>
      <point x="95" y="355" type="line"/>
      <point x="95" y="322"/>
      <point x="108" y="300"/>
      <point x="131" y="300" type="curve" smooth="yes"/>
      <point x="151" y="300"/>
      <point x="165" y="322"/>
      <point x="165" y="365" type="curve" smooth="yes"/>
      <point x="165" y="403"/>
      <point x="152" y="425"/>
      <point x="134" y="425" type="curve" smooth="yes"/>
      <point x="117" y="425"/>
      <point x="106" y="412"/>
      <point x="99" y="393" type="curve"/>
      <point x="33" y="404" type="line"/>
      <point x="44" y="606" type="line"/>
      <point x="223" y="606" type="line"/>
      <point x="223" y="540" type="line"/>
    </contour>
    <contour>
      <point x="475" y="362" type="curve" smooth="yes"/>
      <point x="540" y="362"/>
      <point x="574" y="316"/>
      <point x="574" y="259" type="curve" smooth="yes"/>
      <point x="574" y="227"/>
      <point x="561" y="198"/>
      <point x="539" y="180" type="curve"/>
      <point x="568" y="163"/>
      <point x="581" y="132"/>
      <point x="581" y="95" type="curve" smooth="yes"/>
      <point x="581" y="36"/>
      <point x="550" y="-11"/>
      <point x="475" y="-11" type="curve" smooth="yes"/>
      <point x="400" y="-11"/>
      <point x="369" y="36"/>
      <point x="369" y="95" type="curve" smooth="yes"/>
      <point x="369" y="132"/>
      <point x="382" y="162"/>
      <point x="410" y="179" type="curve"/>
      <point x="389" y="198"/>
      <point x="376" y="229"/>
      <point x="376" y="259" type="curve" smooth="yes"/>
      <point x="376" y="316"/>
      <point x="409" y="362"/>
    </contour>
    <contour>
      <point x="475" y="301" type="curve" smooth="yes"/>
      <point x="456" y="301"/>
      <point x="447" y="286"/>
      <point x="447" y="255" type="curve" smooth="yes"/>
      <point x="447" y="225"/>
      <point x="456" y="209"/>
      <point x="475" y="209" type="curve" smooth="yes"/>
      <point x="493" y="209"/>
      <point x="502" y="225"/>
      <point x="502" y="255" type="curve" smooth="yes"/>
      <point x="502" y="286"/>
      <point x="493" y="301"/>
    </contour>
    <contour>
      <point x="475" y="149" type="curve" smooth="yes"/>
      <point x="453" y="149"/>
      <point x="441" y="132"/>
      <point x="441" y="99" type="curve" smooth="yes"/>
      <point x="441" y="65"/>
      <point x="453" y="49"/>
      <point x="475" y="49" type="curve" smooth="yes"/>
      <point x="497" y="49"/>
      <point x="508" y="65"/>
      <point x="508" y="99" type="curve" smooth="yes"/>
      <point x="508" y="132"/>
      <point x="497" y="149"/>
    </contour>
  </outline>
</glyph>
<glyph name="arrowright" format="1">
  <advance width="884"/>
  <unicode hex="2192"/>
  <outline>
    <contour>
      <point x="674" y="60" type="line"/>
      <point x="629" y="60" type="line"/>
      <point x="675" y="175" type="line"/>
      <point x="37" y="175" type="line"/>
      <point x="37" y="271" type="line"/>
      <point x="675" y="271" type="line"/>
      <point x="629" y="385" type="line"/>
      <point x="674" y="385" type="line"/>
      <point x="849" y="232" type="line"/>
      <point x="849" y="213" type="line"/>
    </contour>
  </outline>
</glyph>
<glyph name="arrowdown" format="1">
  <advance width="442"/>
  <unicode hex="2193"/>
  <outline>
    <contour>
      <point x="385" y="-9" type="line"/>
      <point x="232" y="-183" type="line"/>
      <point x="213" y="-183" type="line"/>
      <point x="60" y="-9" type="line"/>
      <point x="60" y="37" type="line"/>
      <point x="175" y="-10" type="line"/>
      <point x="175" y="629" type="line"/>
      <point x="271" y="629" type="line"/>
      <point x="271" y="-10" type="line"/>
      <point x="385" y="37" type="line"/>
    </contour>
  </outline>
</glyph>
<glyph name="minus" format="1">
  <advance width="423"/>
  <unicode hex="2212"/>
  <outline>
    <contour>
      <point x="29" y="271" type="line"/>
      <point x="393" y="271" type="line"/>
      <point x="393" y="179" type="line"/>
      <point x="29" y="179" type="line"/>
    </contour>
  </outline>
</glyph>
<glyph name="bulletoperator" format="1">
  <advance width="202"/>
  <unicode hex="2219"/>
  <outline>
    <contour>
      <point x="47" y="362" type="line"/>
      <point x="154" y="362" type="line"/>
      <point x="154" y="246" type="line"/>
      <point x="47" y="246" type="line"/>
    </contour>
  </outline>
</glyph>
<glyph name="orthogonal" format="1">
  <advance width="865"/>
  <unicode hex="221F"/>
  <outline>
    <contour>
      <point x="709" y="0" type="line"/>
      <point x="139" y="0" type="line"/>
      <point x="139" y="552" type="line"/>
      <point x="243" y="552" type="line"/>
      <point x="243" y="97" type="line"/>
      <point x="709" y="97" type="line"/>
    </contour>
  </outline>
</glyph>
<glyph name="notequal" format="1">
  <advance width="485"/>
  <unicode hex="2260"/>
  <outline>
    <contour>
      <point x="428" y="272" type="line"/>
      <point x="306" y="272" type="line"/>
      <point x="256" y="176" type="line"/>
      <point x="428" y="176" type="line"/>
      <point x="428" y="85" type="line"/>
      <point x="210" y="85" type="line"/>
      <point x="179" y="22" type="line"/>
      <point x="107" y="22" type="line"/>
      <point x="139" y="85" type="line"/>
      <point x="64" y="85" type="line"/>
      <point x="64" y="176" type="line"/>
      <point x="185" y="176" type="line"/>
      <point x="234" y="272" type="line"/>
      <point x="64" y="272" type="line"/>
      <point x="64" y="364" type="line"/>
      <point x="280" y="364" type="line"/>
      <point x="313" y="428" type="line"/>
      <point x="385" y="428" type="line"/>
      <point x="352" y="364" type="line"/>
      <point x="428" y="364" type="line"/>
    </contour>
  </outline>
</glyph>
<glyph name="lessequal" format="1">
  <advance width="485"/>
  <unicode hex="2264"/>
  <outline>
    <contour>
      <point x="425" y="232" type="line"/>
      <point x="425" y="127" type="line"/>
      <point x="61" y="309" type="line"/>
      <point x="61" y="422" type="line"/>
      <point x="425" y="605" type="line"/>
      <point x="425" y="500" type="line"/>
      <point x="150" y="366" type="line"/>
    </contour>
    <contour>
      <point x="61" y="91" type="line"/>
      <point x="425" y="91" type="line"/>
      <point x="425" y="0" type="line"/>
      <point x="61" y="0" type="line"/>
    </contour>
  </outline>
</glyph>
<glyph name="house" format="1">
  <advance width="530"/>
  <unicode hex="2302"/>
  <outline>
    <contour>
      <point x="66" y="0" type="line"/>
      <point x="66" y="274" type="line"/>
      <point x="265" y="498" type="line"/>
      <point x="464" y="274" type="line"/>
      <point x="464" y="0" type="line"/>
    </contour>
    <contour>
      <point x="383" y="79" type="line"/>
      <point x="383" y="245" type="line"/>
      <point x="265" y="378" type="line"/>
      <point x="148" y="245" type="line"/>
      <point x="148" y="79" type="line"/>
    </contour>
  </outline>
</glyph>
<glyph name="logicalnotReversed" format="1">
  <advance width="423"/>
  <unicode hex="2310"/>
  <outline>
    <contour>
      <point x="122" y="165" type="line"/>
      <point x="30" y="165" type="line"/>
      <point x="30" y="409" type="line"/>
      <point x="398" y="409" type="line"/>
      <point x="398" y="309" type="line"/>
      <point x="122" y="309" type="line"/>
    </contour>
  </outline>
</glyph>
<glyph name="integraltp" format="1">
  <advance width="534"/>
  <unicode hex="2320"/>
  <outline>
    <contour>
      <point x="377" y="759" type="curve"/>
      <point x="377" y="698" type="line"/>
      <point x="339" y="698"/>
      <point x="309" y="686"/>
      <point x="309" y="648" type="curve" smooth="yes"/>
      <point x="324" y="-221" type="line"/>
      <point x="224" y="-221" type="line"/>
      <point x="217" y="168"/>
      <point x="211" y="590"/>
      <point x="211" y="660" type="curve" smooth="yes"/>
      <point x="211" y="743"/>
      <point x="288" y="759"/>
    </contour>
  </outline>
</glyph>
<glyph name="lozenge" format="1">
  <advance width="521"/>
  <unicode hex="25CA"/>
  <outline>
    <contour>
      <point x="191" y="-2" type="line"/>
      <point x="93" y="302" type="line"/>
      <point x="191" y="606" type="line"/>
      <point x="323" y="606" type="line"/>
      <point x="421" y="302" type="line"/>
      <point x="323" y="-2" type="line"/>
    </contour>
    <contour>
      <point x="252" y="478" type="line"/>
      <point x="198" y="302" type="line"/>
      <point x="252" y="126" type="line"/>
      <point x="255" y="126" type="line"/>
      <point x="309" y="302" type="line"/>
      <point x="255" y="478" type="line"/>
    </contour>
  </outline>
</glyph>
<glyph name="combiningThreedeva" format="1">
  <advance width="0"/>
  <unicode hex="A8E3"/>
  <outline>
    <contour>
      <point x="-125" y="606" type="move" name="_Anchor-5"/>
    </contour>
    <contour>
      <point x="-125" y="606" type="move" name="_Anchor-2"/>
    </contour>
    <contour>
      <point x="-125" y="606" type="move" name="_Anchor-0"/>
    </contour>
    <contour>
      <point x="-88" y="760" type="curve"/>
      <point x="-68" y="757"/>
      <point x="-53" y="743"/>
      <point x="-53" y="724" type="curve" smooth="yes"/>
      <point x="-53" y="701"/>
      <point x="-74" y="681"/>
      <point x="-118" y="681" type="curve" smooth="yes"/>
      <point x="-129" y="681"/>
      <point x="-139" y="682"/>
      <point x="-147" y="685" type="curve"/>
      <point x="-147" y="651" type="line"/>
      <point x="-195" y="651" type="line"/>
      <point x="-196" y="739" type="line"/>
      <point x="-144" y="739" type="line"/>
      <point x="-144" y="736" type="line" smooth="yes"/>
      <point x="-144" y="726"/>
      <point x="-138" y="718"/>
      <point x="-126" y="718" type="curve" smooth="yes"/>
      <point x="-118" y="718"/>
      <point x="-111" y="721"/>
      <point x="-111" y="731" type="curve" smooth="yes"/>
      <point x="-111" y="740"/>
      <point x="-117" y="744"/>
      <point x="-130" y="744" type="curve" smooth="yes"/>
      <point x="-134" y="744" type="line"/>
      <point x="-134" y="773" type="line"/>
      <point x="-129" y="773" type="line" smooth="yes"/>
      <point x="-120" y="773"/>
      <point x="-116" y="777"/>
      <point x="-116" y="786" type="curve" smooth="yes"/>
      <point x="-116" y="795"/>
      <point x="-120" y="799"/>
      <point x="-128" y="799" type="curve" smooth="yes"/>
      <point x="-137" y="799"/>
      <point x="-141" y="794"/>
      <point x="-141" y="784" type="curve" smooth="yes"/>
      <point x="-141" y="778" type="line"/>
      <point x="-196" y="778" type="line"/>
      <point x="-197" y="782"/>
      <point x="-198" y="786"/>
      <point x="-198" y="792" type="curve" smooth="yes"/>
      <point x="-198" y="816"/>
      <point x="-179" y="836"/>
      <point x="-128" y="836" type="curve" smooth="yes"/>
      <point x="-84" y="836"/>
      <point x="-58" y="821"/>
      <point x="-58" y="795" type="curve" smooth="yes"/>
      <point x="-58" y="776"/>
      <point x="-72" y="765"/>
    </contour>
  </outline>
</glyph>
<glyph name="combiningSixdeva" format="1">
  <advance width="0"/>
  <unicode hex="A8E6"/>
  <outline>
    <contour>
      <point x="-135" y="606" type="move" name="_Anchor-5"/>
    </contour>
    <contour>
      <point x="-135" y="606" type="move" name="_Anchor-2"/>
    </contour>
    <contour>
      <point x="-135" y="606" type="move" name="_Anchor-0"/>
    </contour>
    <contour>
      <point x="-98" y="651" type="line"/>
      <point x="-106" y="689" type="line"/>
      <point x="-117" y="684"/>
      <point x="-131" y="681"/>
      <point x="-147" y="681" type="curve" smooth="yes"/>
      <point x="-191" y="681"/>
      <point x="-212" y="701"/>
      <point x="-212" y="724" type="curve" smooth="yes"/>
      <point x="-212" y="743"/>
      <point x="-197" y="757"/>
      <point x="-177" y="760" type="curve"/>
      <point x="-177" y="761" type="line"/>
      <point x="-193" y="765"/>
      <point x="-207" y="776"/>
      <point x="-207" y="795" type="curve" smooth="yes"/>
      <point x="-207" y="821"/>
      <point x="-181" y="836"/>
      <point x="-137" y="836" type="curve" smooth="yes"/>
      <point x="-86" y="836"/>
      <point x="-67" y="816"/>
      <point x="-67" y="792" type="curve" smooth="yes"/>
      <point x="-67" y="786"/>
      <point x="-68" y="782"/>
      <point x="-69" y="778" type="curve"/>
      <point x="-124" y="778" type="line"/>
      <point x="-124" y="784" type="line" smooth="yes"/>
      <point x="-124" y="794"/>
      <point x="-128" y="799"/>
      <point x="-137" y="799" type="curve" smooth="yes"/>
      <point x="-145" y="799"/>
      <point x="-149" y="795"/>
      <point x="-149" y="786" type="curve" smooth="yes"/>
      <point x="-149" y="777"/>
      <point x="-145" y="773"/>
      <point x="-136" y="773" type="curve" smooth="yes"/>
      <point x="-131" y="773" type="line"/>
      <point x="-131" y="744" type="line"/>
      <point x="-135" y="744" type="line" smooth="yes"/>
      <point x="-148" y="744"/>
      <point x="-154" y="740"/>
      <point x="-154" y="731" type="curve" smooth="yes"/>
      <point x="-154" y="721"/>
      <point x="-147" y="718"/>
      <point x="-139" y="718" type="curve" smooth="yes"/>
      <point x="-127" y="718"/>
      <point x="-121" y="726"/>
      <point x="-121" y="736" type="curve" smooth="yes"/>
      <point x="-121" y="739" type="line"/>
      <point x="-69" y="739" type="line"/>
      <point x="-50" y="651" type="line"/>
    </contour>
  </outline>
</glyph>
